<?xml version="1.0" encoding="iso-8859-1"?>
<!-- Generator: Adobe Illustrator 16.0.0, SVG Export Plug-In . SVG Version: 6.00 Build 0)  -->
<!DOCTYPE svg PUBLIC "-//W3C//DTD SVG 1.1//EN" "http://www.w3.org/Graphics/SVG/1.1/DTD/svg11.dtd">
<svg version="1.1" id="Capa_1" xmlns="http://www.w3.org/2000/svg" xmlns:xlink="http://www.w3.org/1999/xlink" x="0px" y="0px"
	 width="566.93px" height="566.93px" viewBox="0 0 566.93 566.93" style="enable-background:new 0 0 566.93 566.93;"
	 xml:space="preserve">
<path style="fill-rule:evenodd;clip-rule:evenodd;" d="M331.524,367.47c-0.189,0.261-0.42,0.346-0.844,0.097
	c0.372-0.033,0.615-0.045,0.866-0.067L331.524,367.47z"/>
<g>
	<g>
		<path style="fill-rule:evenodd;clip-rule:evenodd;fill:#FFFFFF;" d="M385.769,448.481c-7.957,2.031-15.746,4.662-23.54,7.274
			c-4.136,1.125-8.159,2.683-12.225,4.091c-10.282,3.55-20.709,6.766-31.182,9.715c-6.974,1.966-13.543,0.232-18.619-4.948
			c-8.584-8.792-10.526-19.568-7.749-31.217c1.789-7.337,5.859-13.281,13.015-16.431c4.102-1.792,8.348-3.281,12.558-4.737
			c10.213-3.531,20.552-6.655,30.839-9.938c4.061-1.236,8.101-2.535,12.14-3.77c-0.123-1.045-0.773-1.49-1.24-2.058
			c-7.631-9.399-15.917-18.211-23.602-27.542c-5.653-6.816-11.666-13.312-17.341-20.109c-7.855-9.398-9.314-25.166-3.358-35.876
			c4.82-8.67,14.864-13.773,23.518-11.872c4.321,0.95,7.764,3.425,10.833,6.5c6.503,6.53,11.905,13.975,18.01,20.852
			c3.688,4.139,7.478,8.193,10.952,12.518c6.842,8.498,14.366,16.404,21.294,24.802c6.33,7.715,13.022,15.07,19.502,22.626
			c6.347,7.402,10.912,15.387,10.275,25.563c-0.051,0.662-0.09,1.345-0.178,2.012c-1.249,10.205-5.881,18.191-15.115,23.201
			c-4.343,1.471-8.691,2.929-13.041,4.418c-0.404-0.032-0.685,0.047-0.669,0.557l-0.148,0.096c-0.989-0.384-1.831,0.128-2.689,0.396
			C393.914,445.871,389.859,447.217,385.769,448.481z"/>
		<path style="fill-rule:evenodd;clip-rule:evenodd;fill:#FFFFFF;" d="M116.83,410.197c-0.265-0.174-1.219,0.047-0.376-0.71
			c3.899-0.051,7.763-0.079,11.674-0.127c5.621,0.127,11.261,0.315,16.895-0.113c7.015,0.332,14.006,0.128,21.046-0.048
			c7.58,0.492,15.194,0.317,22.796,0.113c7.246,0.488,14.517,0.204,21.759,0.124c0.871-0.015,1.886-0.076,2.551-0.885
			c0.318,0,0.533-0.112,0.557-0.445l-0.024,0.048c1.069-0.224,1.601-1.175,2.317-1.854c7.467-7.16,14.949-14.276,22.124-21.727
			c1.672-1.709,3.505-3.262,5.254-4.895c-0.132-0.177-0.273-0.366-0.425-0.572c-1.943-0.125-3.862-0.249-5.786-0.394
			c-9.669-0.905-19.342-1.793-29.007-2.664c-7.106-0.633-14.212-1.283-21.327-1.869c-1.907-0.162-3.83-0.761-5.761-0.109
			c-1.246-0.763-2.658-0.463-3.994-0.587c-4.099-0.427-8.222-0.794-12.324-1.207c6.183-0.725,12.324-0.855,18.497-0.584
			c9.789-0.031,19.586-0.066,29.377-0.066c11.139,0.194,22.28,0.163,33.411-0.061c3.45,0.603,6.491-0.145,8.662-3.026
			c1.949-2.581,4.564-4.533,6.619-7.004l-0.025,0.019c0.57-0.131,0.885-0.524,1.043-1.049h-0.078
			c0.174-0.109,0.322-0.191,0.492-0.27c6.527-5.974,12.969-11.996,18.974-18.526c0.268-0.297,0.647-0.726,0.606-1.043
			c-0.09-0.634-0.751-0.539-1.235-0.602c-7.431-0.826-14.876-1.649-22.324-2.475c-6.946-0.805-13.875-1.693-20.823-2.44
			c-4.994-0.522-9.962-1.424-14.985-1.534c-0.639-0.224-1.527,0.234-2.006-0.682c1.367-0.809,2.765-0.142,4.135-0.191
			c14.816-0.032,29.655-0.048,44.47-0.063c4.23,0.031,8.517-0.314,12.71,0.174c6.433,0.714,11.423-1.316,15.351-6.37
			c1.769-2.232,4.517-3.626,5.675-6.402l-0.028,0.018c0.437,0.078,0.678-0.111,0.804-0.525c2.118-1.917,4.248-3.834,6.93-6.306
			c-0.794,3.835-1.857,6.781-2.303,9.871c-1.519,10.729,1.237,20.269,7.83,28.715c3.196,4.09,7.008,7.672,10.071,11.901
			c1.41,1.918,2.699,3.93,4.16,5.781c1.073,1.332-0.113,1.778-0.775,2.425c-5.391,5.199-11.007,10.206-16.215,15.608
			c-8.044,8.336-16.799,15.945-24.798,24.31c-7.481,7.812-15.69,14.863-23.08,22.725c-5.777,6.119-12.146,11.565-17.852,17.732
			c-4.314,4.34-8.596,8.681-12.896,13.042c-4.268,3.418-8.056,7.315-11.79,11.267c-2.473,2.328-5.328,4.201-7.383,6.94
			c-8.122,5.353-16.581,5.959-24.723,0.666c-5.754-3.745-9.223-9.62-11.328-16.197c-0.24-0.729-0.478-1.463-0.727-2.188
			c-0.293-1.329-0.593-2.646-0.891-3.978c-1.329-13.436,4.466-23.753,14.101-32.451c3.091-2.773,5.88-5.875,8.827-8.792
			c0.9-0.571,1.775-1.144,2.311-2.508c-3.041-0.237-5.859-0.441-8.707-0.68c-6.083-0.569-12.174-1.188-18.29-1.645
			c-3.784-0.288-7.544-1.049-11.397-0.781c-6.719-0.773-13.437-1.568-20.171-2.342c-5.576-0.792-11.172-1.334-16.812-1.522
			C124.43,410.545,120.659,410.151,116.83,410.197z"/>
		<g>
			<path style="fill-rule:evenodd;clip-rule:evenodd;fill:#FFFFFF;" d="M427.703,157.958c3.803,0.016,7.623,0.094,11.409,0.016
				c2.282-0.05,3.265-1.411,2.98-3.663c1.184-0.74,1.283-2.136,1.942-3.19c0.422-0.736,0.02-1.128-0.659-1.244
				c-3.724-0.621-7.321-1.873-11.145-2.061c-0.072-0.033-0.148-0.078-0.221-0.137c-0.195-0.466-0.573-0.592-1.058-0.529
				c-5.529-1.22-11.109-2.425-16.672-3.661c0.033-0.221,0.065-0.443,0.065-0.65c2.646,0,5.274,0,7.925,0
				c6.776-0.031,13.561-0.047,20.326-0.062c6.199,1.456,10.367-1.569,13.77-6.29c0.377-0.545,1.017-0.88,2.019-1.705
				c-7.243-1.706-13.901-3.28-20.57-4.855c0.013-0.856,0.681-0.589,1.127-0.589c12.2,0.017,24.397,0.033,36.587,0.065
				c6.721,0.017,13.249,1.108,18.811,4.88c9.221,6.244,15.624,14.802,18.912,25.52c0.958,3.037,1.672,6.166,2.496,9.214
				c0,5.133,0,10.255,0,15.364c-1.116,0.832-0.767,2.148-0.998,3.239c-2.76,13.073-8.591,24.087-20.41,31.26
				c-3.148,1.9-6.562,3.145-9.986,4.35c-1.519,0.249-3.075,0.504-4.585,0.744c-3.259,0.017-6.467-0.239-9.707-0.666
				c-1.505-0.468-3.027-0.89-4.527-1.42c-10.656-3.873-17.665-11.513-22.348-21.606c-0.68-1.735-1.38-3.455-2.011-5.206
				c-3.092-8.93-3.966-18.039-2.356-27.388c0.183-1.052,0.833-2.377-1.18-2.679c-3.945-0.571-7.86-1.269-11.794-1.919
				c-6.463-1.852-13.371-1.79-19.615-4.705c1.655-0.238,3.247-0.238,4.851-0.238C416.614,158.085,422.146,158.019,427.703,157.958z"
				/>
			<path style="fill-rule:evenodd;clip-rule:evenodd;fill:#FFFFFF;" d="M391.668,269.704c3.502,0.159,3.583,0.096,3.564-3.452
				c-0.025-3.14-0.105-6.325,0.041-9.478c0.088-2.011-0.7-2.821-2.66-3.232c-9.183-1.965-18.344-4.087-27.522-6.164
				c0.798-0.792,1.792-0.427,2.683-0.444c7.42-0.05,14.814-0.078,22.221-0.112c5.271,0.556,5.289,0.49,5.271-4.736
				c-0.032-4.676,0.019-9.367-0.014-14.041c-0.081-8.051,2.202-15.165,7.48-21.411c5.083-6.077,11.41-8.166,19.041-7.042
				c3.438,0.499,6.321,2.338,9.305,3.94c1.021,1.184,2.038,2.425,3.063,3.616c4.333,5.071,6.528,10.966,6.969,17.568
				c-0.008,6.259-0.227,12.534,0.151,18.809c-0.436,8.796-0.198,17.559-0.118,26.337c-0.033,3.725,0,7.434-0.11,11.157
				c-0.042,1.489,0.527,1.901,1.918,1.885c4.308-0.065,8.62,0,12.931,0.016c1.438,0.015,2.874,0.107,4.323,0.063
				c6.206-0.144,12.425,0.35,18.635-0.204c2.585,0.078,5.15,0.284,7.734-0.191c0.546,0.144,1.094,0.251,1.634,0.395
				c3.154,0.379,6.133,1.299,8.932,2.854c7.135,4.042,9.719,10.568,10.321,18.272c0.474,6.098-0.262,12.073-1.871,17.935
				c-1.708,6.243-5.91,10.189-11.634,12.756c-3.834,1.745-7.86,2.758-11.963,3.518c-1.708,0.145-3.419,0.285-5.133,0.431
				c-2.468-0.066-4.961-0.13-7.427-0.174c-4.789,0.077-9.533,0.159-14.313,0.206c-2.823-0.716-5.704-0.206-8.577-0.256
				c-4.134-0.094-8.293,0-12.436,0.032c-5.375-0.046-10.706-0.065-16.062-0.143c-6.297-0.097-11.575-2.441-15.674-7.274
				c-3.492-4.12-5.537-8.903-6.711-14.119c-0.603-3.993-0.52-7.984-0.338-11.996c0.087-2.122-0.643-2.677-2.702-2.817
				c-17.062-1.191-34.166-2.155-51.185-3.886c-9.541-0.962-19.076-1.692-28.647-2.394c-5.991-0.409-12-0.566-18.479-1.533
				c1.518-0.889,2.566-0.604,3.549-0.618c9.682-0.254,19.362,0.457,29.035-0.316c0.528,1.046,1.52,0.535,2.237,0.535
				c17.231,0.016,34.458,0.016,51.682,0c0.752,0,1.51-0.157,2.255-0.204c3.423,0,6.809-0.046,10.231,0
				c1.257,0.03,1.855-0.238,1.827-1.683c-0.083-3.992-0.034-7.985-0.017-11.992c0.017-1.539-0.587-2.22-2.181-2.536
				c-5.639-1.047-11.39-1.411-17.026-2.759c-6.338-1.501-12.944-1.885-19.453-2.753c-4.49-0.621-9.005-1.208-13.51-1.795
				c0.017-0.206,0.017-0.378,0.049-0.569C359.22,269.704,375.449,269.704,391.668,269.704z"/>
			<path style="fill-rule:evenodd;clip-rule:evenodd;fill:#FFFFFF;" d="M339.069,247.808c-1.865,1.82-3.534,3.897-5.604,5.448
				c-6.942,5.211-16.244,5.485-23.804,0.889c-0.933-0.553-1.865-1.187-2.781-1.792c0.214-0.87-0.59-1.141-1.056-1.568
				c-2.131-1.98-3.908-4.198-5.35-6.719c-2.731-4.833-3.879-10.077-4.185-15.531c-0.017-4.183,0.644-8.277,1.507-12.373
				c0.235-1.112,0.243-1.65-1.159-1.729c-6.01-0.34-12.042-0.807-18.039-1.228c-7.787-0.531-15.587-1.007-23.37-1.593
				c-13.304-0.992-26.592-2.012-39.889-3.05c-8.199-0.691-16.394-1.413-24.604-2.131c-0.032-0.011-0.056-0.153-0.163-0.372
				c0.61-0.911,1.621-0.477,2.434-0.477c8.411-0.025,16.83,0,25.28,0.022c1.18,0,2.386,0.081,3.496-0.428
				c0.334,0.064,0.665,0.176,0.995,0.176c12.017,0,24.026-0.018,36.034,0c1.317,0,2.526-0.346,3.76-0.729
				c14.282-4.343,28.726-8.035,43.467-10.475c2.583-0.417,5.735-0.132,7.617-1.537c3.821-2.787,6.656-6.768,9.227-11.012
				c-6.03-0.604-11.682-1.206-17.349-1.768c-17.579-1.957-35.159-3.9-52.788-5.292c-0.875-0.231-1.742-0.42-2.616-0.622
				c0.016-0.116,0.016-0.22,0.032-0.329c2.501,0,4.978,0,7.478,0c23.432,0.021,46.867,0.029,70.311,0.086
				c1.3,0,2.344-0.445,3.169-1.42c2.967-3.618,5.959-7.218,8.939-10.831c4.355-5.258,8.749-10.528,13.406-16.105
				c-16.262-1.809-32.129-3.574-47.983-5.311c-3.553-0.419-7.065-0.832-10.594-1.268c0.008-0.15,0.008-0.292,0.024-0.465
				c0.838,0,1.696,0,2.551,0c23.959,0,47.926,0.029,71.88-0.082c4.587-0.009,8.445,1.711,12.251,3.882
				c0.078,0.302,0.297,0.375,0.556,0.302h-0.021c2.958,2.411,5.485,5.261,7.984,8.136c5.312,6.054,9.827,12.735,15.341,18.598
				c7.75,9.189,14.984,18.778,23.263,27.904c-1.586,0.293-2.456-0.379-3.373-0.728c-4.848-1.777-9.685-1.816-14.501-0.022
				c-10.118,3.816-15.227,11.807-17.972,21.686c-1.541,5.593-1.016,11.341-1.124,17.047c-0.016,0.683,0.399,1.491-0.36,2.093
				c-0.404-0.414-0.785-0.746-1.143-1.092c-3.108-3.885-6.151-7.767-9.258-11.65c-3.445-4.184-6.94-8.366-10.337-12.611
				c-0.792-0.974-1.212-0.824-1.937,0.015c-2.986,3.694-6.04,7.37-9.086,11.038C352.782,231.119,345.918,239.456,339.069,247.808z"
				/>
		</g>
	</g>
	<path style="fill-rule:evenodd;clip-rule:evenodd;" d="M400.845,444.111c-0.016-0.51,0.265-0.589,0.669-0.557
		C401.446,443.917,401.234,444.095,400.845,444.111z"/>
	<path style="fill-rule:evenodd;clip-rule:evenodd;" d="M304.103,319.572c-0.126,0.414-0.367,0.604-0.804,0.525
		C303.438,319.732,303.694,319.556,304.103,319.572z"/>
	<path style="fill-rule:evenodd;clip-rule:evenodd;" d="M261.321,361.554c-0.181-0.861,0.603-0.81,1.043-1.049
		C262.206,361.029,261.892,361.423,261.321,361.554z"/>
	<path style="fill-rule:evenodd;clip-rule:evenodd;" d="M262.287,360.505c0.174-0.109,0.322-0.191,0.492-0.27
		C262.609,360.313,262.461,360.396,262.287,360.505z"/>
	<path style="fill-rule:evenodd;clip-rule:evenodd;" d="M213.175,408.552c0.193-0.129,0.384-0.286,0.557-0.445
		C213.708,408.439,213.493,408.552,213.175,408.552z"/>
	<g>
		<path style="fill-rule:evenodd;clip-rule:evenodd;" d="M380.987,224.352c3.106,3.884,6.149,7.765,9.272,11.65
			c-0.639,3.61-0.119,7.226-0.266,10.821c-7.406,0.034-14.801,0.062-22.221,0.112c-0.891,0.017-1.885-0.348-2.683,0.444
			c-8.669-0.193-17.348-0.096-26.021,0.429c6.849-8.352,13.713-16.688,20.559-25.015c1.617,0.087,3.23,0.156,4.829,0.292
			C369.968,223.498,375.483,223.94,380.987,224.352z"/>
		<g>
			<path style="fill-rule:evenodd;clip-rule:evenodd;" d="M178.333,461.887c0.297,1.331,0.598,2.648,0.891,3.978
				c-6.345-3.136-12.016-7.315-17.53-11.677c-9.45-7.463-13.407-17.953-15.607-29.316c-0.764-4.023-1.081-8.08-1.081-12.183
				c6.734,0.773,13.452,1.568,20.171,2.342c-0.611,5.595-0.793,11.157-0.148,16.784C166.4,443.222,171.059,453.11,178.333,461.887z"
				/>
			<g>
				<path style="fill-rule:evenodd;clip-rule:evenodd;" d="M128.128,409.36c-3.912,0.048-7.775,0.076-11.674,0.127
					c-0.429-4.992-1.382-9.921-1.696-14.962c-1.127-17.177,0.569-33.833,8.352-49.518c1.602-3.232,3.5-6.227,5.654-9.064
					c1.24-1.648,2.555-1.68,4.119-0.474c2.855,2.17,5.818,4.195,8.628,6.385c2.39,1.802,2.432,2.709,1.103,5.434
					c-9.475,19.157-14.576,39.366-14.592,60.805C128.021,408.502,128.066,408.915,128.128,409.36z"/>
				<path style="fill-rule:evenodd;clip-rule:evenodd;" d="M455.12,338.781c4.779-0.047,9.523-0.129,14.313-0.206
					c0.759,17.523-2.366,34.227-10.625,49.854c-1.789,3.392-3.606,6.733-5.734,9.902c-0.363,0.554-0.776,1.458-1.503,1.028
					c-0.922-0.539,0.049-1.173,0.298-1.695c5.438-11.916,8.954-24.245,8.052-37.539C459.403,352.774,457.633,345.703,455.12,338.781
					z"/>
				<path style="fill-rule:evenodd;clip-rule:evenodd;" d="M116.83,410.197c3.829-0.046,7.6,0.348,11.365,0.969
					c0.491,8.351,3.772,15.798,7.423,23.166c3.447,6.925,7.977,13.073,12.826,19.017c0.256,0.282,0.445,0.65,0.747,1.093
					C136.828,451.842,119.177,427.567,116.83,410.197z"/>
				<path style="fill-rule:evenodd;clip-rule:evenodd;" d="M476.859,338.749c1.714-0.146,3.425-0.286,5.133-0.431
					c-2.093,7.531-4.341,14.961-7.437,22.123C475.274,353.201,477.003,346.054,476.859,338.749z"/>
				<g>
					<path style="fill-rule:evenodd;clip-rule:evenodd;" d="M303.327,320.08c-1.158,2.776-3.906,4.17-5.675,6.402
						c-3.928,5.054-8.918,7.084-15.351,6.37c-4.193-0.488-8.48-0.143-12.71-0.174c8.517-3.852,17.258-7.208,26.175-9.952
						C298.333,321.934,300.476,320.036,303.327,320.08z"/>
					<path style="fill-rule:evenodd;clip-rule:evenodd;" d="M212.655,371.626c4.594-4.118,8.716-8.761,13.69-12.498
						c6.403-4.821,13.043-9.255,19.667-13.741c4.167-2.807,8.681-4.942,12.789-7.797c7.448,0.825,14.893,1.648,22.324,2.475
						c0.484,0.063,1.145-0.032,1.235,0.602c0.041,0.317-0.339,0.746-0.606,1.043c-6.005,6.53-12.447,12.553-18.974,18.526
						c-0.17,0.078-0.318,0.16-0.492,0.27h0.078c-0.441,0.239-1.225,0.188-1.043,1.049l0.025-0.019
						c-0.644-0.383-1.139,0.079-1.626,0.35c-4.984,2.629-9.272,6.241-13.655,9.681C234.935,371.789,223.794,371.82,212.655,371.626z
						"/>
					<g>
						<g>
							<path style="fill-rule:evenodd;clip-rule:evenodd;" d="M296.291,228.535c0.306,5.454,1.453,10.698,4.185,15.531
								c1.441,2.521,3.219,4.739,5.35,6.719c0.466,0.427,1.27,0.698,1.056,1.568c-23.369,3.962-45.767,11.11-66.923,21.726
								c-13.671,6.844-27.225,14.088-39.91,22.771c-8.864,6.054-17.485,12.406-26.171,18.7c-3.928,2.852-4.35,2.867-7.52-0.808
								c-2.653-3.075-5.236-6.278-7.993-9.288c-1.726-1.9-1.3-3.138,0.318-4.926c8.22-9.146,18.24-16.086,27.999-23.376
								c12.896-9.647,27.17-16.861,41.375-24.247c20.663-10.726,42.579-17.633,65.1-23.021
								C294.243,229.63,295.58,229.774,296.291,228.535z"/>
							<path style="fill-rule:evenodd;clip-rule:evenodd;" d="M305.534,179.833c5.667,0.562,11.318,1.163,17.349,1.768
								c-2.57,4.245-5.405,8.225-9.227,11.012c-1.882,1.404-5.034,1.12-7.617,1.537c-14.741,2.44-29.185,6.132-43.467,10.475
								c-1.234,0.383-2.443,0.729-3.76,0.729c-12.007-0.018-24.017,0-36.034,0c-0.33,0-0.661-0.112-0.995-0.176
								c6.764-3.709,13.943-6.385,21.12-9.111c14.191-5.435,28.859-9.27,43.688-12.59
								C292.875,182.067,299.255,181.244,305.534,179.833z"/>
							<path style="fill-rule:evenodd;clip-rule:evenodd;" d="M215.342,208.563c13.296,1.038,26.585,2.058,39.889,3.05
								c7.782,0.586,15.583,1.063,23.37,1.593c-14.95,4.063-29.816,8.39-44.127,14.334c-6.64,2.772-13.297,5.56-19.784,8.634
								c-2.203,1.046-3.445,0.604-4.427-1.567c-2.382-5.245-4.816-10.509-7.35-15.72c-0.825-1.728-0.47-2.885,1.14-3.802
								C207.823,212.913,211.578,210.74,215.342,208.563z"/>
							<path style="fill-rule:evenodd;clip-rule:evenodd;" d="M216.002,483.584c2.056-2.739,4.911-4.612,7.383-6.94
								c4.832,3.655,9.656,7.494,15.338,9.747c6.557,2.567,13.354,4.515,20.32,5.748c10.443,1.87,20.996,2.694,32.304,2.694
								c-4.332,1.283-8.13,1.52-11.901,1.667c-14.134,0.553-28.284,0.772-42.026-3.423
								C229.881,490.762,222.646,487.844,216.002,483.584z"/>
							<g>
								<g>
									<path style="fill-rule:evenodd;clip-rule:evenodd;" d="M391.668,269.704c-16.219,0-32.448,0-48.679,0
										c-0.032,0.191-0.032,0.364-0.049,0.569c4.505,0.588,9.02,1.175,13.51,1.795c6.509,0.868,13.115,1.252,19.453,2.753
										c5.637,1.348,11.388,1.712,17.026,2.759c1.594,0.316,2.197,0.998,2.181,2.536c-0.018,4.006-0.066,8,0.017,11.992
										c0.028,1.444-0.57,1.713-1.827,1.683c-3.423-0.046-6.809,0-10.231,0c-6.133-1.459-12.439-1.761-18.722-2.108
										c-12.53-0.665-25.011,0.178-37.452,1.777c-9.673,0.773-19.354,0.063-29.035,0.316c-0.982,0.015-2.031-0.271-3.549,0.618
										c6.479,0.967,12.487,1.124,18.479,1.533c-16.567,4.628-33.5,8.068-49.429,14.881c-6.339,2.712-12.801,5.278-18.664,8.843
										c-6.229,3.817-12.567,7.419-18.427,11.772c-0.446,0.335-0.771,0.858-1.147,1.317c-1.37,0.05-2.768-0.617-4.135,0.191
										c0.479,0.916,1.367,0.458,2.006,0.682c-7.762,6.464-15.599,12.867-23.217,19.459c-6.33,5.449-12.173,11.359-16.498,18.618
										c-6.172-0.271-12.314-0.141-18.497,0.584c4.102,0.413,8.226,0.78,12.324,1.207c1.336,0.124,2.748-0.176,3.994,0.587
										c-2.253,3.801-4.685,7.511-6.677,11.469c-3.837,7.498-6.388,15.499-8.352,23.66c-7.041,0.176-14.031,0.38-21.046,0.048
										c0.52-14.34,4.258-27.666,11.884-39.963c4.508-7.294,9.809-13.883,15.179-20.487c7.625-9.338,16.202-17.701,25.153-25.753
										c9.916-8.921,21.487-15.213,32.799-21.992c18.441-11.095,38.402-18.542,58.687-25.374
										c24.957-8.414,50.543-10.488,76.603-9.046C374.176,267.121,382.972,268.011,391.668,269.704z"/>
									<path style="fill-rule:evenodd;clip-rule:evenodd;" d="M488.207,282.984c-0.54-0.144-1.088-0.251-1.634-0.395
										c-1.3-3.852-2.442-7.78-3.929-11.583c-2.533-6.545-6.239-12.457-10.069-18.288c-7.98-12.203-19.15-20.726-31.466-28.001
										c-0.44-6.602-2.636-12.497-6.969-17.568c-1.025-1.191-2.043-2.432-3.063-3.633c-0.027-1.95-0.131-3.898-0.027-5.865
										c0.147-2.726,0.966-3.199,3.375-1.994c2.954,1.48,5.848,3.083,8.762,4.625c4.683,10.094,11.691,17.733,22.348,21.606
										c1.5,0.53,3.022,0.952,4.527,1.42c5.561,8.191,10.949,16.479,14.085,25.939
										C487.804,260.199,489.347,271.436,488.207,282.984z"/>
									<path style="fill-rule:evenodd;clip-rule:evenodd;" d="M442.598,142.777c-6.766,0.015-13.55,0.031-20.326,0.062
										c-1.193-1.013-2.675-1.499-4.074-2.107c-15.263-6.781-31.434-10.419-47.604-14.152c-4.704-1.074-4.879-1.1-4.851-6.068
										c0-2.455,0.051-4.943,0.018-7.408c-0.018-1.974,0.947-3.177,2.918-3.097c8.225,0.379,16.357,1.188,24.252,4.011
										c4.636,1.663,9.442,2.928,14.031,4.766c10.357,4.223,19.685,10.236,28.365,17.129
										C437.877,137.936,440.952,139.686,442.598,142.777z"/>
								</g>
								<path style="fill-rule:evenodd;clip-rule:evenodd;" d="M80.225,367.637c-6.455-8.955-9.107-18.524-10.301-28.65
									c-1.01-8.574-0.796-17.178,0.05-25.766c0.293-3.233,0.533-3.393,3.796-3.013c1.94,0.253,3.88,0.508,5.835,0.648
									c1.33,0.098,1.792,0.604,1.446,1.965c-2.3,9.112-3.203,18.464-3.838,27.826c-0.57,8.369,0.354,16.64,2.508,24.803
									C79.829,365.941,79.933,366.415,80.225,367.637z"/>
								<path style="fill-rule:evenodd;clip-rule:evenodd;" d="M479.769,223.974c1.51-0.239,3.066-0.495,4.585-0.744
									c0.287,2.374,0.684,4.737,0.908,7.096c0.181,1.997,1.98,4.04-0.1,6.166C483.783,232.117,482.29,227.808,479.769,223.974z"/>
							</g>
							<g>
								<path style="fill-rule:evenodd;clip-rule:evenodd;" d="M106.492,411.166c-2.481-3.867-4.94-7.465-7.151-11.19
									c-8.881-14.973-14.245-30.899-13.301-48.582c0.516-9.492,3.071-18.429,6.571-27.208
									c6.948-17.352,15.932-33.469,27.707-48.08c6.259-7.763,13.328-14.529,20.95-20.835c5.212-4.279,10.63-8.18,16.688-11.206
									c2.286-1.157,3.499-0.601,4.456,1.475c2.254,4.803,4.475,9.554,6.727,14.34c0.698,1.49,0.302,2.648-0.908,3.63
									c-1.515,1.22-3.116,2.358-4.605,3.644c-10.638,9.063-20.936,18.557-29.919,29.269c-5.934,7.132-11.719,14.435-16.551,22.376
									c-11.419,18.792-17.931,38.902-16.436,61.216c0.646,9.647,2.311,19.091,5.512,28.252
									C106.534,409.123,107.12,409.978,106.492,411.166z"/>
								<path style="fill-rule:evenodd;clip-rule:evenodd;" d="M235.175,465.377c4.3-4.361,8.582-8.702,12.896-13.042
									c2.933,14.117,12.037,23.153,24.149,29.963c3.181,1.777,6.355,3.313,9.882,4.183c0.413,0.099,0.818,0.24,0.958,1.065
									c-7.665-1.32-15.356-1.635-22.471-5.055c-4.955-2.347-9.908-4.531-14.451-7.605
									C242.116,472.146,238.261,469.184,235.175,465.377z"/>
								<g>
									<path style="fill-rule:evenodd;clip-rule:evenodd;" d="M405.455,169.114c-5.514-5.862-10.029-12.544-15.341-18.598
										c-2.499-2.875-5.026-5.725-7.984-8.136c10.12,1.477,19.854,4.484,29.534,7.687c4.756,1.601,9.29,3.73,13.797,5.949
										c0.928,0.454,1.862,0.864,2.242,1.941c-5.557,0.062-11.089,0.127-16.622,0.189c-1.604,0-3.195,0-4.851,0.238
										c6.244,2.916,13.152,2.854,19.606,4.705c-0.545,2.838-1.567,5.509-2.625,8.192c-0.676,1.698-1.654,2.189-3.539,1.625
										C414.959,171.522,410.319,169.92,405.455,169.114z"/>
									<g>
										<g>
											<path style="fill-rule:evenodd;clip-rule:evenodd;" d="M292.527,55.892c3.053,1.037,6.314,0.814,9.417,1.585
												c1.444,0.349,2.914,0.601,4.347,1.132c-8.522,0.11-17,0.689-25.433,1.292c-16.656,1.25-33.436,2.211-49.521,6.98
												c-10.585,3.147-21.359,5.586-31.85,9.135c-1.032,0.38-1.856,0.666-2.442-0.745c-0.586-1.371,0.384-1.663,1.204-2.03
												c1.759-0.866,3.533-1.677,5.324-2.5c16.779-7.868,34.764-10.981,52.93-13.375c3.644-0.467,7.398-0.268,10.944-1.473
												C275.802,55.892,284.158,55.892,292.527,55.892z"/>
										</g>
										<path style="fill-rule:evenodd;clip-rule:evenodd;" d="M391.512,90.199c-3.851-1.554-7.383-2.971-10.912-4.391
											c-20.797-8.462-42.48-13.04-64.851-14.366c-4.271-0.243-8.53-0.048-12.792,0.213c-1.186,0.091-2.663,0.223-3.042-1.209
											c-0.471-1.877-0.611-3.922,0.288-5.713c0.359-0.723,1.378-0.522,2.15-0.564c12.318-0.387,24.584,0.323,36.604,3.021
											c18.681,4.137,36.202,11.308,52.016,22.276C391.087,89.566,391.164,89.739,391.512,90.199z"/>
										<g>
											<path style="fill-rule:evenodd;clip-rule:evenodd;" d="M257.641,173.591c-2.5,0-4.977,0-7.478,0
												c-0.016,0.109-0.016,0.212-0.032,0.329c0.874,0.201,1.741,0.391,2.616,0.622c-7.371,2.438-14.882,4.451-22.044,7.415
												c-16.5,6.823-33.212,13.365-48.441,22.843c-11.203,6.956-22.836,13.316-33.096,21.678
												c-9.507,7.702-19.085,15.448-27.5,24.401c-4.691,5.01-9.615,9.858-14.055,15.169c-1.362,1.614-2.707,1.852-4.391,0.616
												c-2.583-1.951-5.183-3.882-7.816-5.784c-1.881-1.348-2.195-2.98-1.378-5.12c2.707-7.287,7.564-13.087,12.595-18.807
												c9.595-10.939,20.963-19.889,32.253-28.982c11.171-9.036,23.341-16.498,35.494-24.038
												c15.356-9.527,31.92-16.398,48.625-23.053c23.715-9.467,48.422-14.95,73.452-19.292c3.016-0.508,6.126-0.43,9.024-1.578
												c15.868,1.737,31.735,3.502,47.997,5.311c-4.657,5.578-9.051,10.848-13.406,16.105c-2.74-0.058-5.466,0.166-8.188,0.285
												c-19.197,0.824-38.18,3.36-56.956,7.425C269.101,170.398,263.22,171.418,257.641,173.591z"/>
											<path style="fill-rule:evenodd;clip-rule:evenodd;" d="M409.775,107.598c-9.619-2.551-19.288-4.998-29.108-6.775
												c-17.321-3.129-34.749-5.046-52.327-5.658c-31.067-1.077-61.657,2.087-91.638,10.373
												c-7.899,2.185-15.806,4.389-23.375,7.478c-16.563,6.72-33.393,12.91-48.871,22.012
												c-12.38,7.289-24.929,14.467-36.027,23.703c-8.422,7.016-17.097,13.846-24.442,22.032
												c-6.875,7.677-13.982,15.208-19.672,23.831c-4.833,7.321-9.859,14.541-13.598,22.503
												c-2.722,5.831-5.744,11.535-7.905,17.62c-0.224,0.618-0.302,1.314-1.109,1.871c-0.113-3.358,0.539-6.481,1.109-9.587
												c1.617-8.843,4.457-17.304,8.083-25.531c4.214-9.57,9.809-18.3,15.686-26.875c5.769-8.43,12.677-15.812,19.457-23.355
												c7.622-8.495,16.667-15.275,25.45-22.409c11.57-9.427,24.612-16.449,37.356-23.99
												c16.507-9.793,34.193-16.781,52.111-23.38c21.203-7.803,43.124-11.717,65.516-13.586
												c21.78-1.825,43.462-0.924,65.008,2.659c10.465,1.743,20.663,4.838,30.221,9.351c8.896,4.199,17.966,8.278,25.553,14.77
												c0.981,0.823,2.376,1.408,2.5,2.961L409.775,107.598z"/>
											<path style="fill-rule:evenodd;clip-rule:evenodd;" d="M62.241,305.774c-0.949-6.297-0.949-12.474-0.636-18.671
												c0.954-18.904,6.529-36.447,15.591-53.005c5.2-9.474,11.58-18.049,18.289-26.455c6.355-7.948,13.866-14.731,21.1-21.815
												c9.484-9.314,20.243-16.906,30.88-24.75c12.698-9.365,26.716-16.261,40.79-23.143
												c21.466-10.546,44.304-16.94,67.182-23.398c8.737-2.458,17.489-4.199,26.444-5.187c3.574-0.375,7.155-0.431,10.738-0.01
												c1.485,0.174,2.596,0.785,2.77,2.457c0.362,3.469,0.712,6.949,0.419,10.443c-0.185,1.996-1.196,2.983-3.226,3.321
												c-15.315,2.602-30.543,5.678-45.353,10.274c-20.488,6.353-41.156,12.339-60.382,22.074
												c-13.712,6.955-27.248,14.469-39.463,23.915c-9.161,7.064-18.586,13.864-26.885,21.977
												c-7.977,7.797-16.214,15.341-23.361,23.928c-4.581,5.482-9.096,11.059-13.189,16.908
												c-6.524,9.272-10.486,19.824-14.509,30.331c-3.616,9.491-5.25,19.36-6.121,29.428
												C63.272,304.868,63.396,305.454,62.241,305.774z"/>
											<path style="fill-rule:evenodd;clip-rule:evenodd;" d="M79.933,184.737c3.066-8.05,7.396-15.402,11.687-22.835
												c5.055-8.778,11.556-16.399,18.112-24.024c4.313-5.02,9.223-9.287,14.237-13.5
												c14.963-12.638,31.037-23.493,48.406-32.673c21.187-11.212,43.842-17.479,67.17-22.029
												c3.966-0.781,8.113-0.702,11.955-2.345c0.264-0.117,0.731-0.141,0.961-0.005c2.489,1.227,2.085,3.613,2.349,5.774
												c0.189,1.811-0.829,2.299-2.303,2.727c-15.641,4.165-31.371,8.167-46.507,13.958
												c-16.924,6.5-33.691,13.503-49.179,23.011c-11.236,6.893-22.37,14.097-32.459,22.613
												c-8.555,7.233-17.419,14.26-24.803,22.802c-6.218,7.194-12.507,14.408-17.253,22.756
												C81.587,182.249,81.505,183.937,79.933,184.737z"/>
											<path style="fill-rule:evenodd;clip-rule:evenodd;" d="M123.028,120.348c10.99-10.723,22.737-20.421,35.939-28.33
												c0.73-0.441,1.465-0.728,2.075-1.408c0.766-0.864,1.853-1.821,2.998-0.427c1.06,1.313,0.734,2.33-0.723,3.299
												c-9.165,6.2-18.36,12.339-27.389,18.752c-4.136,2.928-8.064,6.128-12.686,8.339
												C123.168,120.496,123.109,120.427,123.028,120.348z"/>
											<path style="fill-rule:evenodd;clip-rule:evenodd;" d="M123.242,120.575c-0.302,0.269-0.635,0.445-1.006,0.098
												c0.284-0.112,0.537-0.214,0.792-0.324C123.109,120.427,123.168,120.496,123.242,120.575z"/>
										</g>
									</g>
								</g>
							</g>
						</g>
						<g>
							<path style="fill-rule:evenodd;clip-rule:evenodd;" d="M395.661,317.021c1.174,5.216,3.219,9.999,6.711,14.119
								c4.099,4.833,9.377,7.178,15.674,7.274c5.355,0.077,10.687,0.097,16.062,0.143c3.382,4.866,6.502,9.921,9.442,15.104
								c4.9,8.552,5.748,17.743,4.834,27.224c-2.021,20.882-11.363,38.361-25.114,53.892c-8.065,9.112-17.495,16.4-27.652,22.851
								c-1.631,1.034-2.745,2.807-4.788,3.218l0.034,0.043c0.631-1.346,1.736-2.198,2.931-3.021
								c7.068-4.833,13.457-10.447,19.383-16.641c0.56-0.619,1.262-1.156,1.378-2.09c9.234-5.01,13.866-12.996,15.115-23.201
								c0.088-0.667,0.127-1.35,0.178-2.012c5.621-16.355,6.949-32.521-2.592-47.966c-4.861-7.877-11.033-14.421-19.156-19.161
								c-7.486-4.342-15.479-6.925-23.909-8.382c-3.945-0.682-4.325-1.156-4.12-5.246c0.175-4.342,0.841-8.634,1.76-12.881
								c0.664-3.187,1.69-3.996,4.914-3.882C389.721,316.5,392.688,316.783,395.661,317.021z"/>
							<path style="fill-rule:evenodd;clip-rule:evenodd;" d="M348.865,402.29c-10.287,3.283-20.626,6.407-30.839,9.938
								c-4.21,1.456-8.456,2.945-12.558,4.737c-7.155,3.149-11.226,9.094-13.015,16.431c-2.777,11.648-0.835,22.425,7.749,31.217
								c5.076,5.181,11.646,6.914,18.619,4.948c10.473-2.949,20.899-6.165,31.182-9.715c4.065-1.408,8.089-2.966,12.225-4.091
								c-12.23,10.711-26.932,15.687-42.703,17.793c-10.513,1.41-20.73-0.173-30.509-4.432
								c-12.422-5.435-17.003-16.065-12.698-28.919c3.808-11.36,12.017-18.942,21.541-25.452
								c12.471-8.54,26.561-11.932,41.329-13.024C342.418,401.48,345.654,401.835,348.865,402.29z"/>
							<path style="fill-rule:evenodd;clip-rule:evenodd;" d="M385.769,448.481c4.091-1.265,8.146-2.61,12.238-3.879
								c0.858-0.268,1.7-0.779,2.689-0.396c-3.4,4.433-7.923,7.668-11.974,11.438c-12.837,11.969-28.604,17.73-45.237,21.836
								c-0.78,0.194-1.272,0.302-1.747-0.598C358.455,470.586,374.277,462.873,385.769,448.481z"/>
							<path style="fill-rule:evenodd;clip-rule:evenodd;" d="M213.175,408.552c-0.665,0.809-1.68,0.87-2.551,0.885
								c-7.242,0.08-14.513,0.364-21.759-0.124c3.409-10.648,8.823-20.234,15.911-28.873c1.185-1.429,2.667-2.632,3.409-4.391
								c9.665,0.871,19.337,1.759,29.007,2.664c-7.795,6.465-13.779,14.497-19.556,22.689c-1.51,2.127-3.286,4.108-3.929,6.752
								l0.024-0.048C213.559,408.266,213.369,408.423,213.175,408.552z"/>
						</g>
					</g>
				</g>
			</g>
		</g>
		<path style="fill-rule:evenodd;clip-rule:evenodd;" d="M478.839,282.78c-6.21,0.553-12.429,0.06-18.635,0.204
			c-1.449,0.045-2.885-0.047-4.323-0.063c-4.376-4.946-8.974-9.667-14.738-13.059c-0.08-8.778-0.317-17.541,0.118-26.318
			c4.863,2.724,9.452,5.83,13.842,9.378C465.245,261.196,473.524,270.769,478.839,282.78z"/>
	</g>
</g>
</svg>
