<?xml version="1.0" encoding="iso-8859-1"?>
<!-- Generator: Adobe Illustrator 16.0.0, SVG Export Plug-In . SVG Version: 6.00 Build 0)  -->
<!DOCTYPE svg PUBLIC "-//W3C//DTD SVG 1.1//EN" "http://www.w3.org/Graphics/SVG/1.1/DTD/svg11.dtd">
<svg version="1.1" id="Capa_1" xmlns="http://www.w3.org/2000/svg" xmlns:xlink="http://www.w3.org/1999/xlink" x="0px" y="0px"
	 width="566.93px" height="566.93px" viewBox="0 0 566.93 566.93" style="enable-background:new 0 0 566.93 566.93;"
	 xml:space="preserve">
<g>
	<g>
		<path style="fill:#FFFFFF;" d="M68.513,420.838l-3.218,15.092H44.863l-2.182,10.146l-3.239,15.098H24.149l14.064-65.568h15.304
			l-3.238,15.094l-2.186,10.139H68.513z M79.82,415.764H64.526l1.145-5.064H55.4l3.242-15.094h25.544L79.82,415.764z"/>
		<path style="fill:#FFFFFF;" d="M117.427,446.076l-3.044-31.813l-24.689,46.91H76.297h-2.565l34.47-65.568h20.44l6.345,65.568
			h-20.405H95.12l7.87-15.098H117.427z"/>
		<path style="fill:#FFFFFF;" d="M195.597,435.93l-3.318,15.105c-0.259,1.377-0.799,2.666-1.619,3.908
			c-0.831,1.213-1.787,2.297-2.895,3.227c-1.107,0.934-2.327,1.662-3.654,2.191c-1.333,0.553-2.685,0.813-4.086,0.813h-5.127
			h-25.553c-1.399,0-2.659-0.26-3.792-0.813c-1.151-0.529-2.104-1.258-2.862-2.191c-0.761-0.93-1.263-2.014-1.522-3.227
			c-0.248-1.242-0.248-2.531,0-3.908l2.187-10.029h15.386l-1.043,5.07h20.429l1.045-5.037l1.131-5.109h-15.383h-5.03h-5.135
			c-1.395,0-2.657-0.262-3.793-0.795c-1.15-0.521-2.098-1.242-2.857-2.15c-0.76-0.898-1.26-1.967-1.521-3.197
			c-0.252-1.205-0.214-2.545,0.102-3.988l4.277-20.172c0.32-1.365,0.864-2.674,1.663-3.902c0.792-1.193,1.754-2.275,2.892-3.174
			c1.131-0.908,2.382-1.627,3.754-2.158c1.365-0.516,2.732-0.787,4.122-0.787h5.141l-3.23,15.145l-2.191,10.088h20.43h5.118
			c1.402,0,2.653,0.262,3.762,0.795c1.097,0.51,2.026,1.248,2.742,2.172c0.742,0.945,1.24,2.029,1.525,3.23
			c0.293,1.219,0.274,2.508-0.047,3.869L195.597,435.93z M202.073,405.627l-2.679,12.662H184.11l1.602-7.59h-15.378l3.229-15.094
			h20.509c1.401,0,2.651,0.271,3.767,0.787c1.104,0.531,2.022,1.25,2.752,2.158c0.723,0.898,1.239,1.98,1.504,3.174
			C202.4,402.953,202.372,404.262,202.073,405.627z"/>
		<path style="fill:#FFFFFF;" d="M253.929,395.605l-3.242,15.094h-15.288l-10.838,50.475h-15.291l10.83-50.475h-15.38l3.224-15.094
			h5.126H253.929z"/>
	</g>
	<g>
		<path style="fill:#FFFFFF;" d="M315.616,447.283l-3.223,15.105h-10.157h-15.396h-5.128h-10.162c-2.082,0-3.987-0.408-5.7-1.215
			c-1.703-0.822-3.126-1.912-4.221-3.301c-1.122-1.361-1.853-2.979-2.236-4.832c-0.38-1.844-0.354-3.803,0.11-5.859l10.803-50.369
			h15.304l-10.832,50.471h10.159h5.138l10.833-50.471h15.369l-10.809,50.471H315.616z M340.811,396.813l-14.045,65.576h-10.16
			h-5.127l3.229-15.207l10.823-50.369H340.811z"/>
		<path style="fill:#FFFFFF;" d="M397.257,406.846l-9.782,45.4c-0.25,1.441-0.805,2.762-1.621,3.992
			c-0.814,1.225-1.779,2.287-2.87,3.193c-1.112,0.9-2.345,1.615-3.676,2.15c-1.324,0.535-2.697,0.807-4.084,0.807h-25.549h-5.144
			c-1.375,0-2.629-0.271-3.786-0.807c-1.126-0.535-2.075-1.25-2.797-2.15c-0.727-0.906-1.218-1.969-1.467-3.193
			c-0.259-1.23-0.259-2.551,0-3.992l9.782-45.4c0.3-1.377,0.876-2.672,1.65-3.893c0.794-1.229,1.75-2.295,2.865-3.184
			c1.097-0.924,2.333-1.637,3.698-2.162c1.359-0.523,2.74-0.795,4.137-0.795h5.106l-3.215,15.139l-7.595,35.332h20.408l7.614-35.375
			h-15.293l3.224-15.096h20.428c1.374,0,2.643,0.271,3.733,0.795c1.111,0.525,2.044,1.238,2.765,2.162
			c0.726,0.889,1.228,1.955,1.526,3.184C397.6,404.174,397.59,405.469,397.257,406.846z"/>
		<path style="fill:#FFFFFF;" d="M444.459,442.221l-0.472,2.424l-1.698,7.602l-2.098,10.143h-10.264h-5.121l3.229-15.207l1.05-4.961
			h-15.291l3.323-15.115h15.279l3.239-15.197h-20.43l-3.228,15.115l-3.324,15.197l-1.033,4.961l-3.239,15.207h-15.294l14.067-65.576
			h40.831c1.397,0,2.651,0.271,3.752,0.795c1.119,0.535,2.051,1.25,2.81,2.162c0.766,0.91,1.285,1.979,1.561,3.193
			c0.297,1.234,0.277,2.529-0.048,3.918l-4.268,20.225c-0.384,1.613-0.964,3.01-1.758,4.207c-0.799,1.176-1.946,2.299-3.468,3.334
			c1.07,1.068,1.756,2.195,2.044,3.377C444.909,439.197,444.847,440.604,444.459,442.221z"/>
		<path style="fill:#FFFFFF;" d="M492.717,449.705l-2.664,12.684H444.09l14.062-65.576h15.283l-11.388,52.893h15.294l2.738-12.555
			h15.39L492.717,449.705z"/>
		<path style="fill:#FFFFFF;" d="M556.92,406.846l-9.78,45.4c-0.262,1.441-0.803,2.762-1.62,3.992
			c-0.827,1.225-1.786,2.287-2.885,3.193c-1.119,0.9-2.346,1.615-3.701,2.15c-1.376,0.535-2.737,0.807-4.138,0.807H509.34h-10.263
			h-5.123l14.053-65.576h5.138h10.242l-3.222,15.096l-7.604,35.375h20.428l7.597-35.375h-15.393l3.239-15.096h20.414
			c1.397,0,2.672,0.271,3.797,0.795c1.144,0.525,2.093,1.238,2.81,2.162c0.714,0.889,1.227,1.955,1.526,3.184
			C557.255,404.174,557.238,405.469,556.92,406.846z"/>
	</g>
	<g>
		<path style="fill-rule:evenodd;clip-rule:evenodd;fill:#FFFFFF;" d="M330.752,341.176c-5.711,1.455-11.302,3.346-16.897,5.219
			c-2.969,0.809-5.857,1.926-8.775,2.939c-7.382,2.549-14.864,4.854-22.383,6.975c-5.007,1.408-9.722,0.164-13.365-3.555
			c-6.164-6.311-7.558-14.047-5.565-22.41c1.288-5.268,4.206-9.531,9.346-11.795c2.943-1.283,5.992-2.352,9.013-3.4
			c7.332-2.535,14.753-4.775,22.138-7.135c2.915-0.887,5.813-1.816,8.716-2.707c-0.09-0.744-0.559-1.066-0.893-1.477
			c-5.478-6.748-11.426-13.07-16.939-19.77c-4.061-4.893-8.376-9.555-12.449-14.434c-5.641-6.745-6.688-18.064-2.413-25.751
			c3.461-6.228,10.671-9.889,16.882-8.527c3.104,0.684,5.575,2.459,7.778,4.67c4.668,4.686,8.547,10.029,12.928,14.968
			c2.648,2.972,5.37,5.88,7.861,8.985c4.913,6.099,10.315,11.774,15.286,17.803c4.545,5.541,9.349,10.82,14.002,16.242
			c4.553,5.313,7.829,11.049,7.375,18.354c-0.038,0.473-0.066,0.965-0.129,1.443c-0.896,7.324-4.219,13.057-10.851,16.652
			c-3.116,1.059-6.239,2.105-9.359,3.174c-0.29-0.025-0.492,0.033-0.481,0.398l-0.106,0.07c-0.712-0.275-1.314,0.088-1.932,0.285
			C336.598,339.303,333.691,340.266,330.752,341.176z"/>
		<path style="fill-rule:evenodd;clip-rule:evenodd;fill:#FFFFFF;" d="M137.696,313.691c-0.19-0.125-0.875,0.035-0.271-0.51
			c2.8-0.033,5.572-0.057,8.38-0.09c4.035,0.09,8.084,0.225,12.128-0.084c5.037,0.238,10.054,0.096,15.108-0.029
			c5.441,0.35,10.908,0.225,16.363,0.078c5.202,0.348,10.421,0.146,15.621,0.092c0.625-0.012,1.354-0.057,1.83-0.639
			c0.23,0,0.383-0.08,0.401-0.318l-0.019,0.035c0.767-0.16,1.15-0.842,1.666-1.332c5.356-5.145,10.729-10.25,15.88-15.594
			c1.199-1.229,2.515-2.346,3.771-3.518c-0.096-0.127-0.196-0.264-0.306-0.41c-1.395-0.09-2.773-0.178-4.153-0.283
			c-6.94-0.648-13.885-1.287-20.822-1.91c-5.101-0.455-10.202-0.922-15.309-1.344c-1.368-0.115-2.75-0.545-4.136-0.076
			c-0.895-0.551-1.908-0.334-2.867-0.422c-2.942-0.309-5.901-0.568-8.846-0.865c4.438-0.521,8.846-0.615,13.277-0.422
			c7.028-0.021,14.058-0.047,21.089-0.047c7.995,0.139,15.995,0.117,23.984-0.043c2.477,0.43,4.658-0.104,6.216-2.172
			c1.397-1.855,3.277-3.253,4.752-5.03l-0.016,0.011c0.408-0.088,0.633-0.371,0.75-0.748h-0.059c0.125-0.08,0.23-0.139,0.354-0.194
			c4.687-4.288,9.311-8.611,13.62-13.299c0.192-0.215,0.465-0.522,0.435-0.747c-0.064-0.456-0.539-0.39-0.886-0.432
			c-5.334-0.591-10.678-1.185-16.025-1.776c-4.987-0.579-9.96-1.215-14.948-1.755c-3.584-0.373-7.152-1.017-10.757-1.1
			c-0.459-0.163-1.096,0.17-1.44-0.488c0.98-0.578,1.985-0.102,2.969-0.139c10.635-0.021,21.288-0.031,31.92-0.044
			c3.039,0.023,6.116-0.225,9.126,0.125c4.618,0.512,8.199-0.945,11.02-4.575c1.268-1.6,3.24-2.601,4.073-4.594l-0.021,0.011
			c0.315,0.057,0.487-0.079,0.579-0.377c1.52-1.377,3.047-2.755,4.974-4.525c-0.57,2.75-1.334,4.867-1.653,7.085
			c-1.091,7.702,0.888,14.552,5.623,20.613c2.292,2.935,5.03,5.506,7.228,8.543c1.014,1.376,1.938,2.82,2.985,4.153
			c0.771,0.953-0.079,1.273-0.556,1.738c-3.869,3.729-7.9,7.326-11.64,11.205c-5.773,5.984-12.059,11.443-17.801,17.449
			c-5.372,5.607-11.262,10.67-16.569,16.313c-4.146,4.391-8.718,8.301-12.815,12.729c-3.094,3.115-6.169,6.23-9.256,9.363
			c-3.063,2.453-5.782,5.254-8.462,8.086c-1.775,1.674-3.826,3.018-5.301,4.984c-5.831,3.842-11.904,4.279-17.749,0.479
			c-4.127-2.689-6.62-6.906-8.131-11.629c-0.171-0.523-0.343-1.049-0.521-1.57c-0.209-0.955-0.426-1.9-0.639-2.854
			c-0.954-9.646,3.204-17.053,10.122-23.297c2.219-1.992,4.221-4.219,6.336-6.311c0.645-0.41,1.275-0.82,1.659-1.801
			c-2.183-0.168-4.207-0.316-6.25-0.484c-4.367-0.41-8.741-0.855-13.128-1.186c-2.717-0.205-5.417-0.754-8.185-0.559
			c-4.821-0.555-9.644-1.127-14.479-1.682c-4.001-0.57-8.021-0.957-12.067-1.094C143.151,313.941,140.445,313.662,137.696,313.691z"
			/>
		<g>
			<path style="fill-rule:evenodd;clip-rule:evenodd;fill:#FFFFFF;" d="M360.854,132.618c2.731,0.013,5.475,0.074,8.191,0.013
				c1.638-0.035,2.344-1.012,2.141-2.627c0.849-0.529,0.92-1.534,1.395-2.29c0.303-0.528,0.014-0.812-0.475-0.895
				c-2.672-0.445-5.254-1.345-7.998-1.478c-0.053-0.025-0.105-0.056-0.159-0.098c-0.14-0.336-0.413-0.427-0.76-0.378
				c-3.969-0.878-7.975-1.743-11.968-2.631c0.025-0.159,0.047-0.318,0.047-0.466c1.898,0,3.787,0,5.689,0
				c4.865-0.023,9.734-0.032,14.594-0.044c4.448,1.045,7.438-1.127,9.882-4.514c0.271-0.392,0.732-0.635,1.447-1.228
				c-5.199-1.219-9.979-2.351-14.764-3.483c0.008-0.616,0.489-0.419,0.808-0.419c8.757,0.01,17.514,0.021,26.267,0.044
				c4.822,0.011,9.507,0.796,13.499,3.503c6.62,4.48,11.218,10.624,13.579,18.32c0.684,2.18,1.198,4.425,1.791,6.612
				c0,3.686,0,7.364,0,11.032c-0.805,0.595-0.549,1.539-0.716,2.323c-1.983,9.385-6.168,17.292-14.654,22.44
				c-2.26,1.362-4.708,2.259-7.167,3.123c-1.091,0.18-2.208,0.362-3.292,0.536c-2.339,0.009-4.642-0.173-6.968-0.483
				c-1.082-0.333-2.174-0.635-3.249-1.018c-7.651-2.778-12.682-8.262-16.044-15.508c-0.487-1.248-0.99-2.479-1.444-3.734
				c-2.217-6.412-2.845-12.953-1.689-19.665c0.131-0.753,0.598-1.707-0.848-1.921c-2.832-0.411-5.64-0.912-8.465-1.379
				c-4.643-1.328-9.599-1.289-14.082-3.377c1.188-0.172,2.331-0.172,3.48-0.172C352.895,132.714,356.865,132.668,360.854,132.618z"
				/>
			<path style="fill-rule:evenodd;clip-rule:evenodd;fill:#FFFFFF;" d="M334.987,212.841c2.515,0.112,2.572,0.068,2.561-2.48
				c-0.019-2.255-0.077-4.541,0.028-6.805c0.063-1.442-0.501-2.023-1.911-2.318c-6.591-1.41-13.165-2.936-19.756-4.423
				c0.573-0.568,1.286-0.309,1.927-0.322c5.326-0.033,10.632-0.055,15.948-0.077c3.785,0.399,3.798,0.353,3.785-3.401
				c-0.021-3.356,0.013-6.723-0.01-10.08c-0.058-5.777,1.58-10.884,5.371-15.371c3.647-4.359,8.19-5.859,13.667-5.055
				c2.469,0.356,4.538,1.678,6.682,2.827c0.73,0.854,1.46,1.742,2.197,2.6c3.111,3.639,4.687,7.871,5.003,12.609
				c-0.005,4.495-0.163,9,0.11,13.502c-0.315,6.316-0.144,12.606-0.087,18.906c-0.023,2.672,0,5.339-0.079,8.01
				c-0.031,1.065,0.379,1.364,1.377,1.351c3.091-0.042,6.188,0,9.282,0.013c1.033,0.011,2.062,0.077,3.102,0.047
				c4.457-0.103,8.922,0.248,13.381-0.148c1.853,0.055,3.695,0.205,5.55-0.136c0.391,0.099,0.785,0.181,1.173,0.284
				c2.263,0.272,4.401,0.931,6.411,2.047c5.121,2.901,6.976,7.586,7.408,13.118c0.341,4.376-0.188,8.664-1.343,12.874
				c-1.226,4.482-4.24,7.314-8.349,9.157c-2.753,1.252-5.645,1.979-8.591,2.524c-1.225,0.106-2.454,0.207-3.682,0.308
				c-1.772-0.045-3.563-0.089-5.333-0.125c-3.437,0.06-6.843,0.115-10.273,0.148c-2.028-0.512-4.097-0.148-6.158-0.183
				c-2.968-0.068-5.953,0-8.927,0.024c-3.857-0.034-7.685-0.046-11.53-0.102c-4.52-0.071-8.308-1.755-11.251-5.223
				c-2.504-2.959-3.975-6.389-4.814-10.135c-0.436-2.866-0.374-5.731-0.245-8.61c0.062-1.526-0.462-1.923-1.938-2.024
				c-12.249-0.853-24.525-1.547-36.745-2.792c-6.847-0.688-13.693-1.214-20.562-1.717c-4.302-0.293-8.615-0.407-13.266-1.101
				c1.091-0.637,1.842-0.433,2.547-0.443c6.95-0.181,13.898,0.329,20.844-0.227c0.379,0.752,1.09,0.385,1.604,0.385
				c12.372,0.011,24.736,0.011,37.101,0c0.539,0,1.084-0.114,1.619-0.148c2.457,0,4.889-0.03,7.348,0
				c0.9,0.023,1.328-0.17,1.309-1.208c-0.06-2.864-0.024-5.732-0.012-8.607c0.012-1.105-0.423-1.594-1.564-1.822
				c-4.052-0.753-8.176-1.013-12.226-1.979c-4.547-1.079-9.293-1.354-13.963-1.979c-3.223-0.443-6.462-0.864-9.7-1.286
				c0.014-0.147,0.014-0.272,0.035-0.408C311.695,212.841,323.344,212.841,334.987,212.841z"/>
			<path style="fill-rule:evenodd;clip-rule:evenodd;fill:#FFFFFF;" d="M297.229,197.122c-1.338,1.304-2.536,2.798-4.021,3.911
				c-4.984,3.739-11.662,3.938-17.088,0.638c-0.669-0.399-1.34-0.851-1.998-1.286c0.157-0.625-0.424-0.821-0.757-1.126
				c-1.528-1.422-2.805-3.012-3.839-4.825c-1.961-3.465-2.784-7.23-3.003-11.146c-0.011-3.003,0.462-5.942,1.08-8.883
				c0.169-0.798,0.175-1.186-0.831-1.241c-4.313-0.244-8.644-0.582-12.948-0.883c-5.589-0.382-11.188-0.722-16.775-1.145
				c-9.551-0.71-19.09-1.443-28.634-2.186c-5.887-0.498-11.771-1.015-17.663-1.532c-0.025-0.01-0.04-0.111-0.118-0.265
				c0.438-0.656,1.163-0.342,1.747-0.342c6.038-0.018,12.081,0,18.147,0.015c0.848,0,1.713,0.056,2.509-0.307
				c0.239,0.042,0.478,0.126,0.715,0.126c8.625,0,17.246-0.013,25.867,0c0.944,0,1.813-0.249,2.699-0.523
				c10.251-3.118,20.621-5.768,31.202-7.519c1.854-0.301,4.119-0.098,5.467-1.105c2.745-1.999,4.778-4.859,6.625-7.904
				c-4.332-0.432-8.385-0.865-12.455-1.268c-12.62-1.403-25.238-2.801-37.894-3.798c-0.627-0.166-1.25-0.301-1.878-0.448
				c0.011-0.085,0.011-0.156,0.024-0.236c1.795,0,3.571,0,5.369,0c16.819,0.015,33.642,0.021,50.472,0.063
				c0.934,0,1.682-0.322,2.274-1.019c2.129-2.6,4.277-5.181,6.418-7.774c3.128-3.776,6.278-7.561,9.624-11.565
				c-11.674-1.297-23.065-2.565-34.445-3.809c-2.554-0.303-5.072-0.599-7.604-0.912c0.005-0.108,0.005-0.209,0.017-0.333
				c0.6,0,1.218,0,1.831,0c17.199,0,34.406,0.02,51.597-0.06c3.296-0.005,6.064,1.227,8.795,2.786
				c0.058,0.218,0.213,0.271,0.4,0.218h-0.016c2.126,1.731,3.938,3.774,5.732,5.842c3.814,4.341,7.056,9.143,11.012,13.347
				c5.563,6.599,10.756,13.48,16.698,20.032c-1.137,0.211-1.763-0.273-2.42-0.521c-3.48-1.277-6.953-1.307-10.408-0.019
				c-7.266,2.741-10.931,8.476-12.904,15.568c-1.106,4.012-0.729,8.144-0.805,12.236c-0.012,0.492,0.285,1.074-0.261,1.506
				c-0.289-0.3-0.563-0.539-0.82-0.789c-2.229-2.788-4.413-5.574-6.643-8.359c-2.476-3.004-4.984-6.007-7.423-9.052
				c-0.567-0.7-0.872-0.594-1.39,0.008c-2.144,2.65-4.335,5.291-6.521,7.924C307.073,185.142,302.147,191.127,297.229,197.122z"/>
		</g>
	</g>
	<path style="fill-rule:evenodd;clip-rule:evenodd;fill:#FFFFFF;" d="M334.387,350.051c-0.197,0.271-0.44,0.361-0.886,0.102
		c0.389-0.037,0.644-0.049,0.908-0.07L334.387,350.051z"/>
	<path style="fill-rule:evenodd;clip-rule:evenodd;fill:#FFFFFF;" d="M341.575,338.037c-0.011-0.365,0.191-0.424,0.481-0.398
		C342.011,337.9,341.854,338.021,341.575,338.037z"/>
	<path style="fill-rule:evenodd;clip-rule:evenodd;fill:#FFFFFF;" d="M272.13,248.637c-0.092,0.298-0.264,0.434-0.579,0.377
		C271.652,248.75,271.836,248.625,272.13,248.637z"/>
	<path style="fill-rule:evenodd;clip-rule:evenodd;fill:#FFFFFF;" d="M241.42,278.769c-0.131-0.616,0.43-0.579,0.75-0.748
		C242.053,278.398,241.828,278.681,241.42,278.769z"/>
	<path style="fill-rule:evenodd;clip-rule:evenodd;fill:#FFFFFF;" d="M242.111,278.021c0.125-0.08,0.23-0.139,0.354-0.194
		C242.342,277.882,242.236,277.941,242.111,278.021z"/>
	<path style="fill-rule:evenodd;clip-rule:evenodd;fill:#FFFFFF;" d="M206.856,312.51c0.141-0.094,0.276-0.205,0.401-0.318
		C207.239,312.43,207.086,312.51,206.856,312.51z"/>
	<g>
		<path style="fill-rule:evenodd;clip-rule:evenodd;fill:#FFFFFF;" d="M327.322,180.285c2.229,2.786,4.413,5.572,6.656,8.359
			c-0.46,2.595-0.089,5.19-0.194,7.771c-5.316,0.022-10.622,0.044-15.948,0.077c-0.641,0.013-1.354-0.246-1.927,0.322
			c-6.223-0.139-12.453-0.071-18.68,0.307c4.918-5.995,9.844-11.979,14.759-17.957c1.161,0.062,2.319,0.113,3.467,0.207
			C319.411,179.668,323.37,179.987,327.322,180.285z"/>
		<g>
			<path style="fill-rule:evenodd;clip-rule:evenodd;fill:#FFFFFF;" d="M181.846,350.799c0.213,0.953,0.43,1.898,0.639,2.854
				c-4.555-2.25-8.627-5.252-12.584-8.383c-6.783-5.357-9.625-12.887-11.203-21.043c-0.548-2.889-0.777-5.805-0.777-8.746
				c4.835,0.555,9.658,1.127,14.479,1.682c-0.438,4.014-0.568,8.01-0.106,12.043C173.279,337.398,176.623,344.498,181.846,350.799z"
				/>
			<g>
				<path style="fill-rule:evenodd;clip-rule:evenodd;fill:#FFFFFF;" d="M145.806,313.092c-2.808,0.033-5.58,0.057-8.38,0.09
					c-0.307-3.584-0.993-7.121-1.217-10.738c-0.81-12.334,0.41-24.291,5.996-35.546c1.15-2.321,2.512-4.473,4.06-6.508
					c0.888-1.18,1.832-1.205,2.957-0.34c2.049,1.559,4.176,3.013,6.193,4.586c1.717,1.29,1.745,1.943,0.792,3.899
					c-6.801,13.751-10.462,28.257-10.475,43.646C145.729,312.479,145.763,312.773,145.806,313.092z"/>
				<path style="fill-rule:evenodd;clip-rule:evenodd;fill:#FFFFFF;" d="M380.537,262.424c3.431-0.033,6.837-0.088,10.273-0.148
					c0.545,12.58-1.699,24.569-7.628,35.786c-1.283,2.438-2.586,4.838-4.115,7.109c-0.26,0.4-0.559,1.047-1.078,0.738
					c-0.659-0.383,0.034-0.84,0.213-1.213c3.905-8.555,6.429-17.406,5.78-26.95C383.612,272.469,382.341,267.394,380.537,262.424z"
					/>
				<path style="fill-rule:evenodd;clip-rule:evenodd;fill:#FFFFFF;" d="M137.696,313.691c2.749-0.029,5.455,0.25,8.158,0.695
					c0.351,5.994,2.708,11.344,5.329,16.631c2.472,4.971,5.725,9.381,9.206,13.65c0.185,0.205,0.32,0.467,0.536,0.785
					C152.051,343.586,139.38,326.16,137.696,313.691z"/>
				<path style="fill-rule:evenodd;clip-rule:evenodd;fill:#FFFFFF;" d="M396.144,262.401c1.228-0.101,2.457-0.201,3.682-0.308
					c-1.501,5.406-3.115,10.74-5.336,15.885C395.005,272.775,396.245,267.648,396.144,262.401z"/>
				<g>
					<path style="fill-rule:evenodd;clip-rule:evenodd;fill:#FFFFFF;" d="M271.573,249.002c-0.833,1.993-2.806,2.994-4.073,4.594
						c-2.821,3.63-6.402,5.087-11.02,4.575c-3.011-0.35-6.088-0.102-9.126-0.125c6.116-2.767,12.39-5.174,18.792-7.145
						C267.988,250.331,269.525,248.969,271.573,249.002z"/>
					<path style="fill-rule:evenodd;clip-rule:evenodd;fill:#FFFFFF;" d="M206.484,286.004c3.296-2.957,6.256-6.292,9.827-8.971
						c4.597-3.461,9.363-6.645,14.118-9.862c2.992-2.015,6.233-3.549,9.181-5.598c5.347,0.592,10.691,1.185,16.025,1.776
						c0.347,0.042,0.821-0.023,0.886,0.432c0.03,0.225-0.243,0.532-0.435,0.747c-4.31,4.688-8.934,9.011-13.62,13.299
						c-0.123,0.056-0.229,0.114-0.354,0.194h0.059c-0.32,0.169-0.881,0.132-0.75,0.748l0.016-0.011
						c-0.461-0.272-0.818,0.059-1.167,0.253c-3.578,1.886-6.657,4.482-9.802,6.95C222.479,286.121,214.479,286.143,206.484,286.004z
						"/>
					<g>
						<g>
							<path style="fill-rule:evenodd;clip-rule:evenodd;fill:#FFFFFF;" d="M266.522,183.288c0.219,3.916,1.042,7.68,3.003,11.146
								c1.035,1.813,2.311,3.403,3.839,4.825c0.333,0.305,0.914,0.501,0.757,1.126c-16.775,2.844-32.853,7.973-48.04,15.596
								c-9.814,4.911-19.543,10.114-28.648,16.345c-6.363,4.344-12.552,8.907-18.788,13.422c-2.82,2.048-3.122,2.059-5.397-0.577
								c-1.904-2.209-3.759-4.508-5.739-6.668c-1.237-1.365-0.933-2.253,0.229-3.537c5.9-6.567,13.093-11.547,20.1-16.782
								c9.257-6.926,19.505-12.104,29.7-17.405c14.832-7.697,30.565-12.657,46.731-16.525
								C265.053,184.074,266.013,184.176,266.522,183.288z"/>
							<path style="fill-rule:evenodd;clip-rule:evenodd;fill:#FFFFFF;" d="M273.157,148.327c4.07,0.402,8.123,0.835,12.455,1.268
								c-1.847,3.044-3.88,5.905-6.625,7.904c-1.349,1.008-3.613,0.804-5.467,1.105c-10.582,1.751-20.951,4.401-31.202,7.519
								c-0.886,0.274-1.755,0.523-2.699,0.523c-8.621-0.013-17.241,0-25.867,0c-0.237,0-0.476-0.083-0.715-0.126
								c4.855-2.665,10.011-4.585,15.162-6.541c10.189-3.903,20.717-6.655,31.362-9.041
								C264.071,149.931,268.648,149.339,273.157,148.327z"/>
							<path style="fill-rule:evenodd;clip-rule:evenodd;fill:#FFFFFF;" d="M208.413,168.951c9.544,0.743,19.083,1.475,28.634,2.186
								c5.587,0.423,11.186,0.763,16.775,1.145c-10.733,2.917-21.403,6.024-31.677,10.291c-4.767,1.99-9.543,3.992-14.202,6.195
								c-1.583,0.753-2.474,0.434-3.178-1.124c-1.709-3.763-3.457-7.542-5.275-11.284c-0.594-1.242-0.338-2.071,0.817-2.729
								C203.014,172.073,205.71,170.511,208.413,168.951z"/>
							<path style="fill-rule:evenodd;clip-rule:evenodd;fill:#FFFFFF;" d="M208.887,366.373c1.475-1.967,3.525-3.311,5.301-4.984
								c3.467,2.627,6.929,5.383,11.01,6.998c4.707,1.844,9.586,3.242,14.586,4.127c7.498,1.342,15.073,1.936,23.189,1.936
								c-3.111,0.922-5.834,1.09-8.543,1.195c-10.146,0.396-20.305,0.557-30.169-2.459
								C218.849,371.523,213.656,369.432,208.887,366.373z"/>
							<g>
								<g>
									<path style="fill-rule:evenodd;clip-rule:evenodd;fill:#FFFFFF;" d="M334.987,212.841c-11.644,0-23.292,0-34.946,0
										c-0.021,0.136-0.021,0.261-0.035,0.408c3.238,0.421,6.478,0.842,9.7,1.286c4.67,0.625,9.416,0.9,13.963,1.979
										c4.05,0.966,8.174,1.226,12.226,1.979c1.142,0.228,1.576,0.716,1.564,1.822c-0.013,2.875-0.048,5.744,0.012,8.607
										c0.02,1.038-0.408,1.231-1.309,1.208c-2.459-0.03-4.891,0-7.348,0c-4.403-1.048-8.929-1.263-13.438-1.513
										c-8.994-0.479-17.955,0.126-26.885,1.275c-6.945,0.556-13.894,0.046-20.844,0.227c-0.705,0.01-1.457-0.193-2.547,0.443
										c4.651,0.693,8.964,0.807,13.266,1.101c-11.894,3.323-24.048,5.794-35.484,10.682c-4.55,1.949-9.189,3.794-13.398,6.351
										c-4.47,2.737-9.021,5.324-13.228,8.45c-0.319,0.24-0.553,0.615-0.823,0.944c-0.983,0.037-1.988-0.439-2.969,0.139
										c0.344,0.658,0.98,0.325,1.44,0.488c-5.573,4.641-11.198,9.237-16.667,13.968c-4.543,3.912-8.738,8.156-11.843,13.366
										c-4.431-0.193-8.839-0.1-13.277,0.422c2.945,0.297,5.904,0.557,8.846,0.865c0.959,0.088,1.972-0.129,2.867,0.422
										c-1.617,2.729-3.363,5.391-4.793,8.234c-2.755,5.379-4.585,11.125-5.995,16.984c-5.054,0.125-10.071,0.268-15.108,0.029
										c0.373-10.293,3.058-19.857,8.531-28.686c3.235-5.235,7.042-9.965,10.896-14.708c5.474-6.702,11.631-12.707,18.056-18.486
										c7.119-6.402,15.425-10.921,23.543-15.787c13.241-7.964,27.568-13.314,42.129-18.211
										c17.916-6.045,36.283-7.531,54.99-6.497C322.43,210.985,328.747,211.623,334.987,212.841z"/>
									<path style="fill-rule:evenodd;clip-rule:evenodd;fill:#FFFFFF;" d="M404.288,222.374
										c-0.388-0.103-0.782-0.185-1.173-0.284c-0.934-2.767-1.753-5.586-2.819-8.317c-1.819-4.697-4.48-8.943-7.229-13.126
										c-5.728-8.763-13.748-14.879-22.587-20.102c-0.316-4.738-1.892-8.97-5.003-12.609c-0.737-0.858-1.467-1.745-2.197-2.61
										c-0.022-1.399-0.098-2.797-0.022-4.207c0.107-1.959,0.693-2.3,2.423-1.435c2.121,1.066,4.199,2.214,6.29,3.321
										c3.362,7.246,8.393,12.73,16.044,15.508c1.075,0.383,2.167,0.686,3.249,1.018c3.992,5.884,7.86,11.835,10.111,18.623
										C404,206.016,405.104,214.082,404.288,222.374z"/>
									<path style="fill-rule:evenodd;clip-rule:evenodd;fill:#FFFFFF;" d="M371.551,121.725
										c-4.859,0.012-9.729,0.021-14.594,0.044c-0.855-0.728-1.921-1.076-2.925-1.513c-10.956-4.868-22.564-7.476-34.171-10.159
										c-3.379-0.772-3.505-0.79-3.482-4.358c0-1.76,0.035-3.547,0.011-5.313c-0.011-1.419,0.68-2.281,2.094-2.227
										c5.905,0.272,11.745,0.855,17.411,2.881c3.326,1.193,6.776,2.1,10.07,3.421c7.435,3.034,14.133,7.347,20.363,12.298
										C368.16,118.249,370.367,119.507,371.551,121.725z"/>
								</g>
								<path style="fill-rule:evenodd;clip-rule:evenodd;fill:#FFFFFF;" d="M111.418,283.14
									c-4.632-6.429-6.537-13.297-7.393-20.567c-0.727-6.157-0.571-12.331,0.034-18.498c0.212-2.32,0.384-2.435,2.726-2.162
									c1.392,0.183,2.784,0.366,4.189,0.466c0.955,0.073,1.287,0.434,1.038,1.411c-1.65,6.54-2.299,13.253-2.756,19.976
									c-0.408,6.006,0.254,11.944,1.8,17.803C111.135,281.923,111.208,282.261,111.418,283.14z"/>
								<path style="fill-rule:evenodd;clip-rule:evenodd;fill:#FFFFFF;" d="M398.23,180.013c1.084-0.173,2.201-0.356,3.292-0.536
									c0.205,1.704,0.492,3.402,0.651,5.095c0.131,1.432,1.42,2.898-0.07,4.427C401.113,185.856,400.04,182.763,398.23,180.013z"
									/>
							</g>
							<g>
								<path style="fill-rule:evenodd;clip-rule:evenodd;fill:#FFFFFF;" d="M130.275,314.387c-1.781-2.775-3.546-5.357-5.134-8.031
									c-6.374-10.75-10.228-22.184-9.548-34.875c0.371-6.817,2.204-13.232,4.716-19.532c4.989-12.457,11.438-24.023,19.89-34.515
									c4.494-5.57,9.569-10.428,15.041-14.956c3.739-3.072,7.63-5.872,11.979-8.045c1.64-0.83,2.514-0.43,3.199,1.06
									c1.618,3.45,3.211,6.857,4.828,10.294c0.501,1.069,0.217,1.898-0.651,2.603c-1.086,0.877-2.235,1.696-3.306,2.621
									c-7.638,6.504-15.028,13.316-21.477,21.007c-4.26,5.12-8.413,10.362-11.881,16.063c-8.198,13.491-12.873,27.925-11.8,43.944
									c0.465,6.924,1.659,13.703,3.959,20.279C130.304,312.92,130.723,313.533,130.275,314.387z"/>
								<path style="fill-rule:evenodd;clip-rule:evenodd;fill:#FFFFFF;" d="M222.649,353.303c3.087-3.133,6.163-6.248,9.256-9.363
									c2.107,10.135,8.643,16.623,17.337,21.51c2.284,1.275,4.562,2.377,7.094,3.004c0.298,0.07,0.586,0.174,0.687,0.764
									c-5.5-0.947-11.022-1.174-16.13-3.629c-3.557-1.686-7.113-3.252-10.374-5.461
									C227.632,358.16,224.866,356.033,222.649,353.303z"/>
								<g>
									<path style="fill-rule:evenodd;clip-rule:evenodd;fill:#FFFFFF;" d="M344.885,140.629
										c-3.956-4.205-7.197-9.006-11.012-13.347c-1.795-2.068-3.606-4.111-5.732-5.842c7.265,1.061,14.253,3.218,21.203,5.515
										c3.412,1.151,6.666,2.68,9.901,4.272c0.665,0.328,1.337,0.623,1.608,1.391c-3.988,0.05-7.959,0.096-11.932,0.139
										c-1.149,0-2.293,0-3.48,0.172c4.483,2.089,9.439,2.05,14.075,3.377c-0.391,2.037-1.126,3.958-1.886,5.882
										c-0.485,1.219-1.187,1.571-2.541,1.167C351.707,142.361,348.376,141.211,344.885,140.629z"/>
									<g>
										<g>
											<path style="fill-rule:evenodd;clip-rule:evenodd;fill:#FFFFFF;" d="M263.819,59.355
												c2.194,0.744,4.533,0.584,6.761,1.138c1.037,0.249,2.092,0.433,3.118,0.812c-6.115,0.076-12.201,0.495-18.256,0.929
												c-11.955,0.897-24,1.585-35.548,5.007c-7.598,2.259-15.333,4.011-22.862,6.559c-0.742,0.273-1.334,0.479-1.754-0.533
												c-0.421-0.984,0.276-1.196,0.866-1.458c1.262-0.621,2.535-1.206,3.82-1.795c12.045-5.648,24.955-7.885,37.996-9.604
												c2.615-0.334,5.312-0.189,7.855-1.055C251.814,59.355,257.813,59.355,263.819,59.355z"/>
										</g>
										<path style="fill-rule:evenodd;clip-rule:evenodd;fill:#FFFFFF;" d="M334.873,83.981c-2.762-1.116-5.298-2.134-7.831-3.15
											c-14.93-6.075-30.495-9.362-46.554-10.313c-3.065-0.175-6.124-0.037-9.182,0.153c-0.851,0.066-1.912,0.161-2.184-0.871
											c-0.337-1.343-0.439-2.813,0.208-4.099c0.257-0.519,0.989-0.374,1.543-0.403c8.841-0.277,17.646,0.232,26.275,2.168
											c13.413,2.968,25.991,8.118,37.34,15.991C334.569,83.528,334.625,83.651,334.873,83.981z"/>
										<g>
											<path style="fill-rule:evenodd;clip-rule:evenodd;fill:#FFFFFF;" d="M238.777,143.845c-1.797,0-3.573,0-5.369,0
												c-0.013,0.08-0.013,0.151-0.024,0.236c0.628,0.146,1.25,0.282,1.878,0.448c-5.29,1.747-10.682,3.194-15.824,5.321
												c-11.844,4.899-23.842,9.593-34.772,16.399c-8.043,4.992-16.394,9.558-23.757,15.559
												c-6.826,5.531-13.703,11.091-19.743,17.519c-3.368,3.596-6.903,7.074-10.09,10.887c-0.978,1.159-1.942,1.331-3.152,0.441
												c-1.853-1.397-3.722-2.786-5.609-4.15c-1.352-0.968-1.577-2.139-0.99-3.675c1.942-5.233,5.43-9.395,9.041-13.5
												c6.887-7.853,15.048-14.277,23.153-20.807c8.019-6.487,16.755-11.843,25.48-17.254
												c11.023-6.839,22.913-11.77,34.905-16.548c17.024-6.797,34.761-10.732,52.727-13.848c2.166-0.364,4.399-0.309,6.48-1.132
												c11.389,1.244,22.78,2.512,34.454,3.809c-3.346,4.005-6.496,7.79-9.624,11.565c-1.968-0.041-3.923,0.12-5.878,0.202
												c-13.782,0.591-27.41,2.411-40.888,5.332C247.003,141.551,242.782,142.283,238.777,143.845z"/>
											<path style="fill-rule:evenodd;clip-rule:evenodd;fill:#FFFFFF;" d="M347.987,96.475
												c-6.905-1.835-13.848-3.592-20.896-4.864c-12.434-2.25-24.943-3.626-37.563-4.065c-22.301-0.769-44.26,1.5-65.782,7.447
												c-5.669,1.571-11.346,3.152-16.779,5.367c-11.89,4.823-23.972,9.268-35.083,15.801
												c-8.887,5.231-17.895,10.387-25.86,17.017c-6.046,5.034-12.273,9.938-17.546,15.813
												c-4.936,5.512-10.036,10.918-14.123,17.11c-3.468,5.255-7.077,10.438-9.759,16.151
												c-1.958,4.188-4.124,8.282-5.677,12.648c-0.16,0.445-0.218,0.943-0.798,1.346c-0.08-2.412,0.389-4.655,0.798-6.885
												c1.162-6.347,3.198-12.421,5.803-18.326c3.022-6.873,7.042-13.137,11.258-19.294c4.142-6.051,9.102-11.347,13.969-16.763
												c5.47-6.101,11.963-10.968,18.268-16.085c8.306-6.768,17.667-11.808,26.815-17.224
												c11.849-7.03,24.547-12.044,37.409-16.785c15.22-5.599,30.958-8.41,47.03-9.75c15.635-1.31,31.2-0.666,46.666,1.908
												c7.513,1.251,14.834,3.475,21.694,6.712c6.386,3.016,12.897,5.942,18.343,10.605c0.704,0.589,1.707,1.007,1.793,2.125
												L347.987,96.475z"/>
											<path style="fill-rule:evenodd;clip-rule:evenodd;fill:#FFFFFF;" d="M98.509,238.731
												c-0.681-4.522-0.681-8.952-0.457-13.401c0.686-13.571,4.687-26.164,11.191-38.05c3.734-6.8,8.313-12.955,13.13-18.991
												c4.561-5.705,9.954-10.573,15.146-15.66c6.808-6.685,14.531-12.134,22.168-17.765
												c9.114-6.723,19.177-11.675,29.278-16.615c15.412-7.566,31.805-12.158,48.227-16.795
												c6.272-1.763,12.554-3.013,18.983-3.724c2.566-0.268,5.138-0.307,7.708-0.006c1.067,0.125,1.864,0.564,1.988,1.762
												c0.26,2.493,0.513,4.989,0.302,7.499c-0.132,1.434-0.859,2.138-2.315,2.381c-10.993,1.87-21.926,4.077-32.556,7.375
												c-14.71,4.563-29.545,8.86-43.347,15.848c-9.843,4.99-19.558,10.385-28.329,17.166
												c-6.576,5.074-13.342,9.955-19.298,15.779c-5.729,5.596-11.641,11.01-16.771,17.175
												c-3.288,3.933-6.529,7.94-9.468,12.138c-4.683,6.656-7.528,14.229-10.416,21.771c-2.592,6.813-3.767,13.895-4.392,21.125
												C99.25,238.079,99.339,238.503,98.509,238.731z"/>
											<path style="fill-rule:evenodd;clip-rule:evenodd;fill:#FFFFFF;" d="M111.208,151.846
												c2.202-5.78,5.309-11.056,8.389-16.395c3.629-6.299,8.295-11.771,13.001-17.242c3.097-3.606,6.622-6.669,10.22-9.692
												c10.742-9.073,22.281-16.868,34.749-23.455c15.209-8.047,31.472-12.547,48.217-15.813
												c2.848-0.562,5.826-0.503,8.583-1.681c0.189-0.087,0.523-0.102,0.69-0.006c1.785,0.883,1.497,2.595,1.685,4.146
												c0.137,1.299-0.594,1.646-1.652,1.957c-11.228,2.991-22.521,5.862-33.387,10.017
												c-12.147,4.668-24.183,9.693-35.302,16.519c-8.066,4.951-16.059,10.119-23.302,16.233
												c-6.14,5.192-12.503,10.238-17.803,16.371c-4.464,5.164-8.979,10.34-12.385,16.335
												C112.397,150.059,112.338,151.271,111.208,151.846z"/>
											<path style="fill-rule:evenodd;clip-rule:evenodd;fill:#FFFFFF;" d="M142.145,105.624
												c7.888-7.699,16.322-14.661,25.798-20.334c0.524-0.318,1.051-0.522,1.49-1.01c0.547-0.62,1.331-1.308,2.152-0.306
												c0.76,0.941,0.526,1.669-0.519,2.366c-6.58,4.451-13.18,8.858-19.661,13.46c-2.968,2.102-5.789,4.4-9.106,5.987
												C142.245,105.727,142.204,105.681,142.145,105.624z"/>
											<path style="fill-rule:evenodd;clip-rule:evenodd;fill:#FFFFFF;" d="M142.298,105.787
												c-0.217,0.194-0.457,0.32-0.722,0.072c0.203-0.085,0.385-0.155,0.568-0.235
												C142.204,105.681,142.245,105.727,142.298,105.787z"/>
										</g>
									</g>
								</g>
							</g>
						</g>
						<g>
							<path style="fill-rule:evenodd;clip-rule:evenodd;fill:#FFFFFF;" d="M337.856,246.806c0.84,3.746,2.311,7.175,4.814,10.135
								c2.943,3.468,6.731,5.152,11.251,5.223c3.846,0.056,7.673,0.068,11.53,0.102c2.427,3.494,4.669,7.12,6.778,10.84
								c3.52,6.142,4.126,12.74,3.473,19.544c-1.454,14.99-8.161,27.537-18.031,38.684c-5.789,6.541-12.561,11.777-19.848,16.406
								c-1.171,0.74-1.974,2.016-3.438,2.311l0.022,0.031c0.454-0.969,1.247-1.58,2.104-2.17c5.074-3.473,9.661-7.502,13.913-11.945
								c0.403-0.443,0.908-0.828,0.99-1.502c6.632-3.596,9.955-9.328,10.851-16.652c0.063-0.479,0.091-0.971,0.129-1.443
								c4.033-11.742,4.987-23.346-1.86-34.436c-3.49-5.651-7.921-10.35-13.752-13.752c-5.373-3.116-11.11-4.971-17.163-6.017
								c-2.832-0.492-3.104-0.831-2.956-3.77c0.124-3.115,0.601-6.194,1.263-9.244c0.476-2.289,1.213-2.868,3.525-2.787
								C333.59,246.431,335.722,246.635,337.856,246.806z"/>
							<path style="fill-rule:evenodd;clip-rule:evenodd;fill:#FFFFFF;" d="M304.262,308.014c-7.385,2.359-14.806,4.6-22.138,7.135
								c-3.021,1.049-6.069,2.117-9.013,3.4c-5.14,2.264-8.058,6.527-9.346,11.795c-1.992,8.363-0.598,16.1,5.565,22.41
								c3.643,3.719,8.358,4.963,13.365,3.555c7.519-2.121,15.001-4.426,22.383-6.975c2.918-1.014,5.807-2.131,8.775-2.939
								c-8.78,7.691-19.332,11.264-30.654,12.773c-7.546,1.014-14.88-0.123-21.902-3.182c-8.916-3.902-12.205-11.535-9.115-20.76
								c2.734-8.156,8.626-13.598,15.464-18.271c8.951-6.129,19.064-8.564,29.668-9.35
								C299.634,307.436,301.957,307.689,304.262,308.014z"/>
							<path style="fill-rule:evenodd;clip-rule:evenodd;fill:#FFFFFF;" d="M330.752,341.176c2.939-0.91,5.846-1.873,8.785-2.783
								c0.617-0.197,1.22-0.561,1.932-0.285c-2.438,3.182-5.688,5.502-8.595,8.211c-9.214,8.588-20.533,12.727-32.476,15.674
								c-0.559,0.139-0.912,0.217-1.253-0.43C311.147,357.043,322.506,351.506,330.752,341.176z"/>
							<path style="fill-rule:evenodd;clip-rule:evenodd;fill:#FFFFFF;" d="M206.856,312.51c-0.476,0.582-1.205,0.627-1.83,0.639
								c-5.2,0.055-10.419,0.256-15.621-0.092c2.449-7.643,6.335-14.527,11.424-20.725c0.849-1.023,1.912-1.891,2.446-3.152
								c6.938,0.623,13.882,1.262,20.822,1.91c-5.595,4.643-9.891,10.408-14.039,16.293c-1.083,1.521-2.358,2.941-2.82,4.844
								l0.019-0.035C207.132,312.305,206.997,312.416,206.856,312.51z"/>
						</g>
					</g>
				</g>
			</g>
		</g>
		<path style="fill-rule:evenodd;clip-rule:evenodd;fill:#FFFFFF;" d="M397.565,222.226c-4.459,0.396-8.924,0.045-13.381,0.148
			c-1.04,0.03-2.068-0.036-3.102-0.047c-3.142-3.55-6.443-6.938-10.58-9.374c-0.057-6.3-0.229-12.589,0.087-18.895
			c3.489,1.955,6.782,4.189,9.935,6.734C387.806,206.733,393.748,213.605,397.565,222.226z"/>
	</g>
</g>
</svg>
