<?xml version="1.0" encoding="iso-8859-1"?>
<!-- Generator: Adobe Illustrator 16.0.0, SVG Export Plug-In . SVG Version: 6.00 Build 0)  -->
<!DOCTYPE svg PUBLIC "-//W3C//DTD SVG 1.1//EN" "http://www.w3.org/Graphics/SVG/1.1/DTD/svg11.dtd">
<svg version="1.1" id="Capa_1" xmlns="http://www.w3.org/2000/svg" xmlns:xlink="http://www.w3.org/1999/xlink" x="0px" y="0px"
	 width="566.93px" height="566.93px" viewBox="0 0 566.93 566.93" style="enable-background:new 0 0 566.93 566.93;"
	 xml:space="preserve">
<g>
	<g>
		<path style="fill:#FFFFFF;" d="M78.063,434.955l-3.067,14.385H55.518l-2.082,9.676l-3.086,14.391H35.77l13.408-62.508h14.589
			l-3.087,14.393l-2.084,9.664H78.063z M88.842,430.117H74.261l1.09-4.826h-9.788l3.09-14.393h24.352L88.842,430.117z"/>
		<path style="fill:#FFFFFF;" d="M124.693,459.016l-2.903-30.331l-23.536,44.722H85.484h-2.445l32.86-62.508h19.486l6.049,62.508
			h-19.453h-18.554l7.503-14.391H124.693z"/>
		<path style="fill:#FFFFFF;" d="M199.215,449.34l-3.167,14.402c-0.245,1.311-0.759,2.54-1.542,3.723
			c-0.791,1.158-1.703,2.191-2.759,3.079c-1.057,0.889-2.22,1.581-3.485,2.089c-1.271,0.525-2.559,0.773-3.894,0.773h-4.889h-24.36
			c-1.333,0-2.536-0.248-3.615-0.773c-1.096-0.508-2.005-1.2-2.728-2.089c-0.726-0.888-1.203-1.921-1.452-3.079
			c-0.237-1.183-0.237-2.412,0-3.723l2.084-9.562h14.668l-0.994,4.835h19.475l0.997-4.804l1.079-4.872h-14.666h-4.795h-4.894
			c-1.331,0-2.533-0.248-3.618-0.757c-1.096-0.497-2-1.184-2.723-2.05c-0.726-0.856-1.203-1.875-1.452-3.047
			c-0.24-1.149-0.203-2.429,0.096-3.805l4.078-19.229c0.305-1.303,0.824-2.55,1.587-3.719c0.753-1.139,1.671-2.169,2.756-3.028
			c1.079-0.863,2.271-1.55,3.579-2.056c1.301-0.49,2.606-0.752,3.931-0.752h4.899l-3.078,14.438l-2.09,9.619h19.475h4.88
			c1.338,0,2.53,0.248,3.587,0.756c1.047,0.486,1.931,1.192,2.614,2.071c0.706,0.9,1.181,1.934,1.455,3.08
			c0.279,1.161,0.259,2.387-0.045,3.688L199.215,449.34z M205.388,420.453l-2.553,12.07h-14.572l1.528-7.232h-14.66l3.078-14.393
			h19.551c1.336,0,2.528,0.262,3.593,0.752c1.05,0.506,1.929,1.192,2.624,2.056c0.689,0.859,1.18,1.89,1.435,3.028
			C205.699,417.903,205.673,419.15,205.388,420.453z"/>
		<path style="fill:#FFFFFF;" d="M254.823,410.898l-3.089,14.393h-14.576l-10.33,48.115H212.25l10.322-48.115h-14.66l3.072-14.393
			h4.886H254.823z"/>
	</g>
	<g>
		<path d="M313.631,460.164l-3.071,14.4h-9.685h-14.677h-4.888h-9.687c-1.986,0-3.801-0.391-5.434-1.158
			c-1.624-0.781-2.981-1.82-4.024-3.146c-1.07-1.3-1.767-2.841-2.132-4.609c-0.361-1.756-0.336-3.622,0.104-5.585l10.3-48.015
			h14.589l-10.325,48.112h9.685h4.896l10.327-48.112h14.651l-10.302,48.112H313.631z M337.65,412.052l-13.392,62.513h-9.685h-4.888
			l3.078-14.498l10.318-48.015H337.65z"/>
		<path d="M391.459,421.614l-9.324,43.281c-0.238,1.376-0.766,2.632-1.546,3.807c-0.776,1.168-1.696,2.18-2.735,3.043
			c-1.06,0.86-2.237,1.54-3.505,2.052c-1.264,0.509-2.57,0.768-3.892,0.768H346.1h-4.903c-1.311,0-2.507-0.259-3.608-0.768
			c-1.076-0.512-1.979-1.191-2.668-2.052c-0.693-0.863-1.161-1.875-1.399-3.043c-0.246-1.175-0.246-2.431,0-3.807l9.325-43.281
			c0.288-1.311,0.836-2.548,1.577-3.711c0.756-1.169,1.665-2.187,2.729-3.033c1.045-0.882,2.223-1.563,3.525-2.063
			c1.296-0.499,2.612-0.756,3.944-0.756h4.868l-3.066,14.431l-7.24,33.682h19.458l7.258-33.724h-14.581l3.075-14.389h19.475
			c1.308,0,2.52,0.257,3.558,0.756c1.06,0.5,1.95,1.181,2.636,2.063c0.691,0.847,1.172,1.864,1.454,3.033
			C391.786,419.066,391.776,420.304,391.459,421.614z"/>
		<path d="M436.458,455.339l-0.449,2.309l-1.618,7.248l-1.999,9.669h-9.785h-4.884l3.079-14.498l1.002-4.728h-14.575l3.166-14.411
			h14.563l3.09-14.487h-19.474l-3.078,14.411l-3.17,14.487l-0.985,4.728l-3.087,14.498h-14.58l13.411-62.513h38.924
			c1.332,0,2.527,0.257,3.579,0.756c1.063,0.51,1.952,1.193,2.676,2.063c0.729,0.866,1.227,1.887,1.488,3.044
			c0.282,1.175,0.264,2.409-0.044,3.733l-4.07,19.28c-0.365,1.539-0.918,2.872-1.678,4.013c-0.76,1.118-1.853,2.191-3.304,3.177
			c1.023,1.02,1.675,2.092,1.948,3.22C436.888,452.455,436.828,453.797,436.458,455.339z"/>
		<path d="M482.465,462.475l-2.539,12.09h-43.818l13.404-62.513h14.571l-10.855,50.423h14.578l2.612-11.971h14.67L482.465,462.475z"
			/>
		<path d="M543.67,421.614l-9.324,43.281c-0.249,1.376-0.763,2.632-1.542,3.807c-0.79,1.168-1.705,2.18-2.751,3.043
			c-1.067,0.86-2.236,1.54-3.529,2.052c-1.312,0.509-2.61,0.768-3.945,0.768h-24.268h-9.782h-4.886l13.397-62.513h4.896h9.766
			l-3.073,14.389l-7.246,33.724h19.472l7.244-33.724h-14.674l3.087-14.389h19.463c1.33,0,2.545,0.257,3.617,0.756
			c1.091,0.5,1.997,1.181,2.678,2.063c0.684,0.847,1.172,1.864,1.457,3.033C543.99,419.066,543.973,420.304,543.67,421.614z"/>
	</g>
	<g>
		<path style="fill-rule:evenodd;clip-rule:evenodd;fill:#FFFFFF;" d="M328.061,359.009c-5.445,1.391-10.775,3.19-16.109,4.979
			c-2.83,0.77-5.584,1.835-8.365,2.8c-7.037,2.429-14.172,4.629-21.339,6.647c-4.772,1.346-9.268,0.159-12.742-3.386
			c-5.874-6.018-7.204-13.392-5.303-21.362c1.225-5.021,4.01-9.089,8.906-11.245c2.807-1.226,5.713-2.245,8.594-3.242
			c6.989-2.416,14.064-4.555,21.104-6.801c2.778-0.846,5.543-1.735,8.308-2.58c-0.084-0.715-0.529-1.02-0.849-1.407
			c-5.223-6.433-10.893-12.463-16.151-18.849c-3.869-4.664-7.984-9.109-11.867-13.762c-5.376-6.431-6.374-17.222-2.299-24.551
			c3.299-5.933,10.173-9.425,16.095-8.125c2.957,0.65,5.313,2.344,7.413,4.448c4.45,4.469,8.147,9.563,12.324,14.27
			c2.524,2.832,5.117,5.606,7.495,8.566c4.683,5.815,9.832,11.226,14.572,16.973c4.332,5.28,8.912,10.313,13.346,15.484
			c4.344,5.065,7.469,10.529,7.032,17.494c-0.034,0.453-0.062,0.92-0.121,1.376c-0.854,6.984-4.025,12.449-10.345,15.878
			c-2.971,1.006-5.947,2.004-8.924,3.023c-0.276-0.022-0.469,0.032-0.458,0.38l-0.102,0.066c-0.678-0.263-1.253,0.087-1.841,0.271
			C333.635,357.223,330.86,358.144,328.061,359.009z"/>
		<path style="fill-rule:evenodd;clip-rule:evenodd;fill:#FFFFFF;" d="M144.016,332.81c-0.181-0.118-0.833,0.032-0.257-0.486
			c2.668-0.034,5.312-0.054,7.989-0.087c3.847,0.087,7.707,0.217,11.562-0.077c4.801,0.228,9.585,0.088,14.403-0.032
			c5.188,0.336,10.398,0.217,15.6,0.077c4.958,0.335,9.935,0.14,14.891,0.085c0.596-0.01,1.291-0.053,1.746-0.605
			c0.218,0,0.365-0.077,0.381-0.305l-0.017,0.033c0.731-0.153,1.095-0.805,1.586-1.27c5.109-4.9,10.229-9.77,15.14-14.868
			c1.144-1.169,2.398-2.232,3.596-3.35c-0.091-0.121-0.187-0.251-0.291-0.392c-1.33-0.086-2.643-0.171-3.959-0.27
			c-6.617-0.619-13.236-1.228-19.851-1.823c-4.863-0.433-9.726-0.878-14.595-1.279c-1.305-0.11-2.621-0.521-3.942-0.074
			c-0.853-0.522-1.819-0.317-2.733-0.402c-2.805-0.292-5.626-0.543-8.434-0.825c4.231-0.496,8.434-0.586,12.658-0.4
			c6.699-0.021,13.403-0.045,20.104-0.045c7.623,0.133,15.248,0.111,22.864-0.042c2.361,0.413,4.442-0.099,5.928-2.07
			c1.333-1.767,3.124-3.103,4.529-4.793l-0.017,0.012c0.39-0.089,0.605-0.358,0.714-0.717h-0.054
			c0.119-0.075,0.221-0.132,0.337-0.185c4.467-4.088,8.875-8.21,12.985-12.678c0.183-0.204,0.443-0.497,0.415-0.715
			c-0.062-0.434-0.514-0.369-0.845-0.412c-5.085-0.564-10.18-1.128-15.277-1.693c-4.753-0.55-9.495-1.159-14.25-1.67
			c-3.417-0.358-6.817-0.975-10.254-1.05c-0.438-0.153-1.045,0.161-1.373-0.466c0.935-0.553,1.892-0.097,2.83-0.131
			c10.139-0.021,20.294-0.033,30.433-0.043c2.895,0.021,5.829-0.215,8.698,0.119c4.402,0.489,7.817-0.901,10.506-4.359
			c1.209-1.528,3.089-2.481,3.883-4.381l-0.02,0.012c0.299,0.054,0.463-0.077,0.55-0.359c1.449-1.313,2.906-2.625,4.742-4.315
			c-0.543,2.624-1.271,4.641-1.576,6.755c-1.04,7.342,0.846,13.87,5.359,19.65c2.187,2.799,4.795,5.25,6.892,8.145
			c0.965,1.313,1.847,2.689,2.847,3.957c0.734,0.911-0.077,1.216-0.531,1.659c-3.688,3.558-7.532,6.984-11.096,10.681
			c-5.504,5.705-11.496,10.912-16.969,16.636c-5.12,5.347-10.737,10.173-15.795,15.552c-3.954,4.188-8.312,7.915-12.217,12.135
			c-2.952,2.971-5.882,5.941-8.825,8.926c-2.92,2.339-5.513,5.007-8.068,7.71c-1.692,1.593-3.646,2.875-5.052,4.75
			c-5.558,3.663-11.347,4.078-16.919,0.455c-3.938-2.563-6.312-6.583-7.752-11.084c-0.165-0.498-0.327-1.001-0.498-1.498
			c-0.201-0.909-0.406-1.811-0.61-2.722c-0.91-9.195,3.056-16.255,9.65-22.207c2.116-1.898,4.024-4.021,6.041-6.018
			c0.616-0.391,1.215-0.782,1.582-1.716c-2.081-0.162-4.01-0.302-5.958-0.465c-4.163-0.39-8.331-0.813-12.516-1.126
			c-2.59-0.196-5.163-0.718-7.8-0.534c-4.598-0.529-9.195-1.073-13.804-1.603c-3.816-0.543-7.645-0.913-11.505-1.042
			C149.217,333.048,146.636,332.778,144.016,332.81z"/>
		<g>
			<path style="fill-rule:evenodd;clip-rule:evenodd;fill:#FFFFFF;" d="M356.758,160.192c2.603,0.011,5.218,0.065,7.809,0.011
				c1.562-0.034,2.233-0.966,2.039-2.507c0.81-0.506,0.878-1.462,1.33-2.183c0.288-0.504,0.013-0.772-0.452-0.852
				c-2.548-0.425-5.01-1.282-7.626-1.41c-0.05-0.022-0.102-0.053-0.151-0.093c-0.134-0.319-0.393-0.405-0.724-0.362
				c-3.784-0.835-7.603-1.66-11.409-2.505c0.022-0.151,0.045-0.304,0.045-0.445c1.811,0,3.609,0,5.423,0
				c4.637-0.021,9.28-0.032,13.91-0.042c4.242,0.997,7.095-1.074,9.423-4.304c0.259-0.374,0.696-0.603,1.381-1.167
				c-4.956-1.167-9.513-2.244-14.076-3.323c0.009-0.586,0.466-0.403,0.771-0.403c8.349,0.011,16.695,0.022,25.037,0.044
				c4.599,0.012,9.066,0.758,12.873,3.34c6.31,4.273,10.691,10.129,12.942,17.464c0.655,2.079,1.144,4.219,1.708,6.306
				c0,3.513,0,7.018,0,10.514c-0.764,0.569-0.524,1.47-0.683,2.217c-1.889,8.947-5.879,16.484-13.968,21.393
				c-2.155,1.3-4.49,2.152-6.834,2.977c-1.039,0.17-2.104,0.346-3.138,0.509c-2.23,0.011-4.426-0.164-6.643-0.456
				c-1.03-0.32-2.072-0.609-3.099-0.972c-7.293-2.65-12.089-7.878-15.294-14.786c-0.464-1.188-0.943-2.365-1.375-3.563
				c-2.116-6.111-2.715-12.345-1.613-18.743c0.125-0.72,0.57-1.626-0.808-1.833c-2.699-0.391-5.378-0.868-8.07-1.313
				c-4.423-1.267-9.15-1.225-13.424-3.22c1.133-0.163,2.223-0.163,3.319-0.163C349.17,160.28,352.956,160.234,356.758,160.192z"/>
			<path style="fill-rule:evenodd;clip-rule:evenodd;fill:#FFFFFF;" d="M332.098,236.665c2.397,0.109,2.452,0.066,2.439-2.362
				c-0.017-2.149-0.072-4.328,0.028-6.486c0.06-1.376-0.479-1.931-1.82-2.212c-6.284-1.345-12.554-2.797-18.835-4.218
				c0.546-0.542,1.227-0.292,1.836-0.304c5.077-0.034,10.139-0.054,15.206-0.077c3.607,0.38,3.62,0.335,3.607-3.241
				c-0.022-3.2,0.013-6.41-0.01-9.608c-0.055-5.509,1.507-10.378,5.119-14.652c3.479-4.158,7.809-5.588,13.03-4.819
				c2.353,0.341,4.327,1.6,6.368,2.696c0.698,0.811,1.395,1.66,2.096,2.475c2.966,3.47,4.468,7.504,4.77,12.022
				c-0.005,4.284-0.155,8.578,0.104,12.872c-0.298,6.02-0.135,12.016-0.081,18.023c-0.022,2.549,0,5.087-0.075,7.635
				c-0.029,1.019,0.36,1.301,1.313,1.29c2.948-0.044,5.899,0,8.849,0.011c0.984,0.01,1.967,0.074,2.959,0.043
				c4.247-0.098,8.503,0.239,12.753-0.14c1.769,0.054,3.524,0.195,5.293-0.13c0.373,0.098,0.748,0.172,1.117,0.27
				c2.159,0.259,4.197,0.889,6.112,1.953c4.883,2.766,6.651,7.233,7.063,12.504c0.324,4.173-0.179,8.262-1.28,12.273
				c-1.169,4.273-4.045,6.973-7.962,8.729c-2.623,1.195-5.379,1.887-8.187,2.408c-1.169,0.099-2.34,0.195-3.513,0.293
				c-1.688-0.044-3.395-0.087-5.082-0.118c-3.277,0.052-6.524,0.109-9.795,0.141c-1.932-0.49-3.903-0.141-5.869-0.175
				c-2.829-0.063-5.676,0-8.511,0.022c-3.678-0.032-7.326-0.044-10.991-0.097c-4.31-0.066-7.922-1.67-10.727-4.978
				c-2.389-2.82-3.789-6.093-4.592-9.663c-0.413-2.732-0.355-5.463-0.231-8.208c0.06-1.453-0.44-1.833-1.85-1.929
				c-11.676-0.814-23.381-1.475-35.027-2.659c-6.529-0.659-13.055-1.158-19.604-1.638c-4.101-0.28-8.212-0.388-12.645-1.049
				c1.039-0.609,1.755-0.414,2.428-0.423c6.625-0.174,13.25,0.313,19.87-0.216c0.361,0.715,1.039,0.366,1.531,0.366
				c11.792,0.011,23.58,0.011,35.367,0c0.515,0,1.033-0.107,1.543-0.14c2.343,0,4.659-0.031,7.002,0
				c0.859,0.021,1.27-0.163,1.25-1.151c-0.057-2.732-0.022-5.464-0.012-8.207c0.012-1.052-0.401-1.519-1.492-1.735
				c-3.858-0.717-7.794-0.966-11.651-1.889c-4.338-1.027-8.858-1.29-13.313-1.884c-3.072-0.425-6.162-0.827-9.245-1.229
				c0.011-0.141,0.011-0.258,0.033-0.39C309.893,236.665,320.999,236.665,332.098,236.665z"/>
			<path style="fill-rule:evenodd;clip-rule:evenodd;fill:#FFFFFF;" d="M296.103,221.68c-1.276,1.246-2.418,2.667-3.835,3.728
				c-4.75,3.566-11.116,3.754-16.289,0.608c-0.638-0.378-1.277-0.812-1.904-1.226c0.146-0.596-0.404-0.781-0.722-1.073
				c-1.458-1.355-2.675-2.873-3.661-4.599c-1.869-3.307-2.654-6.896-2.863-10.628c-0.011-2.863,0.44-5.665,1.031-8.467
				c0.161-0.761,0.167-1.129-0.794-1.183c-4.112-0.233-8.24-0.553-12.344-0.84c-5.329-0.363-10.667-0.689-15.993-1.09
				c-9.104-0.679-18.198-1.376-27.297-2.087c-5.611-0.473-11.219-0.967-16.837-1.458c-0.022-0.007-0.039-0.104-0.112-0.254
				c0.417-0.624,1.109-0.326,1.666-0.326c5.756-0.017,11.517,0,17.3,0.015c0.807,0,1.632,0.055,2.392-0.293
				c0.229,0.044,0.455,0.121,0.681,0.121c8.224,0,16.442-0.013,24.659,0c0.901,0,1.729-0.237,2.573-0.499
				c9.774-2.972,19.658-5.499,29.746-7.168c1.768-0.286,3.925-0.091,5.212-1.052c2.616-1.907,4.555-4.631,6.315-7.536
				c-4.128-0.414-7.995-0.825-11.873-1.209c-12.031-1.339-24.061-2.669-36.125-3.621c-0.599-0.158-1.192-0.288-1.791-0.425
				c0.011-0.08,0.011-0.15,0.022-0.225c1.712,0,3.407,0,5.118,0c16.035,0.014,32.073,0.02,48.116,0.059
				c0.89,0,1.604-0.305,2.169-0.972c2.03-2.476,4.078-4.939,6.117-7.412c2.981-3.599,5.987-7.205,9.175-11.022
				c-11.129-1.238-21.988-2.446-32.837-3.634c-2.432-0.287-4.835-0.569-7.25-0.868c0.005-0.103,0.005-0.2,0.017-0.318
				c0.574,0,1.161,0,1.746,0c16.396,0,32.797,0.02,49.19-0.056c3.14-0.006,5.78,1.171,8.384,2.657
				c0.054,0.207,0.204,0.257,0.381,0.207h-0.014c2.024,1.65,3.754,3.6,5.464,5.568c3.635,4.143,6.725,8.715,10.498,12.727
				c5.304,6.289,10.254,12.851,15.919,19.096c-1.085,0.2-1.68-0.26-2.308-0.499c-3.317-1.216-6.628-1.243-9.924-0.015
				c-6.925,2.611-10.42,8.08-12.299,14.84c-1.055,3.828-0.694,7.761-0.769,11.666c-0.011,0.467,0.272,1.021-0.247,1.433
				c-0.277-0.283-0.537-0.511-0.782-0.748c-2.127-2.659-4.209-5.315-6.335-7.973c-2.357-2.863-4.75-5.726-7.074-8.63
				c-0.542-0.667-0.83-0.564-1.325,0.01c-2.044,2.528-4.134,5.043-6.218,7.554C305.487,210.26,300.79,215.964,296.103,221.68z"/>
		</g>
	</g>
	<path style="fill-rule:evenodd;clip-rule:evenodd;" d="M331.524,367.47c-0.189,0.261-0.42,0.346-0.844,0.097
		c0.372-0.033,0.615-0.045,0.866-0.067L331.524,367.47z"/>
	<path style="fill-rule:evenodd;clip-rule:evenodd;" d="M338.378,356.018c-0.011-0.348,0.182-0.402,0.458-0.38
		C338.79,355.885,338.645,356.007,338.378,356.018z"/>
	<path style="fill-rule:evenodd;clip-rule:evenodd;" d="M272.174,270.792c-0.087,0.282-0.251,0.413-0.55,0.359
		C271.719,270.901,271.894,270.78,272.174,270.792z"/>
	<path style="fill-rule:evenodd;clip-rule:evenodd;" d="M242.897,299.521c-0.124-0.589,0.413-0.554,0.714-0.717
		C243.502,299.162,243.287,299.432,242.897,299.521z"/>
	<path style="fill-rule:evenodd;clip-rule:evenodd;" d="M243.558,298.804c0.119-0.075,0.221-0.132,0.337-0.185
		C243.778,298.672,243.677,298.729,243.558,298.804z"/>
	<path style="fill-rule:evenodd;clip-rule:evenodd;" d="M209.949,331.684c0.132-0.088,0.263-0.196,0.381-0.305
		C210.313,331.606,210.167,331.684,209.949,331.684z"/>
	<g>
		<path style="fill-rule:evenodd;clip-rule:evenodd;" d="M324.789,205.628c2.126,2.658,4.208,5.313,6.346,7.973
			c-0.438,2.471-0.082,4.945-0.183,7.405c-5.067,0.023-10.129,0.042-15.206,0.077c-0.609,0.011-1.29-0.238-1.836,0.304
			c-5.933-0.132-11.871-0.065-17.808,0.293c4.688-5.716,9.385-11.42,14.069-17.118c1.106,0.06,2.211,0.106,3.305,0.199
			C317.248,205.044,321.022,205.347,324.789,205.628z"/>
		<g>
			<path style="fill-rule:evenodd;clip-rule:evenodd;" d="M186.105,368.183c0.204,0.911,0.409,1.813,0.61,2.722
				c-4.343-2.146-8.223-5.006-11.997-7.991c-6.467-5.106-9.175-12.285-10.68-20.062c-0.523-2.754-0.74-5.529-0.74-8.337
				c4.609,0.529,9.206,1.073,13.804,1.603c-0.418,3.828-0.543,7.636-0.102,11.485C177.938,355.409,181.126,362.177,186.105,368.183z
				"/>
			<g>
				<path style="fill-rule:evenodd;clip-rule:evenodd;" d="M151.748,332.236c-2.677,0.033-5.32,0.053-7.989,0.087
					c-0.294-3.416-0.946-6.789-1.161-10.238c-0.771-11.755,0.39-23.153,5.716-33.887c1.096-2.212,2.395-4.262,3.869-6.204
					c0.848-1.128,1.749-1.149,2.819-0.324c1.954,1.485,3.982,2.871,5.905,4.369c1.636,1.233,1.664,1.854,0.754,3.719
					c-6.484,13.11-9.975,26.938-9.986,41.61C151.674,331.649,151.705,331.932,151.748,332.236z"/>
				<path style="fill-rule:evenodd;clip-rule:evenodd;" d="M375.521,283.937c3.271-0.032,6.518-0.088,9.795-0.141
					c0.519,11.992-1.619,23.423-7.271,34.116c-1.226,2.321-2.469,4.608-3.925,6.777c-0.249,0.379-0.531,0.997-1.028,0.704
					c-0.631-0.37,0.033-0.803,0.203-1.161c3.723-8.154,6.128-16.592,5.511-25.689C378.452,293.513,377.24,288.674,375.521,283.937z"
					/>
				<path style="fill-rule:evenodd;clip-rule:evenodd;" d="M144.016,332.81c2.621-0.031,5.202,0.238,7.778,0.663
					c0.335,5.715,2.581,10.812,5.08,15.854c2.358,4.738,5.459,8.945,8.778,13.014c0.175,0.193,0.305,0.445,0.511,0.748
					C157.701,361.309,145.622,344.696,144.016,332.81z"/>
				<path style="fill-rule:evenodd;clip-rule:evenodd;" d="M390.397,283.914c1.173-0.099,2.344-0.195,3.513-0.293
					c-1.432,5.153-2.971,10.238-5.089,15.139C389.313,293.805,390.496,288.914,390.397,283.914z"/>
				<g>
					<path style="fill-rule:evenodd;clip-rule:evenodd;" d="M271.643,271.139c-0.793,1.9-2.674,2.854-3.883,4.381
						c-2.689,3.458-6.104,4.848-10.506,4.359c-2.869-0.334-5.803-0.098-8.698-0.119c5.829-2.635,11.81-4.933,17.912-6.811
						C268.226,272.407,269.691,271.109,271.643,271.139z"/>
					<path style="fill-rule:evenodd;clip-rule:evenodd;" d="M209.592,306.414c3.144-2.818,5.965-5.996,9.369-8.553
						c4.382-3.3,8.926-6.334,13.459-9.404c2.853-1.92,5.941-3.382,8.752-5.335c5.097,0.565,10.192,1.128,15.277,1.693
						c0.331,0.043,0.783-0.021,0.845,0.412c0.028,0.218-0.231,0.511-0.415,0.715c-4.11,4.468-8.518,8.59-12.985,12.678
						c-0.116,0.053-0.218,0.109-0.337,0.185h0.054c-0.302,0.163-0.838,0.128-0.714,0.717l0.017-0.012
						c-0.44-0.263-0.779,0.054-1.112,0.239c-3.411,1.799-6.345,4.271-9.345,6.624C224.84,306.525,217.215,306.547,209.592,306.414z"
						/>
					<g>
						<g>
							<path style="fill-rule:evenodd;clip-rule:evenodd;" d="M266.828,208.491c0.209,3.732,0.994,7.321,2.863,10.628
								c0.986,1.726,2.203,3.243,3.661,4.599c0.318,0.292,0.869,0.477,0.722,1.073c-15.992,2.711-31.319,7.603-45.798,14.868
								c-9.356,4.684-18.63,9.641-27.312,15.583c-6.066,4.143-11.966,8.49-17.91,12.797c-2.688,1.952-2.977,1.962-5.146-0.552
								c-1.816-2.105-3.583-4.296-5.47-6.356c-1.181-1.301-0.89-2.147,0.217-3.372c5.625-6.259,12.482-11.008,19.161-15.997
								c8.825-6.602,18.593-11.539,28.314-16.593c14.14-7.34,29.139-12.067,44.55-15.755
								C265.427,209.241,266.342,209.339,266.828,208.491z"/>
							<path style="fill-rule:evenodd;clip-rule:evenodd;" d="M273.154,175.163c3.877,0.384,7.745,0.796,11.873,1.209
								c-1.76,2.905-3.699,5.629-6.315,7.536c-1.288,0.961-3.445,0.766-5.212,1.052c-10.088,1.67-19.972,4.197-29.746,7.168
								c-0.844,0.262-1.672,0.499-2.573,0.499c-8.217-0.013-16.436,0-24.659,0c-0.226,0-0.452-0.077-0.681-0.121
								c4.628-2.538,9.542-4.37,14.453-6.235c9.712-3.719,19.749-6.344,29.898-8.616
								C264.49,176.692,268.856,176.128,273.154,175.163z"/>
							<path style="fill-rule:evenodd;clip-rule:evenodd;" d="M211.431,194.823c9.099,0.71,18.193,1.408,27.297,2.087
								c5.326,0.401,10.664,0.728,15.993,1.09c-10.231,2.781-20.404,5.742-30.197,9.81c-4.544,1.897-9.1,3.805-13.539,5.909
								c-1.508,0.716-2.358,0.413-3.03-1.073c-1.63-3.589-3.296-7.191-5.03-10.758c-0.564-1.182-0.322-1.974,0.78-2.602
								C206.286,197.8,208.855,196.313,211.431,194.823z"/>
							<path style="fill-rule:evenodd;clip-rule:evenodd;" d="M211.883,383.031c1.406-1.875,3.36-3.157,5.052-4.75
								c3.307,2.502,6.608,5.129,10.497,6.67c4.487,1.757,9.139,3.09,13.906,3.934c7.147,1.28,14.368,1.845,22.107,1.845
								c-2.965,0.878-5.564,1.039-8.145,1.141c-9.672,0.378-19.356,0.528-28.76-2.343
								C221.381,387.942,216.43,385.946,211.883,383.031z"/>
							<g>
								<g>
									<path style="fill-rule:evenodd;clip-rule:evenodd;" d="M332.098,236.665c-11.099,0-22.205,0-33.313,0
										c-0.022,0.131-0.022,0.249-0.033,0.39c3.083,0.402,6.173,0.804,9.245,1.229c4.454,0.594,8.975,0.857,13.313,1.884
										c3.857,0.923,7.793,1.171,11.651,1.889c1.091,0.216,1.504,0.683,1.492,1.735c-0.011,2.742-0.045,5.475,0.012,8.207
										c0.02,0.989-0.391,1.172-1.25,1.151c-2.343-0.031-4.659,0-7.002,0c-4.197-0.998-8.513-1.204-12.812-1.443
										c-8.575-0.455-17.116,0.122-25.63,1.217c-6.62,0.529-13.245,0.042-19.87,0.216c-0.673,0.01-1.39-0.186-2.428,0.423
										c4.433,0.661,8.544,0.769,12.645,1.049c-11.338,3.167-22.925,5.521-33.826,10.184c-4.338,1.856-8.76,3.612-12.772,6.052
										c-4.262,2.612-8.6,5.077-12.61,8.056c-0.305,0.229-0.528,0.588-0.785,0.901c-0.938,0.034-1.895-0.422-2.83,0.131
										c0.328,0.627,0.935,0.313,1.373,0.466c-5.312,4.424-10.675,8.806-15.889,13.316c-4.332,3.729-8.33,7.774-11.29,12.741
										c-4.224-0.186-8.427-0.096-12.658,0.4c2.807,0.282,5.629,0.533,8.434,0.825c0.915,0.085,1.88-0.12,2.733,0.402
										c-1.542,2.601-3.206,5.14-4.57,7.849c-2.626,5.131-4.371,10.605-5.715,16.191c-4.818,0.12-9.602,0.26-14.403,0.032
										c0.356-9.813,2.914-18.933,8.133-27.348c3.084-4.991,6.713-9.501,10.387-14.021c5.218-6.391,11.087-12.114,17.213-17.624
										c6.786-6.104,14.705-10.411,22.446-15.05c12.62-7.592,26.28-12.689,40.161-17.363c17.08-5.758,34.589-7.178,52.423-6.191
										C320.127,234.897,326.146,235.506,332.098,236.665z"/>
									<path style="fill-rule:evenodd;clip-rule:evenodd;" d="M398.163,245.753c-0.369-0.098-0.744-0.172-1.117-0.27
										c-0.891-2.636-1.672-5.325-2.688-7.927c-1.734-4.479-4.271-8.525-6.892-12.515c-5.462-8.351-13.105-14.184-21.533-19.163
										c-0.302-4.518-1.804-8.552-4.77-12.022c-0.701-0.815-1.397-1.665-2.096-2.487c-0.02-1.334-0.09-2.667-0.02-4.013
										c0.102-1.865,0.661-2.189,2.31-1.365c2.022,1.013,4.002,2.109,5.996,3.165c3.205,6.908,8.001,12.135,15.294,14.786
										c1.026,0.363,2.068,0.651,3.099,0.972c3.805,5.605,7.492,11.277,9.639,17.751
										C397.888,230.16,398.943,237.85,398.163,245.753z"/>
									<path style="fill-rule:evenodd;clip-rule:evenodd;" d="M366.951,149.804c-4.63,0.01-9.273,0.021-13.91,0.042
										c-0.816-0.693-1.83-1.026-2.788-1.442c-10.445-4.641-21.511-7.13-32.578-9.685c-3.219-0.735-3.338-0.752-3.318-4.153
										c0-1.68,0.034-3.383,0.012-5.069c-0.012-1.351,0.647-2.174,1.997-2.119c5.628,0.26,11.193,0.813,16.596,2.745
										c3.173,1.138,6.462,2.003,9.603,3.262c7.088,2.89,13.471,7.005,19.412,11.722
										C363.721,146.491,365.825,147.688,366.951,149.804z"/>
								</g>
								<path style="fill-rule:evenodd;clip-rule:evenodd;" d="M118.966,303.684c-4.417-6.128-6.232-12.677-7.049-19.606
									c-0.691-5.868-0.545-11.756,0.034-17.632c0.201-2.212,0.364-2.321,2.598-2.062c1.328,0.173,2.655,0.347,3.993,0.444
									c0.91,0.067,1.226,0.413,0.989,1.345c-1.574,6.235-2.192,12.635-2.626,19.042c-0.39,5.728,0.242,11.388,1.717,16.974
									C118.695,302.523,118.766,302.848,118.966,303.684z"/>
								<path style="fill-rule:evenodd;clip-rule:evenodd;" d="M392.389,205.37c1.033-0.164,2.099-0.339,3.138-0.509
									c0.196,1.625,0.468,3.242,0.621,4.857c0.124,1.366,1.355,2.765-0.067,4.219C395.136,210.942,394.114,207.993,392.389,205.37
									z"/>
							</g>
							<g>
								<path style="fill-rule:evenodd;clip-rule:evenodd;" d="M136.941,333.473c-1.698-2.646-3.381-5.108-4.894-7.658
									c-6.078-10.246-9.749-21.146-9.103-33.246c0.353-6.496,2.102-12.612,4.497-18.62c4.755-11.874,10.903-22.904,18.961-32.902
									c4.283-5.313,9.121-9.943,14.337-14.258c3.567-2.928,7.275-5.598,11.421-7.668c1.564-0.792,2.395-0.411,3.049,1.009
									c1.542,3.287,3.062,6.538,4.604,9.813c0.478,1.02,0.207,1.812-0.621,2.484c-1.037,0.834-2.132,1.614-3.151,2.494
									c-7.281,6.202-14.327,12.699-20.475,20.03c-4.061,4.88-8.02,9.878-11.327,15.312c-7.814,12.86-12.271,26.623-11.248,41.892
									c0.442,6.603,1.582,13.065,3.772,19.334C136.97,332.074,137.371,332.659,136.941,333.473z"/>
								<path style="fill-rule:evenodd;clip-rule:evenodd;" d="M225.004,370.571c2.943-2.984,5.874-5.955,8.825-8.926
									c2.007,9.661,8.238,15.845,16.526,20.505c2.177,1.217,4.349,2.268,6.763,2.863c0.282,0.067,0.56,0.164,0.656,0.729
									c-5.245-0.903-10.509-1.118-15.378-3.459c-3.391-1.606-6.78-3.101-9.889-5.205
									C229.754,375.203,227.116,373.176,225.004,370.571z"/>
								<g>
									<path style="fill-rule:evenodd;clip-rule:evenodd;" d="M341.533,167.827c-3.773-4.012-6.863-8.584-10.498-12.727
										c-1.71-1.968-3.439-3.918-5.464-5.568c6.925,1.01,13.586,3.069,20.211,5.26c3.255,1.096,6.357,2.553,9.441,4.071
										c0.636,0.311,1.274,0.591,1.534,1.329c-3.802,0.042-7.588,0.087-11.375,0.129c-1.097,0-2.187,0-3.319,0.163
										c4.273,1.995,9.001,1.953,13.418,3.22c-0.373,1.942-1.073,3.77-1.797,5.606c-0.463,1.162-1.132,1.499-2.422,1.112
										C348.037,169.475,344.862,168.379,341.533,167.827z"/>
									<g>
										<g>
											<path style="fill-rule:evenodd;clip-rule:evenodd;" d="M264.252,90.345c2.089,0.71,4.321,0.557,6.444,1.084
												c0.988,0.239,1.995,0.412,2.974,0.775c-5.832,0.075-11.633,0.472-17.405,0.884c-11.398,0.856-22.881,1.514-33.889,4.777
												c-7.244,2.153-14.617,3.823-21.796,6.251c-0.706,0.26-1.271,0.456-1.671-0.51c-0.401-0.938,0.263-1.138,0.824-1.39
												c1.204-0.593,2.417-1.148,3.643-1.711c11.483-5.384,23.79-7.515,36.222-9.153c2.494-0.32,5.063-0.183,7.489-1.008
												C252.807,90.345,258.525,90.345,264.252,90.345z"/>
										</g>
										<path style="fill-rule:evenodd;clip-rule:evenodd;" d="M331.991,113.822c-2.636-1.063-5.053-2.033-7.468-3.004
											c-14.232-5.791-29.07-8.924-44.38-9.831c-2.923-0.167-5.837-0.033-8.754,0.146c-0.811,0.063-1.822,0.153-2.081-0.827
											c-0.322-1.285-0.418-2.684,0.197-3.91c0.246-0.495,0.943-0.357,1.472-0.386c8.43-0.265,16.823,0.221,25.05,2.067
											c12.784,2.832,24.774,7.738,35.597,15.244C331.7,113.389,331.753,113.508,331.991,113.822z"/>
										<g>
											<path style="fill-rule:evenodd;clip-rule:evenodd;" d="M240.378,170.891c-1.711,0-3.406,0-5.118,0
												c-0.011,0.075-0.011,0.146-0.022,0.225c0.598,0.138,1.191,0.267,1.791,0.425c-5.044,1.668-10.184,3.046-15.086,5.074
												c-11.291,4.669-22.728,9.146-33.149,15.633c-7.667,4.76-15.628,9.113-22.649,14.835
												c-6.506,5.271-13.061,10.571-18.819,16.698c-3.21,3.429-6.58,6.747-9.619,10.38c-0.932,1.105-1.853,1.268-3.005,0.422
												c-1.768-1.334-3.547-2.656-5.349-3.958c-1.288-0.922-1.502-2.039-0.943-3.503c1.853-4.987,5.177-8.957,8.619-12.87
												c6.566-7.486,14.346-13.611,22.073-19.834c7.645-6.184,15.973-11.291,24.29-16.45
												c10.509-6.52,21.844-11.222,33.276-15.776c16.229-6.479,33.138-10.231,50.266-13.202c2.064-0.347,4.193-0.294,6.176-1.08
												c10.859,1.188,21.718,2.396,32.847,3.634c-3.188,3.817-6.193,7.423-9.175,11.022c-1.875-0.04-3.74,0.113-5.604,0.195
												c-13.137,0.564-26.127,2.299-38.977,5.081C248.22,168.706,244.196,169.404,240.378,170.891z"/>
											<path style="fill-rule:evenodd;clip-rule:evenodd;" d="M344.49,125.729c-6.584-1.746-13.2-3.42-19.921-4.637
												c-11.854-2.142-23.779-3.453-35.81-3.872c-21.26-0.737-42.194,1.428-62.711,7.099
												c-5.405,1.495-10.816,3.003-15.996,5.118c-11.335,4.598-22.852,8.834-33.445,15.063
												c-8.472,4.988-17.06,9.9-24.654,16.221c-5.764,4.801-11.7,9.475-16.727,15.077c-4.705,5.253-9.568,10.408-13.462,16.309
												c-3.307,5.01-6.747,9.951-9.306,15.4c-1.863,3.99-3.931,7.894-5.41,12.058c-0.153,0.423-0.207,0.899-0.759,1.281
												c-0.077-2.299,0.369-4.436,0.759-6.562c1.106-6.051,3.05-11.842,5.532-17.471c2.883-6.549,6.712-12.523,10.734-18.392
												c3.948-5.769,8.676-10.82,13.315-15.982c5.216-5.813,11.406-10.453,17.416-15.335
												c7.918-6.452,16.843-11.257,25.564-16.417c11.296-6.702,23.4-11.484,35.662-16c14.51-5.34,29.511-8.019,44.834-9.297
												c14.906-1.249,29.743-0.632,44.488,1.819c7.161,1.193,14.14,3.311,20.681,6.399c6.088,2.874,12.295,5.665,17.486,10.107
												c0.672,0.563,1.626,0.963,1.711,2.026L344.49,125.729z"/>
											<path style="fill-rule:evenodd;clip-rule:evenodd;" d="M106.659,261.349c-0.649-4.309-0.649-8.537-0.435-12.777
												c0.653-12.937,4.468-24.942,10.669-36.273c3.559-6.484,7.924-12.352,12.516-18.104
												c4.349-5.439,9.489-10.082,14.439-14.929c6.49-6.375,13.853-11.57,21.132-16.938c8.689-6.41,18.283-11.128,27.914-15.838
												c14.69-7.217,30.319-11.593,45.975-16.012c5.979-1.682,11.969-2.874,18.097-3.55c2.446-0.257,4.897-0.295,7.349-0.007
												c1.017,0.119,1.776,0.538,1.895,1.681c0.249,2.374,0.488,4.756,0.288,7.147c-0.127,1.366-0.819,2.042-2.208,2.272
												c-10.48,1.781-20.901,3.886-31.037,7.031c-14.021,4.347-28.165,8.444-41.322,15.106
												c-9.384,4.76-18.647,9.901-27.006,16.366c-6.269,4.834-12.72,9.487-18.399,15.04
												c-5.459,5.335-11.096,10.499-15.987,16.375c-3.135,3.751-6.224,7.568-9.026,11.571
												c-4.465,6.345-7.176,13.566-9.929,20.756c-2.474,6.495-3.592,13.249-4.188,20.139
												C107.364,260.729,107.449,261.13,106.659,261.349z"/>
											<path style="fill-rule:evenodd;clip-rule:evenodd;" d="M118.766,178.519c2.098-5.509,5.061-10.54,7.998-15.627
												c3.459-6.007,7.908-11.223,12.395-16.44c2.951-3.435,6.312-6.355,9.743-9.238c10.24-8.648,21.24-16.077,33.125-22.36
												c14.499-7.673,30.003-11.961,45.968-15.075c2.714-0.535,5.552-0.48,8.181-1.605c0.181-0.08,0.5-0.096,0.658-0.003
												c1.703,0.839,1.426,2.472,1.607,3.951c0.129,1.239-0.568,1.573-1.576,1.866c-10.704,2.851-21.468,5.589-31.827,9.552
												c-11.582,4.448-23.056,9.241-33.655,15.747c-7.689,4.717-15.309,9.647-22.213,15.475
												c-5.854,4.95-11.92,9.759-16.973,15.604c-4.255,4.923-8.559,9.86-11.807,15.573
												C119.898,176.815,119.842,177.971,118.766,178.519z"/>
											<path style="fill-rule:evenodd;clip-rule:evenodd;" d="M148.257,134.455c7.521-7.338,15.56-13.975,24.595-19.387
												c0.5-0.302,1.002-0.498,1.42-0.963c0.523-0.591,1.268-1.246,2.051-0.292c0.725,0.898,0.502,1.594-0.495,2.258
												c-6.272,4.243-12.564,8.444-18.743,12.833c-2.831,2.004-5.518,4.194-8.682,5.707
												C148.354,134.556,148.313,134.509,148.257,134.455z"/>
											<path style="fill-rule:evenodd;clip-rule:evenodd;" d="M148.404,134.61c-0.206,0.184-0.435,0.305-0.688,0.067
												c0.194-0.077,0.367-0.146,0.542-0.222C148.313,134.509,148.354,134.556,148.404,134.61z"/>
										</g>
									</g>
								</g>
							</g>
						</g>
						<g>
							<path style="fill-rule:evenodd;clip-rule:evenodd;" d="M334.831,269.045c0.803,3.57,2.203,6.843,4.592,9.663
								c2.805,3.308,6.417,4.912,10.727,4.978c3.665,0.053,7.313,0.065,10.991,0.097c2.315,3.331,4.45,6.79,6.462,10.336
								c3.354,5.853,3.934,12.142,3.309,18.63c-1.384,14.29-7.776,26.252-17.187,36.88c-5.521,6.235-11.974,11.224-18.924,15.638
								c-1.116,0.707-1.879,1.921-3.276,2.202l0.022,0.029c0.432-0.921,1.188-1.505,2.006-2.067
								c4.837-3.308,9.209-7.149,13.265-11.388c0.383-0.424,0.863-0.791,0.942-1.43c6.319-3.429,9.49-8.894,10.345-15.878
								c0.06-0.456,0.087-0.923,0.121-1.376c3.847-11.193,4.756-22.256-1.773-32.825c-3.327-5.391-7.551-9.869-13.109-13.113
								c-5.123-2.971-10.593-4.738-16.362-5.735c-2.699-0.467-2.96-0.792-2.818-3.591c0.119-2.97,0.574-5.908,1.203-8.815
								c0.455-2.181,1.157-2.734,3.363-2.656C330.765,268.688,332.797,268.883,334.831,269.045z"/>
							<path style="fill-rule:evenodd;clip-rule:evenodd;" d="M302.807,327.398c-7.04,2.246-14.115,4.385-21.104,6.801
								c-2.88,0.997-5.787,2.017-8.594,3.242c-4.896,2.156-7.682,6.224-8.906,11.245c-1.901,7.971-0.571,15.345,5.303,21.362
								c3.474,3.545,7.97,4.731,12.742,3.386c7.167-2.019,14.302-4.219,21.339-6.647c2.781-0.965,5.535-2.03,8.365-2.8
								c-8.37,7.329-18.431,10.735-29.224,12.176c-7.193,0.966-14.186-0.118-20.878-3.032c-8.501-3.72-11.635-10.995-8.689-19.791
								c2.606-7.774,8.223-12.962,14.741-17.418c8.534-5.844,18.176-8.165,28.282-8.912
								C298.395,326.845,300.609,327.087,302.807,327.398z"/>
							<path style="fill-rule:evenodd;clip-rule:evenodd;" d="M328.061,359.009c2.8-0.865,5.574-1.786,8.375-2.654
								c0.588-0.184,1.163-0.533,1.841-0.271c-2.327,3.033-5.422,5.247-8.194,7.828c-8.784,8.19-19.574,12.133-30.957,14.942
								c-0.534,0.133-0.871,0.206-1.196-0.409C309.369,374.136,320.197,368.857,328.061,359.009z"/>
							<path style="fill-rule:evenodd;clip-rule:evenodd;" d="M209.949,331.684c-0.455,0.553-1.149,0.596-1.746,0.605
								c-4.956,0.055-9.932,0.25-14.891-0.085c2.333-7.287,6.038-13.848,10.889-19.759c0.811-0.978,1.824-1.801,2.333-3.005
								c6.614,0.596,13.233,1.204,19.851,1.823c-5.334,4.424-9.43,9.921-13.383,15.527c-1.033,1.455-2.248,2.812-2.688,4.621
								l0.017-0.033C210.211,331.487,210.081,331.596,209.949,331.684z"/>
						</g>
					</g>
				</g>
			</g>
		</g>
		<path style="fill-rule:evenodd;clip-rule:evenodd;" d="M391.753,245.613c-4.25,0.379-8.506,0.042-12.753,0.14
			c-0.992,0.031-1.975-0.033-2.959-0.043c-2.994-3.385-6.141-6.616-10.086-8.937c-0.054-6.007-0.217-12.004,0.081-18.01
			c3.328,1.864,6.468,3.99,9.473,6.417C382.45,230.843,388.115,237.393,391.753,245.613z"/>
	</g>
</g>
</svg>
