<?xml version="1.0" encoding="iso-8859-1"?>
<!-- Generator: Adobe Illustrator 16.0.0, SVG Export Plug-In . SVG Version: 6.00 Build 0)  -->
<!DOCTYPE svg PUBLIC "-//W3C//DTD SVG 1.1//EN" "http://www.w3.org/Graphics/SVG/1.1/DTD/svg11.dtd">
<svg version="1.1" id="Capa_1" xmlns="http://www.w3.org/2000/svg" xmlns:xlink="http://www.w3.org/1999/xlink" x="0px" y="0px"
	 width="566.93px" height="566.93px" viewBox="0 0 566.93 566.93" style="enable-background:new 0 0 566.93 566.93;"
	 xml:space="preserve">
<g>
	<g>
		<path style="fill-rule:evenodd;clip-rule:evenodd;fill:#CB6120;" d="M377.991,454.653c-7.886,2.016-15.603,4.62-23.33,7.21
			c-4.1,1.116-8.084,2.656-12.114,4.057c-10.192,3.518-20.526,6.703-30.904,9.629c-6.912,1.944-13.424,0.227-18.456-4.904
			c-8.508-8.716-10.433-19.396-7.682-30.94c1.774-7.273,5.809-13.163,12.9-16.286c4.065-1.777,8.276-3.25,12.447-4.697
			c10.124-3.5,20.368-6.595,30.568-9.849c4.021-1.224,8.024-2.515,12.029-3.738c-0.121-1.035-0.768-1.473-1.231-2.036
			c-7.561-9.315-15.773-18.049-23.39-27.3c-5.603-6.753-11.565-13.193-17.187-19.932c-7.79-9.314-9.232-24.942-3.331-35.557
			c4.777-8.594,14.733-13.651,23.313-11.767c4.278,0.941,7.69,3.393,10.733,6.439c6.449,6.475,11.799,13.853,17.851,20.67
			c3.656,4.101,7.409,8.119,10.856,12.406c6.779,8.422,14.238,16.259,21.104,24.584c6.271,7.646,12.906,14.935,19.328,22.424
			c6.291,7.337,10.815,15.252,10.186,25.336c-0.05,0.659-0.089,1.334-0.178,1.994c-1.238,10.114-5.828,18.03-14.98,22.995
			c-4.304,1.457-8.614,2.903-12.926,4.38c-0.4-0.033-0.679,0.045-0.662,0.552l-0.146,0.094c-0.98-0.379-1.817,0.126-2.666,0.392
			C386.065,452.068,382.051,453.4,377.991,454.653z"/>
		<path style="fill-rule:evenodd;clip-rule:evenodd;fill:#CB6120;" d="M111.438,416.71c-0.262-0.172-1.207,0.047-0.373-0.706
			c3.866-0.049,7.694-0.078,11.572-0.124c5.57,0.124,11.161,0.313,16.745-0.112c6.954,0.327,13.882,0.125,20.86-0.045
			c7.512,0.487,15.06,0.311,22.594,0.11c7.182,0.481,14.389,0.2,21.567,0.122c0.863-0.011,1.87-0.075,2.528-0.878
			c0.314,0,0.527-0.11,0.552-0.438l-0.025,0.046c1.06-0.221,1.587-1.164,2.299-1.841c7.399-7.098,14.814-14.148,21.927-21.531
			c1.655-1.694,3.472-3.235,5.207-4.851c-0.132-0.176-0.271-0.363-0.422-0.566c-1.927-0.129-3.828-0.251-5.734-0.393
			c-9.583-0.899-19.17-1.777-28.749-2.641c-7.043-0.627-14.086-1.272-21.139-1.854c-1.889-0.157-3.795-0.752-5.71-0.107
			c-1.234-0.756-2.633-0.457-3.958-0.583c-4.061-0.421-8.147-0.784-12.213-1.192c6.128-0.723,12.213-0.85,18.333-0.58
			c9.702-0.032,19.412-0.065,29.118-0.065c11.04,0.189,22.084,0.16,33.114-0.061c3.418,0.597,6.434-0.144,8.585-3
			c1.93-2.561,4.523-4.494,6.561-6.942l-0.025,0.017c0.564-0.126,0.875-0.518,1.035-1.038h-0.077
			c0.171-0.107,0.317-0.188,0.487-0.265c6.469-5.923,12.855-11.892,18.807-18.363c0.265-0.296,0.64-0.72,0.6-1.035
			c-0.091-0.628-0.744-0.535-1.223-0.597c-7.368-0.818-14.745-1.634-22.129-2.451c-6.883-0.797-13.75-1.679-20.638-2.418
			c-4.95-0.519-9.875-1.412-14.852-1.524c-0.633-0.221-1.513,0.233-1.988-0.674c1.355-0.802,2.741-0.143,4.099-0.19
			c14.684-0.03,29.391-0.048,44.075-0.061c4.193,0.03,8.443-0.313,12.598,0.172c6.376,0.707,11.321-1.305,15.216-6.313
			c1.749-2.213,4.475-3.595,5.624-6.346l-0.031,0.016c0.435,0.077,0.673-0.109,0.8-0.521c2.099-1.899,4.208-3.799,6.865-6.248
			c-0.784,3.8-1.839,6.72-2.28,9.783c-1.505,10.634,1.227,20.088,7.763,28.459c3.166,4.054,6.945,7.604,9.981,11.795
			c1.396,1.904,2.672,3.897,4.121,5.734c1.064,1.317-0.109,1.759-0.769,2.403c-5.344,5.15-10.909,10.114-16.069,15.467
			c-7.974,8.264-16.651,15.802-24.578,24.096c-7.417,7.742-15.551,14.73-22.878,22.521c-5.726,6.067-12.036,11.464-17.692,17.575
			c-4.276,4.303-8.52,8.604-12.784,12.93c-4.229,3.387-7.982,7.252-11.685,11.165c-2.45,2.307-5.28,4.164-7.318,6.882
			c-8.049,5.304-16.434,5.904-24.505,0.656c-5.701-3.711-9.14-9.534-11.227-16.054c-0.238-0.72-0.475-1.447-0.72-2.168
			c-0.29-1.318-0.59-2.622-0.883-3.943c-1.318-13.316,4.425-23.541,13.976-32.162c3.064-2.748,5.829-5.823,8.75-8.716
			c0.891-0.566,1.759-1.132,2.291-2.485c-3.015-0.232-5.808-0.438-8.63-0.675c-6.03-0.562-12.066-1.178-18.128-1.631
			c-3.751-0.282-7.477-1.037-11.298-0.772c-6.659-0.767-13.317-1.555-19.991-2.32c-5.527-0.785-11.073-1.32-16.664-1.509
			C118.971,417.054,115.233,416.665,111.438,416.71z"/>
		<g>
			<path style="fill-rule:evenodd;clip-rule:evenodd;fill:#CB6120;" d="M419.558,166.704c3.77,0.016,7.558,0.094,11.309,0.016
				c2.262-0.049,3.234-1.399,2.952-3.63c1.176-0.734,1.27-2.118,1.925-3.161c0.419-0.73,0.022-1.12-0.655-1.234
				c-3.687-0.616-7.252-1.857-11.042-2.043c-0.073-0.032-0.144-0.077-0.218-0.134c-0.196-0.463-0.57-0.587-1.047-0.527
				c-5.481-1.208-11.015-2.402-16.525-3.628c0.032-0.218,0.063-0.44,0.063-0.642c2.622,0,5.228,0,7.854,0
				c6.716-0.032,13.441-0.049,20.148-0.063c6.145,1.444,10.274-1.556,13.646-6.233c0.375-0.542,1.009-0.874,2-1.691
				c-7.18-1.689-13.775-3.25-20.387-4.812c0.013-0.849,0.675-0.583,1.115-0.583c12.092,0.016,24.184,0.031,36.266,0.063
				c6.659,0.018,13.129,1.099,18.643,4.837c9.138,6.188,15.486,14.671,18.745,25.294c0.949,3.01,1.657,6.11,2.475,9.133
				c0,5.087,0,10.163,0,15.228c-1.108,0.824-0.762,2.128-0.989,3.209c-2.735,12.958-8.515,23.875-20.23,30.983
				c-3.122,1.883-6.504,3.118-9.896,4.311c-1.509,0.248-3.047,0.501-4.547,0.739c-3.229,0.016-6.406-0.237-9.62-0.659
				c-1.491-0.464-3.001-0.882-4.484-1.408c-10.567-3.838-17.511-11.41-22.152-21.414c-0.671-1.72-1.366-3.426-1.993-5.16
				c-3.064-8.851-3.929-17.879-2.336-27.146c0.182-1.043,0.827-2.356-1.168-2.656c-3.909-0.566-7.788-1.257-11.692-1.901
				c-6.403-1.837-13.25-1.774-19.439-4.664c1.64-0.237,3.22-0.237,4.807-0.237C408.568,166.831,414.051,166.765,419.558,166.704z"/>
			<path style="fill-rule:evenodd;clip-rule:evenodd;fill:#CB6120;" d="M383.844,277.461c3.47,0.157,3.546,0.095,3.531-3.422
				c-0.025-3.111-0.107-6.269,0.04-9.394c0.087-1.993-0.693-2.795-2.638-3.205c-9.099-1.947-18.181-4.049-27.275-6.108
				c0.787-0.785,1.773-0.424,2.656-0.439c7.354-0.048,14.688-0.077,22.023-0.111c5.228,0.551,5.242,0.485,5.228-4.695
				c-0.034-4.634,0.015-9.283-0.02-13.915c-0.076-7.98,2.187-15.031,7.417-21.221c5.041-6.023,11.309-8.094,18.873-6.98
				c3.406,0.494,6.266,2.317,9.223,3.905c1.01,1.173,2.021,2.405,3.035,3.585c4.294,5.026,6.469,10.869,6.909,17.412
				c-0.012,6.205-0.226,12.425,0.15,18.643c-0.435,8.717-0.196,17.404-0.121,26.103c-0.029,3.691,0,7.368-0.108,11.058
				c-0.043,1.477,0.523,1.885,1.9,1.87c4.272-0.065,8.544,0,12.817,0.015c1.425,0.016,2.851,0.106,4.284,0.063
				c6.152-0.143,12.317,0.346,18.473-0.203c2.559,0.078,5.104,0.283,7.666-0.188c0.538,0.143,1.081,0.249,1.616,0.392
				c3.128,0.375,6.079,1.287,8.853,2.829c7.072,4.006,9.634,10.477,10.23,18.111c0.468,6.041-0.257,11.964-1.853,17.775
				c-1.695,6.187-5.857,10.099-11.531,12.642c-3.801,1.731-7.794,2.733-11.858,3.489c-1.692,0.141-3.392,0.279-5.087,0.424
				c-2.447-0.063-4.917-0.127-7.361-0.171c-4.746,0.075-9.45,0.156-14.187,0.202c-2.798-0.709-5.652-0.202-8.499-0.253
				c-4.099-0.091-8.22,0-12.327,0.033c-5.324-0.047-10.611-0.063-15.919-0.142c-6.243-0.094-11.473-2.419-15.534-7.21
				c-3.462-4.085-5.491-8.825-6.652-13.994c-0.593-3.958-0.512-7.912-0.334-11.89c0.087-2.104-0.639-2.653-2.68-2.793
				c-16.906-1.181-33.861-2.137-50.73-3.851c-9.455-0.956-18.908-1.678-28.394-2.372c-5.939-0.408-11.895-0.563-18.315-1.52
				c1.507-0.882,2.546-0.601,3.518-0.613c9.598-0.253,19.192,0.453,28.779-0.313c0.522,1.035,1.504,0.529,2.216,0.529
				c17.082,0.017,34.154,0.017,51.227,0c0.743,0,1.494-0.155,2.231-0.203c3.397,0,6.75-0.044,10.144,0
				c1.245,0.03,1.839-0.234,1.808-1.667c-0.082-3.957-0.032-7.914-0.016-11.885c0.016-1.524-0.58-2.2-2.161-2.513
				c-5.59-1.039-11.285-1.399-16.873-2.735c-6.284-1.489-12.834-1.869-19.281-2.729c-4.453-0.616-8.925-1.197-13.391-1.779
				c0.015-0.204,0.015-0.375,0.049-0.564C351.681,277.461,367.767,277.461,383.844,277.461z"/>
			<path style="fill-rule:evenodd;clip-rule:evenodd;fill:#CB6120;" d="M331.706,255.759c-1.847,1.803-3.499,3.862-5.553,5.399
				c-6.881,5.166-16.098,5.438-23.592,0.881c-0.924-0.549-1.849-1.178-2.757-1.777c0.213-0.863-0.584-1.129-1.048-1.553
				c-2.109-1.963-3.872-4.162-5.3-6.659c-2.708-4.792-3.845-9.988-4.148-15.393c-0.016-4.148,0.64-8.206,1.492-12.264
				c0.234-1.103,0.243-1.637-1.147-1.715c-5.957-0.336-11.936-0.799-17.878-1.216c-7.718-0.524-15.449-0.998-23.163-1.579
				c-13.187-0.984-26.357-1.995-39.535-3.023c-8.127-0.686-16.25-1.4-24.386-2.113c-0.032-0.009-0.058-0.15-0.162-0.367
				c0.604-0.902,1.607-0.472,2.413-0.472c8.334-0.025,16.679,0,25.056,0.022c1.169,0,2.363,0.079,3.464-0.424
				c0.331,0.063,0.658,0.173,0.987,0.173c11.909,0,23.812-0.017,35.714,0c1.304,0,2.504-0.342,3.726-0.722
				c14.156-4.304,28.473-7.965,43.081-10.383c2.562-0.413,5.687-0.131,7.551-1.523c3.788-2.763,6.597-6.708,9.147-10.915
				c-5.98-0.599-11.581-1.195-17.197-1.752c-17.422-1.938-34.848-3.865-52.32-5.245c-0.869-0.229-1.726-0.416-2.595-0.615
				c0.017-0.116,0.017-0.218,0.034-0.326c2.479,0,4.934,0,7.412,0c23.225,0.021,46.451,0.027,69.688,0.085
				c1.288,0,2.322-0.442,3.139-1.407c2.944-3.587,5.91-7.154,8.861-10.735c4.316-5.211,8.673-10.436,13.289-15.964
				c-16.119-1.792-31.843-3.542-47.561-5.263c-3.521-0.416-7.003-0.825-10.498-1.256c0.007-0.149,0.007-0.291,0.023-0.461
				c0.83,0,1.683,0,2.526,0c23.75,0,47.506,0.028,71.244-0.082c4.549-0.009,8.372,1.696,12.143,3.847
				c0.078,0.3,0.295,0.372,0.552,0.3h-0.021c2.933,2.39,5.438,5.213,7.916,8.064c5.264,6,9.739,12.624,15.203,18.433
				c7.68,9.108,14.85,18.612,23.056,27.658c-1.568,0.29-2.435-0.377-3.341-0.723c-4.809-1.76-9.602-1.801-14.374-0.022
				c-10.028,3.783-15.092,11.703-17.812,21.494c-1.53,5.544-1.006,11.242-1.113,16.896c-0.017,0.677,0.393,1.478-0.36,2.075
				c-0.402-0.411-0.777-0.74-1.133-1.083c-3.083-3.852-6.095-7.698-9.174-11.547c-3.417-4.146-6.881-8.292-10.245-12.5
				c-0.785-0.965-1.205-0.816-1.917,0.015c-2.963,3.661-5.988,7.304-9.009,10.94C345.3,239.218,338.498,247.48,331.706,255.759z"/>
		</g>
	</g>
	<path style="fill-rule:evenodd;clip-rule:evenodd;" d="M383.01,466.912c-0.273,0.375-0.609,0.497-1.221,0.138
		c0.539-0.049,0.889-0.065,1.254-0.1L383.01,466.912z"/>
	<path style="fill-rule:evenodd;clip-rule:evenodd;" d="M392.938,450.323c-0.017-0.507,0.262-0.585,0.662-0.552
		C393.535,450.131,393.322,450.306,392.938,450.323z"/>
	<path style="fill-rule:evenodd;clip-rule:evenodd;" d="M297.053,326.887c-0.127,0.411-0.365,0.598-0.8,0.521
		C296.392,327.045,296.647,326.871,297.053,326.887z"/>
	<path style="fill-rule:evenodd;clip-rule:evenodd;" d="M254.65,368.495c-0.18-0.851,0.597-0.802,1.035-1.038
		C255.525,367.978,255.214,368.369,254.65,368.495z"/>
	<path style="fill-rule:evenodd;clip-rule:evenodd;" d="M255.607,367.457c0.171-0.107,0.317-0.188,0.487-0.265
		C255.925,367.269,255.779,367.35,255.607,367.457z"/>
	<path style="fill-rule:evenodd;clip-rule:evenodd;" d="M206.93,415.077c0.191-0.126,0.38-0.281,0.552-0.438
		C207.457,414.967,207.245,415.077,206.93,415.077z"/>
	<g>
		<path style="fill-rule:evenodd;clip-rule:evenodd;fill:#FFFFFF;" d="M373.256,232.51c3.079,3.849,6.091,7.695,9.19,11.547
			c-0.633,3.579-0.118,7.161-0.265,10.725c-7.336,0.035-14.669,0.063-22.023,0.111c-0.883,0.015-1.869-0.346-2.656,0.439
			c-8.596-0.189-17.195-0.094-25.796,0.426c6.792-8.278,13.594-16.541,20.379-24.793c1.604,0.086,3.202,0.154,4.784,0.289
			C362.334,231.663,367.8,232.103,373.256,232.51z"/>
		<g>
			<path style="fill-rule:evenodd;clip-rule:evenodd;fill:#FFFFFF;" d="M172.397,467.94c0.293,1.321,0.593,2.625,0.883,3.943
				c-6.29-3.106-11.91-7.252-17.374-11.574c-9.366-7.397-13.29-17.792-15.47-29.054c-0.757-3.992-1.07-8.011-1.07-12.077
				c6.674,0.766,13.333,1.554,19.991,2.32c-0.605,5.543-0.785,11.061-0.146,16.636C160.569,449.44,165.186,459.244,172.397,467.94z"
				/>
			<g>
				<path style="fill-rule:evenodd;clip-rule:evenodd;fill:#FFFFFF;" d="M122.637,415.88c-3.878,0.046-7.706,0.075-11.572,0.124
					c-0.425-4.947-1.37-9.833-1.682-14.826c-1.115-17.026,0.565-33.533,8.28-49.079c1.587-3.207,3.468-6.174,5.602-8.985
					c1.229-1.634,2.533-1.664,4.083-0.469c2.831,2.15,5.768,4.157,8.554,6.328c2.368,1.787,2.408,2.685,1.092,5.384
					c-9.391,18.99-14.448,39.017-14.463,60.265C122.53,415.029,122.575,415.438,122.637,415.88z"/>
				<path style="fill-rule:evenodd;clip-rule:evenodd;fill:#FFFFFF;" d="M446.73,345.925c4.736-0.046,9.44-0.127,14.187-0.202
					c0.753,17.367-2.343,33.923-10.53,49.409c-1.773,3.361-3.574,6.675-5.686,9.816c-0.358,0.55-0.769,1.443-1.489,1.02
					c-0.91-0.535,0.05-1.161,0.297-1.681c5.392-11.811,8.875-24.029,7.979-37.206C450.977,359.793,449.223,352.786,446.73,345.925z"
					/>
				<path style="fill-rule:evenodd;clip-rule:evenodd;fill:#FFFFFF;" d="M111.438,416.71c3.795-0.045,7.534,0.344,11.264,0.96
					c0.487,8.275,3.738,15.658,7.358,22.96c3.415,6.864,7.906,12.956,12.712,18.848c0.253,0.28,0.443,0.646,0.741,1.086
					C131.258,457.985,113.764,433.925,111.438,416.71z"/>
				<path style="fill-rule:evenodd;clip-rule:evenodd;fill:#FFFFFF;" d="M468.278,345.894c1.695-0.145,3.395-0.283,5.087-0.424
					c-2.074,7.461-4.302,14.826-7.368,21.924C466.708,360.215,468.422,353.136,468.278,345.894z"/>
				<g>
					<path style="fill-rule:evenodd;clip-rule:evenodd;fill:#FFFFFF;" d="M296.284,327.392c-1.149,2.751-3.875,4.133-5.624,6.346
						c-3.895,5.009-8.839,7.021-15.216,6.313c-4.155-0.484-8.405-0.142-12.598-0.172c8.443-3.818,17.105-7.145,25.944-9.865
						C291.335,329.226,293.457,327.346,296.284,327.392z"/>
					<path style="fill-rule:evenodd;clip-rule:evenodd;fill:#FFFFFF;" d="M206.415,378.481c4.553-4.086,8.639-8.685,13.567-12.391
						c6.348-4.776,12.929-9.172,19.493-13.617c4.131-2.781,8.606-4.899,12.675-7.728c7.384,0.817,14.761,1.633,22.129,2.451
						c0.479,0.062,1.132-0.031,1.223,0.597c0.04,0.315-0.335,0.739-0.6,1.035c-5.952,6.472-12.338,12.44-18.807,18.363
						c-0.169,0.076-0.315,0.157-0.487,0.265h0.077c-0.438,0.236-1.214,0.188-1.035,1.038l0.025-0.017
						c-0.639-0.378-1.128,0.077-1.613,0.347c-4.94,2.606-9.189,6.184-13.533,9.596C228.499,378.642,217.454,378.671,206.415,378.481
						z"/>
					<g>
						<g>
							<path style="fill-rule:evenodd;clip-rule:evenodd;fill:#FFFFFF;" d="M289.309,236.658c0.304,5.405,1.44,10.601,4.148,15.393
								c1.428,2.497,3.19,4.696,5.3,6.659c0.464,0.424,1.261,0.69,1.048,1.553c-23.162,3.928-45.359,11.01-66.33,21.534
								c-13.55,6.783-26.982,13.964-39.556,22.569c-8.785,6-17.329,12.295-25.939,18.533c-3.894,2.827-4.31,2.844-7.451-0.798
								c-2.63-3.051-5.19-6.225-7.923-9.207c-1.709-1.883-1.288-3.11,0.315-4.882c8.147-9.067,18.077-15.944,27.751-23.169
								c12.782-9.563,26.929-16.712,41.007-24.033c20.48-10.632,42.202-17.476,64.523-22.819
								C287.279,237.743,288.605,237.885,289.309,236.658z"/>
							<path style="fill-rule:evenodd;clip-rule:evenodd;fill:#FFFFFF;" d="M298.471,188.385c5.616,0.557,11.217,1.153,17.197,1.752
								c-2.551,4.207-5.359,8.151-9.147,10.915c-1.864,1.392-4.989,1.11-7.551,1.523c-14.608,2.418-28.925,6.079-43.081,10.383
								c-1.222,0.379-2.422,0.722-3.726,0.722c-11.902-0.017-23.805,0-35.714,0c-0.329,0-0.656-0.111-0.987-0.173
								c6.704-3.678,13.82-6.329,20.934-9.03c14.065-5.387,28.602-9.188,43.301-12.479
								C285.923,190.601,292.247,189.784,298.471,188.385z"/>
							<path style="fill-rule:evenodd;clip-rule:evenodd;fill:#FFFFFF;" d="M209.078,216.861
								c13.178,1.028,26.348,2.039,39.535,3.023c7.714,0.581,15.445,1.055,23.163,1.579c-14.819,4.027-29.551,8.317-43.736,14.206
								c-6.582,2.75-13.179,5.512-19.609,8.559c-2.184,1.039-3.415,0.598-4.387-1.554c-2.36-5.199-4.773-10.416-7.284-15.581
								c-0.819-1.712-0.468-2.858,1.128-3.77C201.626,221.173,205.347,219.019,209.078,216.861z"/>
							<path style="fill-rule:evenodd;clip-rule:evenodd;fill:#FFFFFF;" d="M209.731,489.449c2.038-2.718,4.868-4.575,7.318-6.882
								c4.79,3.623,9.571,7.429,15.203,9.661c6.499,2.543,13.234,4.475,20.14,5.697c10.353,1.853,20.809,2.671,32.017,2.671
								c-4.295,1.272-8.057,1.504-11.796,1.651c-14.009,0.549-28.033,0.766-41.654-3.395
								C223.487,496.561,216.316,493.669,209.731,489.449z"/>
							<g>
								<g>
									<path style="fill-rule:evenodd;clip-rule:evenodd;fill:#FFFFFF;" d="M383.844,277.461c-16.077,0-32.163,0-48.249,0
										c-0.034,0.19-0.034,0.36-0.049,0.564c4.466,0.582,8.938,1.163,13.391,1.779c6.447,0.86,12.997,1.24,19.281,2.729
										c5.588,1.336,11.283,1.696,16.873,2.735c1.581,0.313,2.177,0.988,2.161,2.513c-0.017,3.971-0.066,7.928,0.016,11.885
										c0.031,1.433-0.563,1.697-1.808,1.667c-3.394-0.044-6.746,0-10.144,0c-6.078-1.445-12.329-1.743-18.555-2.089
										c-12.421-0.658-24.788,0.175-37.119,1.763c-9.587,0.767-19.182,0.061-28.779,0.313c-0.972,0.013-2.011-0.269-3.518,0.613
										c6.421,0.957,12.376,1.111,18.315,1.52c-16.421,4.586-33.203,7.996-48.991,14.749c-6.283,2.687-12.687,5.231-18.499,8.765
										c-6.173,3.783-12.455,7.351-18.263,11.667c-0.441,0.333-0.764,0.851-1.137,1.305c-1.358,0.048-2.744-0.611-4.099,0.19
										c0.475,0.907,1.355,0.453,1.988,0.674c-7.693,6.408-15.459,12.756-23.012,19.288c-6.274,5.402-12.065,11.259-16.352,18.455
										c-6.119-0.27-12.205-0.143-18.333,0.58c4.066,0.408,8.152,0.771,12.213,1.192c1.325,0.126,2.725-0.173,3.958,0.583
										c-2.233,3.768-4.641,7.444-6.617,11.368c-3.804,7.43-6.331,15.361-8.278,23.452c-6.978,0.17-13.906,0.372-20.86,0.045
										c0.515-14.213,4.22-27.421,11.779-39.609c4.466-7.229,9.722-13.759,15.043-20.306c7.558-9.254,16.058-17.544,24.931-25.525
										c9.828-8.839,21.297-15.077,32.507-21.798c18.279-10.995,38.063-18.377,58.167-25.146
										c24.738-8.341,50.094-10.398,75.927-8.969C366.504,274.9,375.223,275.782,383.844,277.461z"/>
									<path style="fill-rule:evenodd;clip-rule:evenodd;fill:#FFFFFF;" d="M479.524,290.623
										c-0.535-0.143-1.078-0.249-1.616-0.392c-1.291-3.817-2.423-7.711-3.896-11.479c-2.511-6.487-6.186-12.347-9.98-18.126
										c-7.908-12.095-18.983-20.543-31.185-27.754c-0.44-6.542-2.615-12.386-6.909-17.412c-1.015-1.18-2.025-2.412-3.035-3.602
										c-0.03-1.933-0.132-3.863-0.03-5.812c0.147-2.701,0.959-3.171,3.348-1.977c2.928,1.467,5.795,3.055,8.684,4.585
										c4.642,10.003,11.585,17.575,22.152,21.414c1.483,0.526,2.993,0.944,4.484,1.408c5.511,8.118,10.853,16.333,13.964,25.709
										C479.124,268.039,480.654,279.177,479.524,290.623z"/>
									<path style="fill-rule:evenodd;clip-rule:evenodd;fill:#FFFFFF;" d="M434.321,151.657
										c-6.707,0.015-13.433,0.031-20.148,0.063c-1.182-1.006-2.648-1.487-4.035-2.089c-15.13-6.723-31.155-10.329-47.185-14.027
										c-4.664-1.066-4.834-1.09-4.807-6.015c0-2.434,0.049-4.9,0.015-7.342c-0.015-1.957,0.94-3.149,2.896-3.069
										c8.147,0.376,16.212,1.178,24.033,3.975c4.596,1.649,9.36,2.902,13.909,4.724c10.266,4.188,19.51,10.146,28.115,16.978
										C429.643,146.86,432.689,148.594,434.321,151.657z"/>
								</g>
								<path style="fill-rule:evenodd;clip-rule:evenodd;fill:#FFFFFF;" d="M75.158,374.526
									c-6.397-8.875-9.026-18.36-10.209-28.399c-1.002-8.496-0.789-17.022,0.049-25.535c0.291-3.204,0.527-3.362,3.763-2.987
									c1.922,0.253,3.844,0.505,5.783,0.645c1.317,0.098,1.775,0.598,1.432,1.947c-2.278,9.029-3.174,18.299-3.804,27.58
									c-0.564,8.295,0.353,16.491,2.487,24.583C74.765,372.846,74.867,373.315,75.158,374.526z"/>
								<path style="fill-rule:evenodd;clip-rule:evenodd;fill:#FFFFFF;" d="M471.16,232.135c1.5-0.237,3.038-0.491,4.547-0.739
									c0.285,2.354,0.68,4.696,0.901,7.036c0.177,1.977,1.961,4.005-0.101,6.11C475.141,240.205,473.661,235.936,471.16,232.135z"
									/>
							</g>
							<g>
								<path style="fill-rule:evenodd;clip-rule:evenodd;fill:#FFFFFF;" d="M101.191,417.67c-2.458-3.833-4.896-7.397-7.088-11.091
									c-8.802-14.843-14.119-30.628-13.184-48.152c0.513-9.408,3.044-18.266,6.513-26.968
									c6.887-17.196,15.792-33.172,27.46-47.652c6.205-7.695,13.21-14.401,20.766-20.651c5.166-4.241,10.536-8.108,16.541-11.105
									c2.265-1.15,3.468-0.597,4.417,1.46c2.232,4.761,4.432,9.47,6.667,14.214c0.69,1.478,0.298,2.624-0.901,3.596
									c-1.501,1.21-3.088,2.34-4.565,3.612c-10.544,8.982-20.749,18.392-29.654,29.011c-5.881,7.068-11.615,14.306-16.404,22.176
									c-11.318,18.627-17.772,38.559-16.291,60.675c0.641,9.561,2.29,18.921,5.463,28.002
									C101.233,415.645,101.813,416.49,101.191,417.67z"/>
								<path style="fill-rule:evenodd;clip-rule:evenodd;fill:#FFFFFF;" d="M228.734,471.402c4.264-4.325,8.507-8.627,12.784-12.93
									c2.907,13.994,11.93,22.951,23.936,29.697c3.153,1.763,6.296,3.287,9.795,4.146c0.409,0.1,0.81,0.239,0.948,1.059
									c-7.597-1.311-15.22-1.621-22.271-5.013c-4.913-2.327-9.821-4.49-14.324-7.539
									C235.614,478.109,231.795,475.171,228.734,471.402z"/>
								<g>
									<path style="fill-rule:evenodd;clip-rule:evenodd;fill:#FFFFFF;" d="M397.507,177.761
										c-5.464-5.809-9.939-12.433-15.203-18.433c-2.479-2.851-4.983-5.674-7.916-8.064c10.03,1.463,19.679,4.445,29.274,7.619
										c4.711,1.587,9.206,3.697,13.676,5.896c0.915,0.451,1.843,0.858,2.22,1.925c-5.507,0.061-10.989,0.127-16.477,0.188
										c-1.587,0-3.167,0-4.807,0.237c6.189,2.889,13.036,2.827,19.433,4.664c-0.54,2.812-1.554,5.46-2.601,8.119
										c-0.671,1.684-1.64,2.17-3.509,1.613C406.927,180.148,402.33,178.561,397.507,177.761z"/>
									<g>
										<g>
											<path style="fill-rule:evenodd;clip-rule:evenodd;fill:#FFFFFF;" d="M285.579,65.542c3.026,1.029,6.259,0.807,9.334,1.57
												c1.431,0.346,2.887,0.598,4.308,1.123c-8.447,0.108-16.848,0.683-25.209,1.281c-16.506,1.239-33.138,2.191-49.081,6.917
												c-10.491,3.119-21.17,5.536-31.568,9.054c-1.023,0.377-1.841,0.66-2.421-0.738c-0.581-1.359,0.381-1.649,1.194-2.013
												c1.743-0.859,3.502-1.662,5.277-2.479c16.63-7.797,34.456-10.884,52.459-13.256c3.612-0.464,7.335-0.266,10.848-1.46
												C269.001,65.542,277.284,65.542,285.579,65.542z"/>
										</g>
										<path style="fill-rule:evenodd;clip-rule:evenodd;fill:#FFFFFF;" d="M383.688,99.545
											c-3.817-1.54-7.317-2.944-10.816-4.352c-20.612-8.386-42.105-12.924-64.276-14.237c-4.234-0.242-8.455-0.047-12.682,0.21
											c-1.173,0.09-2.637,0.221-3.012-1.199c-0.466-1.861-0.605-3.888,0.285-5.663c0.356-0.716,1.367-0.518,2.132-0.558
											c12.208-0.384,24.363,0.32,36.28,2.994c18.517,4.1,35.881,11.206,51.555,22.078
											C383.265,98.917,383.344,99.088,383.688,99.545z"/>
										<g>
											<path style="fill-rule:evenodd;clip-rule:evenodd;fill:#FFFFFF;" d="M251.001,182.2c-2.478,0-4.933,0-7.412,0
												c-0.017,0.108-0.017,0.21-0.034,0.326c0.869,0.199,1.726,0.386,2.595,0.615c-7.306,2.415-14.75,4.413-21.851,7.349
												c-16.351,6.763-32.917,13.246-48.009,22.641c-11.105,6.895-22.635,13.199-32.803,21.487
												c-9.423,7.633-18.917,15.312-27.257,24.184c-4.65,4.965-9.53,9.772-13.932,15.034c-1.35,1.602-2.682,1.836-4.351,0.611
												c-2.562-1.933-5.137-3.846-7.747-5.732c-1.865-1.337-2.175-2.954-1.367-5.075c2.684-7.223,7.498-12.971,12.484-18.641
												c9.51-10.842,20.777-19.712,31.969-28.725c11.072-8.956,23.133-16.353,35.18-23.826
												c15.219-9.442,31.636-16.251,48.193-22.848c23.506-9.384,47.994-14.817,72.801-19.12
												c2.991-0.502,6.074-0.425,8.944-1.564c15.73,1.722,31.454,3.472,47.573,5.263c-4.616,5.528-8.973,10.752-13.289,15.964
												c-2.717-0.057-5.416,0.164-8.114,0.283c-19.028,0.817-37.843,3.33-56.452,7.358
												C262.359,179.034,256.531,180.045,251.001,182.2z"/>
											<path style="fill-rule:evenodd;clip-rule:evenodd;fill:#FFFFFF;" d="M401.79,116.791
												c-9.535-2.528-19.121-4.954-28.855-6.715c-17.164-3.103-34.437-5.001-51.861-5.607
												c-30.791-1.067-61.11,2.067-90.825,10.28c-7.828,2.166-15.666,4.351-23.167,7.412
												c-16.417,6.66-33.097,12.795-48.44,21.816c-12.269,7.226-24.706,14.339-35.707,23.494
												c-8.347,6.952-16.946,13.722-24.226,21.835c-6.813,7.609-13.856,15.074-19.497,23.621
												c-4.789,7.255-9.771,14.412-13.478,22.303c-2.699,5.78-5.693,11.433-7.836,17.462c-0.222,0.615-0.298,1.304-1.1,1.856
												c-0.11-3.33,0.535-6.424,1.1-9.503c1.604-8.763,4.417-17.15,8.012-25.303c4.176-9.485,9.722-18.138,15.546-26.637
												c5.719-8.355,12.566-15.671,19.287-23.149c7.553-8.418,16.52-15.139,25.223-22.209
												c11.469-9.344,24.394-16.304,37.025-23.778c16.359-9.705,33.89-16.632,51.65-23.173
												c21.014-7.733,42.741-11.613,64.935-13.465c21.585-1.808,43.076-0.915,64.428,2.636
												c10.376,1.728,20.482,4.795,29.956,9.268c8.818,4.162,17.81,8.206,25.325,14.64c0.977,0.815,2.356,1.394,2.479,2.935
												L401.79,116.791z"/>
											<path style="fill-rule:evenodd;clip-rule:evenodd;fill:#FFFFFF;" d="M57.333,313.211
												c-0.941-6.239-0.941-12.362-0.63-18.504c0.946-18.739,6.471-36.125,15.454-52.536
												c5.153-9.391,11.477-17.889,18.127-26.22c6.299-7.879,13.742-14.603,20.914-21.623
												c9.399-9.233,20.061-16.756,30.607-24.532c12.583-9.282,26.479-16.117,40.426-22.938
												c21.277-10.452,43.913-16.791,66.587-23.191c8.66-2.436,17.333-4.161,26.21-5.141c3.542-0.372,7.092-0.427,10.643-0.009
												c1.471,0.171,2.574,0.778,2.744,2.435c0.359,3.438,0.707,6.889,0.416,10.351c-0.182,1.98-1.186,2.958-3.198,3.29
												c-15.178,2.582-30.271,5.631-44.95,10.186c-20.308,6.295-40.791,12.229-59.848,21.877
												c-13.591,6.893-27.005,14.34-39.113,23.702c-9.081,7.002-18.422,13.741-26.649,21.782
												c-7.904,7.728-16.069,15.206-23.152,23.718c-4.541,5.433-9.015,10.961-13.072,16.758
												c-6.467,9.188-10.395,19.648-14.381,30.061c-3.583,9.406-5.203,19.188-6.066,29.167
												C58.354,312.313,58.478,312.895,57.333,313.211z"/>
											<path style="fill-rule:evenodd;clip-rule:evenodd;fill:#FFFFFF;" d="M74.867,193.247
												c3.04-7.98,7.331-15.268,11.584-22.634c5.01-8.7,11.452-16.253,17.951-23.81c4.274-4.976,9.142-9.205,14.11-13.381
												c14.832-12.526,30.762-23.285,47.978-32.383c21-11.114,43.454-17.325,66.575-21.833c3.932-0.776,8.041-0.698,11.85-2.326
												c0.262-0.116,0.724-0.139,0.952-0.003c2.467,1.213,2.067,3.578,2.328,5.721c0.189,1.793-0.822,2.279-2.283,2.702
												c-15.5,4.129-31.092,8.095-46.095,13.835c-16.773,6.441-33.392,13.383-48.743,22.806
												c-11.138,6.833-22.173,13.973-32.172,22.412c-8.479,7.17-17.264,14.134-24.583,22.602
												c-6.164,7.129-12.396,14.279-17.101,22.554C76.508,190.78,76.427,192.454,74.867,193.247z"/>
											<path style="fill-rule:evenodd;clip-rule:evenodd;fill:#FFFFFF;" d="M117.581,129.428
												c10.893-10.628,22.537-20.24,35.622-28.079c0.724-0.437,1.452-0.722,2.057-1.394c0.756-0.857,1.836-1.807,2.969-0.423
												c1.052,1.299,0.728,2.308-0.716,3.27c-9.083,6.145-18.197,12.229-27.146,18.585c-4.099,2.902-7.992,6.073-12.573,8.266
												C117.72,129.573,117.663,129.506,117.581,129.428z"/>
											<path style="fill-rule:evenodd;clip-rule:evenodd;fill:#FFFFFF;" d="M117.793,129.652c-0.3,0.267-0.63,0.44-0.997,0.096
												c0.282-0.11,0.531-0.212,0.785-0.321C117.663,129.506,117.72,129.573,117.793,129.652z"/>
										</g>
									</g>
								</g>
							</g>
						</g>
						<g>
							<path style="fill-rule:evenodd;clip-rule:evenodd;fill:#FFFFFF;" d="M387.799,324.359c1.161,5.169,3.19,9.909,6.652,13.994
								c4.062,4.791,9.291,7.116,15.534,7.21c5.308,0.078,10.595,0.095,15.919,0.142c3.353,4.822,6.446,9.832,9.358,14.969
								c4.861,8.478,5.698,17.585,4.793,26.98c-2.002,20.698-11.263,38.024-24.892,53.418c-7.997,9.029-17.344,16.257-27.408,22.646
								c-1.615,1.023-2.72,2.781-4.746,3.193l0.033,0.038c0.626-1.332,1.722-2.178,2.905-2.991
								c7.008-4.795,13.337-10.356,19.21-16.495c0.558-0.615,1.254-1.146,1.367-2.072c9.152-4.965,13.742-12.881,14.98-22.995
								c0.089-0.66,0.128-1.335,0.178-1.994c5.571-16.211,6.889-32.229-2.568-47.542c-4.82-7.807-10.939-14.292-18.986-18.989
								c-7.42-4.303-15.344-6.863-23.698-8.308c-3.912-0.678-4.287-1.147-4.084-5.2c0.172-4.303,0.833-8.558,1.744-12.768
								c0.658-3.157,1.676-3.96,4.871-3.846C381.91,323.84,384.855,324.123,387.799,324.359z"/>
							<path style="fill-rule:evenodd;clip-rule:evenodd;fill:#FFFFFF;" d="M341.421,408.872c-10.2,3.254-20.444,6.349-30.568,9.849
								c-4.171,1.447-8.382,2.92-12.447,4.697c-7.092,3.123-11.126,9.013-12.9,16.286c-2.751,11.544-0.826,22.225,7.682,30.94
								c5.032,5.131,11.544,6.849,18.456,4.904c10.378-2.926,20.712-6.111,30.904-9.629c4.03-1.4,8.015-2.94,12.114-4.057
								c-12.123,10.616-26.693,15.551-42.322,17.638c-10.418,1.398-20.547-0.173-30.238-4.394
								c-12.313-5.388-16.854-15.925-12.586-28.664c3.774-11.262,11.909-18.771,21.349-25.228
								c12.361-8.464,26.324-11.825,40.966-12.907C335.029,408.072,338.236,408.42,341.421,408.872z"/>
							<path style="fill-rule:evenodd;clip-rule:evenodd;fill:#FFFFFF;" d="M377.991,454.653c4.06-1.253,8.074-2.585,12.134-3.845
								c0.849-0.266,1.686-0.771,2.666-0.392c-3.371,4.396-7.854,7.599-11.87,11.341c-12.721,11.86-28.349,17.57-44.835,21.64
								c-0.774,0.194-1.262,0.299-1.732-0.593C350.924,476.563,366.606,468.919,377.991,454.653z"/>
							<path style="fill-rule:evenodd;clip-rule:evenodd;fill:#FFFFFF;" d="M206.93,415.077c-0.658,0.803-1.665,0.867-2.528,0.878
								c-7.178,0.078-14.385,0.359-21.567-0.122c3.378-10.556,8.745-20.056,15.771-28.617c1.173-1.416,2.642-2.611,3.379-4.353
								c9.579,0.863,19.167,1.741,28.749,2.641c-7.725,6.408-13.657,14.368-19.383,22.491c-1.497,2.106-3.256,4.066-3.895,6.69
								l0.025-0.046C207.311,414.796,207.122,414.951,206.93,415.077z"/>
						</g>
					</g>
				</g>
			</g>
		</g>
		<path style="fill-rule:evenodd;clip-rule:evenodd;fill:#FFFFFF;" d="M470.242,290.42c-6.155,0.549-12.32,0.061-18.473,0.203
			c-1.434,0.044-2.859-0.047-4.284-0.063c-4.336-4.902-8.894-9.581-14.609-12.942c-0.075-8.699-0.313-17.386,0.121-26.085
			c4.817,2.699,9.365,5.779,13.717,9.295C456.769,269.029,464.976,278.517,470.242,290.42z"/>
	</g>
</g>
</svg>
