<?xml version="1.0" encoding="iso-8859-1"?>
<!-- Generator: Adobe Illustrator 16.0.0, SVG Export Plug-In . SVG Version: 6.00 Build 0)  -->
<!DOCTYPE svg PUBLIC "-//W3C//DTD SVG 1.1//EN" "http://www.w3.org/Graphics/SVG/1.1/DTD/svg11.dtd">
<svg version="1.1" id="Capa_1" xmlns="http://www.w3.org/2000/svg" xmlns:xlink="http://www.w3.org/1999/xlink" x="0px" y="0px"
	 width="566.93px" height="566.93px" viewBox="0 0 566.93 566.93" style="enable-background:new 0 0 566.93 566.93;"
	 xml:space="preserve">
<g>
	<path style="fill-rule:evenodd;clip-rule:evenodd;" d="M393.093,485.201c-0.278,0.383-0.617,0.507-1.238,0.143
		c0.545-0.049,0.902-0.066,1.271-0.1L393.093,485.201z"/>
	<g>
		<path style="fill-rule:evenodd;clip-rule:evenodd;" d="M388.234,462.164c-8.176,2.089-16.181,4.787-24.191,7.474
			c-4.247,1.158-8.383,2.756-12.559,4.208c-10.568,3.644-21.281,6.949-32.044,9.981c-7.168,2.018-13.919,0.237-19.137-5.086
			c-8.818-9.035-10.816-20.109-7.962-32.076c1.839-7.543,6.021-13.648,13.375-16.888c4.215-1.841,8.58-3.372,12.905-4.868
			c10.494-3.631,21.117-6.841,31.69-10.214c4.171-1.268,8.324-2.604,12.476-3.876c-0.126-1.072-0.796-1.528-1.274-2.113
			c-7.842-9.659-16.357-18.714-24.254-28.303c-5.811-7.003-11.99-13.678-17.819-20.663c-8.075-9.656-9.574-25.862-3.453-36.868
			c4.955-8.91,15.276-14.153,24.169-12.201c4.439,0.978,7.975,3.521,11.132,6.679c6.683,6.712,12.233,14.362,18.506,21.431
			c3.791,4.252,7.686,8.417,11.256,12.863c7.031,8.732,14.766,16.856,21.882,25.487c6.507,7.93,13.382,15.486,20.041,23.251
			c6.523,7.606,11.213,15.811,10.561,26.27c-0.053,0.682-0.095,1.382-0.183,2.067c-1.284,10.488-6.045,18.692-15.534,23.841
			c-4.461,1.512-8.931,3.011-13.4,4.542c-0.415-0.035-0.704,0.049-0.687,0.57l-0.154,0.098c-1.017-0.393-1.881,0.133-2.764,0.406
			C396.604,459.479,392.441,460.863,388.234,462.164z"/>
		<path style="fill-rule:evenodd;clip-rule:evenodd;" d="M111.865,422.821c-0.271-0.177-1.252,0.05-0.386-0.731
			c4.007-0.051,7.977-0.078,11.998-0.128c5.775,0.128,11.573,0.323,17.361-0.117c7.21,0.341,14.393,0.13,21.628-0.047
			c7.79,0.504,15.614,0.323,23.426,0.112c7.445,0.503,14.917,0.211,22.36,0.129c0.895-0.012,1.937-0.077,2.622-0.909
			c0.326,0,0.546-0.115,0.571-0.457l-0.025,0.051c1.098-0.229,1.645-1.207,2.382-1.908c7.672-7.36,15.362-14.669,22.735-22.324
			c1.718-1.758,3.601-3.356,5.4-5.031c-0.136-0.182-0.28-0.376-0.438-0.587c-1.999-0.131-3.969-0.259-5.945-0.407
			c-9.937-0.929-19.876-1.843-29.807-2.735c-7.304-0.651-14.606-1.319-21.918-1.923c-1.958-0.164-3.936-0.779-5.92-0.111
			c-1.281-0.784-2.73-0.476-4.104-0.601c-4.211-0.441-8.449-0.816-12.663-1.241c6.352-0.748,12.663-0.88,19.006-0.601
			c10.059-0.034,20.127-0.067,30.19-0.067c11.447,0.196,22.896,0.165,34.333-0.065c3.545,0.62,6.671-0.146,8.901-3.109
			c2.002-2.653,4.691-4.659,6.802-7.197l-0.026,0.017c0.585-0.13,0.908-0.535,1.073-1.075h-0.081
			c0.179-0.111,0.331-0.197,0.505-0.273c6.708-6.143,13.329-12.33,19.499-19.04c0.274-0.308,0.666-0.745,0.623-1.072
			c-0.093-0.651-0.773-0.554-1.269-0.619c-7.636-0.85-15.288-1.695-22.942-2.542c-7.137-0.827-14.257-1.742-21.398-2.509
			c-5.131-0.536-10.237-1.463-15.398-1.578c-0.658-0.23-1.568,0.241-2.062-0.7c1.403-0.831,2.841-0.146,4.25-0.197
			c15.225-0.031,30.475-0.049,45.699-0.063c4.347,0.032,8.753-0.324,13.061,0.179c6.611,0.733,11.739-1.354,15.775-6.546
			c1.815-2.296,4.64-3.728,5.832-6.579l-0.033,0.017c0.453,0.081,0.698-0.115,0.829-0.538c2.176-1.972,4.363-3.942,7.121-6.48
			c-0.814,3.941-1.91,6.969-2.365,10.144c-1.561,11.027,1.271,20.829,8.047,29.508c3.283,4.202,7.2,7.883,10.347,12.23
			c1.452,1.971,2.776,4.039,4.277,5.943c1.101,1.367-0.117,1.823-0.798,2.491c-5.539,5.342-11.311,10.486-16.663,16.038
			c-8.264,8.566-17.263,16.383-25.482,24.979c-7.689,8.03-16.124,15.275-23.717,23.355c-5.938,6.285-12.481,11.885-18.346,18.22
			c-4.432,4.462-8.834,8.922-13.252,13.405c-4.385,3.511-8.278,7.519-12.114,11.578c-2.542,2.392-5.476,4.316-7.588,7.132
			c-8.345,5.498-17.038,6.123-25.405,0.682c-5.913-3.845-9.479-9.883-11.641-16.645c-0.247-0.747-0.492-1.501-0.747-2.248
			c-0.302-1.363-0.611-2.718-0.917-4.087c-1.366-13.808,4.589-24.409,14.491-33.349c3.177-2.851,6.043-6.038,9.07-9.037
			c0.925-0.583,1.824-1.17,2.376-2.573c-3.126-0.244-6.021-0.456-8.948-0.7c-6.252-0.584-12.511-1.222-18.794-1.69
			c-3.89-0.294-7.753-1.076-11.714-0.801c-6.904-0.796-13.808-1.612-20.729-2.407c-5.729-0.814-11.48-1.369-17.277-1.565
			C119.676,423.18,115.8,422.776,111.865,422.821z"/>
		<g>
			<path style="fill-rule:evenodd;clip-rule:evenodd;" d="M431.327,163.611c3.91,0.017,7.836,0.098,11.726,0.017
				c2.345-0.052,3.354-1.451,3.063-3.765c1.217-0.761,1.319-2.196,1.997-3.278c0.433-0.757,0.021-1.159-0.678-1.279
				c-3.826-0.638-7.522-1.926-11.452-2.117c-0.076-0.035-0.153-0.081-0.228-0.141c-0.199-0.479-0.59-0.609-1.085-0.545
				c-5.683-1.254-11.417-2.492-17.135-3.761c0.035-0.227,0.069-0.457,0.069-0.668c2.719,0,5.42,0,8.141,0
				c6.967-0.033,13.937-0.048,20.89-0.063c6.372,1.496,10.655-1.614,14.15-6.464c0.391-0.562,1.046-0.904,2.073-1.752
				c-7.443-1.752-14.283-3.37-21.138-4.989c0.014-0.879,0.702-0.605,1.157-0.605c12.537,0.017,25.073,0.034,37.599,0.066
				c6.904,0.017,13.613,1.139,19.33,5.015c9.474,6.416,16.056,15.211,19.438,26.224c0.982,3.122,1.715,6.335,2.563,9.471
				c0,5.274,0,10.538,0,15.787c-1.147,0.855-0.788,2.207-1.026,3.33c-2.834,13.435-8.828,24.753-20.975,32.123
				c-3.235,1.953-6.74,3.233-10.263,4.471c-1.559,0.256-3.159,0.52-4.713,0.765c-3.35,0.017-6.645-0.245-9.974-0.684
				c-1.545-0.481-3.111-0.915-4.651-1.459c-10.953-3.979-18.154-11.829-22.968-22.202c-0.695-1.784-1.416-3.552-2.066-5.35
				c-3.174-9.177-4.075-18.536-2.42-28.145c0.187-1.082,0.856-2.443-1.212-2.753c-4.054-0.588-8.074-1.304-12.121-1.972
				c-6.64-1.904-13.741-1.84-20.157-4.836c1.703-0.245,3.34-0.245,4.984-0.245C419.933,163.743,425.62,163.675,431.327,163.611z"/>
			<path style="fill-rule:evenodd;clip-rule:evenodd;" d="M394.297,278.445c3.602,0.165,3.683,0.1,3.666-3.547
				c-0.027-3.227-0.11-6.5,0.042-9.738c0.088-2.068-0.723-2.899-2.735-3.324c-9.438-2.018-18.853-4.2-28.282-6.333
				c0.817-0.814,1.841-0.439,2.756-0.456c7.624-0.051,15.226-0.081,22.83-0.115c5.421,0.57,5.44,0.502,5.421-4.869
				c-0.031-4.804,0.02-9.624-0.015-14.427c-0.081-8.274,2.264-15.584,7.687-22.003c5.226-6.244,11.728-8.392,19.566-7.237
				c3.533,0.512,6.5,2.403,9.565,4.049c1.046,1.217,2.092,2.493,3.146,3.717c4.452,5.21,6.708,11.269,7.162,18.053
				c-0.009,6.432-0.235,12.88,0.157,19.328c-0.448,9.04-0.204,18.044-0.123,27.065c-0.034,3.827,0,7.639-0.114,11.465
				c-0.043,1.53,0.545,1.954,1.973,1.938c4.425-0.065,8.856,0,13.285,0.017c1.48,0.016,2.956,0.11,4.443,0.064
				c6.38-0.146,12.77,0.358,19.152-0.212c2.654,0.083,5.291,0.295,7.946-0.195c0.562,0.148,1.126,0.261,1.681,0.407
				c3.24,0.39,6.301,1.337,9.178,2.933c7.332,4.153,9.985,10.861,10.604,18.777c0.486,6.265-0.266,12.406-1.918,18.431
				c-1.757,6.416-6.076,10.471-11.957,13.108c-3.939,1.795-8.078,2.834-12.294,3.615c-1.755,0.148-3.516,0.292-5.276,0.438
				c-2.533-0.063-5.097-0.13-7.632-0.176c-4.921,0.079-9.797,0.164-14.708,0.212c-2.899-0.736-5.858-0.212-8.811-0.263
				c-4.248-0.096-8.523,0-12.782,0.032c-5.522-0.047-11-0.064-16.507-0.146c-6.469-0.099-11.895-2.508-16.104-7.477
				c-3.589-4.235-5.69-9.149-6.896-14.509c-0.62-4.104-0.535-8.204-0.35-12.326c0.091-2.182-0.66-2.751-2.778-2.896
				c-17.529-1.225-35.109-2.216-52.596-3.993c-9.805-0.99-19.606-1.739-29.439-2.459c-6.159-0.422-12.332-0.583-18.992-1.578
				c1.564-0.913,2.64-0.619,3.648-0.635c9.949-0.261,19.898,0.471,29.839-0.323c0.543,1.072,1.562,0.548,2.299,0.548
				c17.709,0.02,35.409,0.02,53.109,0c0.772,0,1.553-0.16,2.314-0.209c3.521,0,6.998-0.046,10.519,0
				c1.289,0.031,1.904-0.245,1.876-1.729c-0.085-4.104-0.035-8.205-0.02-12.323c0.02-1.58-0.603-2.281-2.239-2.606
				c-5.794-1.076-11.703-1.45-17.494-2.835c-6.516-1.543-13.306-1.938-19.991-2.831c-4.617-0.638-9.253-1.241-13.886-1.844
				c0.018-0.211,0.018-0.389,0.052-0.586C360.954,278.445,377.63,278.445,394.297,278.445z"/>
			<path style="fill-rule:evenodd;clip-rule:evenodd;" d="M340.245,255.944c-1.918,1.871-3.63,4.004-5.76,5.599
				c-7.133,5.356-16.69,5.639-24.459,0.914c-0.958-0.568-1.918-1.22-2.858-1.841c0.22-0.894-0.605-1.171-1.086-1.612
				c-2.189-2.035-4.017-4.314-5.494-6.905c-2.809-4.967-3.988-10.354-4.303-15.958c-0.018-4.3,0.663-8.506,1.549-12.716
				c0.241-1.143,0.25-1.697-1.192-1.776c-6.175-0.35-12.374-0.829-18.536-1.261c-8.003-0.545-16.017-1.036-24.016-1.637
				c-13.672-1.02-27.326-2.068-40.99-3.134c-8.426-0.712-16.848-1.452-25.284-2.191c-0.034-0.009-0.06-0.157-0.169-0.38
				c0.627-0.937,1.665-0.49,2.501-0.49c8.643-0.026,17.294,0,25.979,0.022c1.211,0,2.452,0.083,3.591-0.438
				c0.345,0.064,0.683,0.18,1.022,0.18c12.349,0,24.688-0.02,37.03,0c1.352,0,2.594-0.356,3.863-0.75
				c14.678-4.462,29.521-8.258,44.668-10.765c2.654-0.429,5.894-0.138,7.828-1.579c3.925-2.865,6.84-6.954,9.482-11.316
				c-6.2-0.622-12.007-1.24-17.829-1.817c-18.063-2.01-36.129-4.007-54.246-5.438c-0.9-0.237-1.792-0.432-2.69-0.638
				c0.016-0.12,0.016-0.226,0.034-0.338c2.57,0,5.115,0,7.684,0c24.079,0.021,48.163,0.029,72.254,0.089
				c1.335,0,2.408-0.458,3.258-1.459c3.049-3.719,6.123-7.417,9.185-11.131c4.477-5.404,8.993-10.819,13.776-16.551
				c-16.712-1.857-33.018-3.673-49.309-5.457c-3.65-0.432-7.26-0.855-10.887-1.304c0.008-0.155,0.008-0.3,0.025-0.479
				c0.86,0,1.742,0,2.622,0c24.621,0,49.249,0.03,73.864-0.083c4.714-0.011,8.681,1.758,12.59,3.99
				c0.081,0.311,0.306,0.384,0.574,0.311h-0.021c3.04,2.477,5.635,5.405,8.204,8.36c5.458,6.221,10.1,13.088,15.763,19.113
				c7.965,9.443,15.399,19.296,23.906,28.675c-1.628,0.3-2.521-0.39-3.464-0.749c-4.984-1.826-9.954-1.868-14.904-0.022
				c-10.398,3.922-15.646,12.132-18.468,22.285c-1.584,5.747-1.041,11.654-1.153,17.519c-0.016,0.702,0.408,1.532-0.373,2.151
				c-0.414-0.426-0.807-0.768-1.175-1.123c-3.193-3.993-6.318-7.98-9.513-11.973c-3.54-4.296-7.132-8.597-10.622-12.959
				c-0.813-1-1.247-0.846-1.987,0.016c-3.072,3.795-6.212,7.573-9.339,11.343C354.338,238.795,347.283,247.361,340.245,255.944z"/>
		</g>
	</g>
	<path style="fill-rule:evenodd;clip-rule:evenodd;" d="M393.436,474.87c-0.283,0.391-0.63,0.517-1.266,0.145
		c0.558-0.049,0.923-0.069,1.3-0.102L393.436,474.87z"/>
	<path style="fill-rule:evenodd;clip-rule:evenodd;" d="M403.729,457.672c-0.018-0.521,0.271-0.605,0.687-0.57
		C404.347,457.474,404.126,457.654,403.729,457.672z"/>
	<path style="fill-rule:evenodd;clip-rule:evenodd;" d="M304.313,329.693c-0.131,0.423-0.376,0.619-0.829,0.538
		C303.629,329.857,303.893,329.676,304.313,329.693z"/>
	<path style="fill-rule:evenodd;clip-rule:evenodd;" d="M260.349,372.831c-0.187-0.882,0.62-0.831,1.073-1.075
		C261.257,372.296,260.934,372.701,260.349,372.831z"/>
	<path style="fill-rule:evenodd;clip-rule:evenodd;" d="M261.342,371.756c0.179-0.111,0.331-0.197,0.505-0.273
		C261.672,371.559,261.521,371.645,261.342,371.756z"/>
	<path style="fill-rule:evenodd;clip-rule:evenodd;" d="M210.874,421.13c0.198-0.133,0.394-0.293,0.571-0.457
		C211.42,421.015,211.2,421.13,210.874,421.13z"/>
	<g>
		<path style="fill-rule:evenodd;clip-rule:evenodd;fill:#FFFFFF;" d="M383.321,231.839c3.194,3.992,6.319,7.98,9.533,11.973
			c-0.658,3.71-0.127,7.425-0.281,11.121c-7.604,0.034-15.206,0.064-22.83,0.115c-0.915,0.017-1.938-0.358-2.756,0.456
			c-8.909-0.197-17.827-0.098-26.742,0.44c7.038-8.583,14.093-17.148,21.128-25.705c1.663,0.089,3.319,0.159,4.962,0.299
			C371.999,230.961,377.666,231.419,383.321,231.839z"/>
		<g>
			<path style="fill-rule:evenodd;clip-rule:evenodd;fill:#FFFFFF;" d="M175.068,475.939c0.306,1.369,0.615,2.724,0.917,4.087
				c-6.522-3.223-12.349-7.519-18.014-12c-9.711-7.667-13.78-18.448-16.039-30.124c-0.786-4.139-1.112-8.304-1.112-12.521
				c6.921,0.795,13.825,1.611,20.729,2.407c-0.626,5.747-0.814,11.466-0.153,17.246
				C162.804,456.759,167.592,466.921,175.068,475.939z"/>
			<g>
				<path style="fill-rule:evenodd;clip-rule:evenodd;fill:#FFFFFF;" d="M123.476,421.962c-4.021,0.05-7.991,0.077-11.998,0.128
					c-0.441-5.131-1.421-10.194-1.744-15.374c-1.157-17.651,0.586-34.767,8.584-50.886c1.645-3.322,3.596-6.398,5.81-9.314
					c1.272-1.694,2.625-1.726,4.232-0.486c2.935,2.229,5.98,4.312,8.868,6.561c2.456,1.855,2.497,2.786,1.131,5.585
					c-9.736,19.687-14.979,40.451-14.996,62.481C123.365,421.078,123.412,421.504,123.476,421.962z"/>
				<path style="fill-rule:evenodd;clip-rule:evenodd;fill:#FFFFFF;" d="M459.502,349.432c4.911-0.048,9.787-0.133,14.708-0.212
					c0.78,18.007-2.429,35.173-10.916,51.231c-1.841,3.483-3.708,6.921-5.896,10.177c-0.37,0.567-0.795,1.496-1.543,1.057
					c-0.945-0.554,0.051-1.207,0.307-1.742c5.59-12.245,9.201-24.914,8.273-38.578C463.905,363.81,462.085,356.544,459.502,349.432z
					"/>
				<path style="fill-rule:evenodd;clip-rule:evenodd;fill:#FFFFFF;" d="M111.865,422.821c3.936-0.045,7.811,0.358,11.678,0.995
					c0.504,8.58,3.876,16.236,7.63,23.807c3.54,7.116,8.197,13.432,13.181,19.541c0.261,0.291,0.457,0.669,0.767,1.127
					C132.415,465.616,114.277,440.672,111.865,422.821z"/>
				<path style="fill-rule:evenodd;clip-rule:evenodd;fill:#FFFFFF;" d="M481.842,349.396c1.761-0.146,3.521-0.29,5.276-0.438
					c-2.148,7.736-4.461,15.376-7.643,22.732C480.214,364.249,481.991,356.905,481.842,349.396z"/>
				<g>
					<path style="fill-rule:evenodd;clip-rule:evenodd;fill:#FFFFFF;" d="M303.517,330.215c-1.192,2.852-4.017,4.283-5.832,6.579
						c-4.036,5.192-9.164,7.279-15.775,6.546c-4.308-0.503-8.714-0.146-13.061-0.179c8.753-3.958,17.736-7.407,26.899-10.228
						C298.385,332.117,300.588,330.168,303.517,330.215z"/>
					<path style="fill-rule:evenodd;clip-rule:evenodd;fill:#FFFFFF;" d="M210.338,383.187c4.72-4.234,8.957-9.007,14.066-12.846
						c6.582-4.952,13.405-9.51,20.212-14.119c4.283-2.884,8.921-5.081,13.142-8.013c7.654,0.847,15.306,1.692,22.942,2.542
						c0.496,0.065,1.176-0.032,1.269,0.619c0.043,0.327-0.349,0.765-0.623,1.072c-6.17,6.71-12.791,12.897-19.499,19.04
						c-0.175,0.076-0.327,0.162-0.505,0.273h0.081c-0.454,0.244-1.26,0.193-1.073,1.075l0.026-0.017
						c-0.662-0.392-1.17,0.081-1.67,0.358c-5.122,2.703-9.53,6.413-14.033,9.948C233.234,383.352,221.785,383.383,210.338,383.187z"
						/>
					<g>
						<g>
							<path style="fill-rule:evenodd;clip-rule:evenodd;fill:#FFFFFF;" d="M296.285,236.14c0.314,5.605,1.494,10.992,4.303,15.958
								c1.478,2.591,3.305,4.87,5.494,6.905c0.48,0.441,1.306,0.718,1.086,1.612c-24.015,4.071-47.031,11.417-68.773,22.326
								c-14.049,7.033-27.977,14.479-41.011,23.401c-9.109,6.22-17.968,12.748-26.895,19.216c-4.037,2.93-4.471,2.946-7.727-0.83
								c-2.727-3.161-5.38-6.452-8.213-9.545c-1.772-1.953-1.336-3.223,0.326-5.062c8.448-9.401,18.744-16.531,28.773-24.021
								c13.253-9.916,27.92-17.328,42.518-24.917c21.234-11.023,43.756-18.12,66.899-23.658
								C294.181,237.266,295.556,237.414,296.285,236.14z"/>
							<path style="fill-rule:evenodd;clip-rule:evenodd;fill:#FFFFFF;" d="M305.784,186.091c5.822,0.577,11.629,1.195,17.829,1.817
								c-2.643,4.362-5.558,8.451-9.482,11.316c-1.935,1.44-5.174,1.149-7.828,1.579c-15.147,2.507-29.99,6.302-44.668,10.765
								c-1.269,0.393-2.511,0.75-3.863,0.75c-12.342-0.02-24.681,0-37.03,0c-0.34,0-0.678-0.116-1.022-0.18
								c6.951-3.813,14.33-6.563,21.704-9.364c14.584-5.585,29.656-9.524,44.896-12.938
								C292.773,188.387,299.332,187.542,305.784,186.091z"/>
							<path style="fill-rule:evenodd;clip-rule:evenodd;fill:#FFFFFF;" d="M213.1,215.615c13.665,1.066,27.318,2.114,40.99,3.134
								c7.999,0.602,16.013,1.092,24.016,1.637c-15.364,4.175-30.639,8.623-45.346,14.729c-6.824,2.851-13.665,5.716-20.331,8.875
								c-2.264,1.076-3.541,0.62-4.549-1.611c-2.447-5.39-4.95-10.799-7.552-16.155c-0.85-1.775-0.484-2.965,1.169-3.908
								C205.373,220.084,209.232,217.852,213.1,215.615z"/>
							<path style="fill-rule:evenodd;clip-rule:evenodd;fill:#FFFFFF;" d="M213.777,498.237c2.112-2.815,5.046-4.74,7.588-7.132
								c4.964,3.755,9.922,7.699,15.761,10.015c6.739,2.638,13.723,4.642,20.882,5.905c10.733,1.923,21.576,2.771,33.195,2.771
								c-4.451,1.318-8.353,1.56-12.229,1.713c-14.525,0.569-29.066,0.794-43.188-3.519
								C228.039,505.611,220.605,502.613,213.777,498.237z"/>
							<g>
								<g>
									<path style="fill-rule:evenodd;clip-rule:evenodd;fill:#FFFFFF;" d="M394.297,278.445c-16.667,0-33.343,0-50.022,0
										c-0.034,0.198-0.034,0.375-0.052,0.586c4.633,0.604,9.269,1.207,13.886,1.844c6.686,0.893,13.476,1.287,19.991,2.831
										c5.791,1.385,11.7,1.759,17.494,2.835c1.637,0.325,2.259,1.026,2.239,2.606c-0.016,4.118-0.065,8.22,0.02,12.323
										c0.028,1.483-0.587,1.76-1.876,1.729c-3.521-0.046-6.997,0-10.519,0c-6.3-1.499-12.778-1.808-19.235-2.168
										c-12.878-0.683-25.703,0.183-38.487,1.829c-9.94,0.794-19.89,0.063-29.839,0.323c-1.009,0.016-2.084-0.278-3.648,0.635
										c6.66,0.995,12.833,1.156,18.992,1.578c-17.027,4.755-34.428,8.291-50.795,15.291c-6.515,2.787-13.156,5.425-19.181,9.09
										c-6.399,3.92-12.913,7.62-18.937,12.096c-0.457,0.343-0.792,0.882-1.178,1.352c-1.408,0.052-2.846-0.634-4.25,0.197
										c0.493,0.941,1.403,0.47,2.062,0.7c-7.976,6.644-16.029,13.225-23.859,19.999c-6.505,5.598-12.509,11.674-16.954,19.133
										c-6.343-0.279-12.655-0.147-19.006,0.601c4.214,0.425,8.452,0.8,12.663,1.241c1.374,0.125,2.823-0.184,4.104,0.601
										c-2.316,3.905-4.812,7.721-6.861,11.788c-3.943,7.702-6.565,15.925-8.583,24.313c-7.235,0.177-14.418,0.388-21.628,0.047
										c0.535-14.738,4.375-28.428,12.213-41.065c4.631-7.495,10.08-14.269,15.598-21.057
										c7.836-9.593,16.649-18.189,25.848-26.463c10.19-9.166,22.082-15.634,33.706-22.601
										c18.951-11.4,39.462-19.055,60.306-26.072c25.648-8.647,51.94-10.78,78.722-9.299
										C376.319,275.792,385.361,276.705,394.297,278.445z"/>
									<path style="fill-rule:evenodd;clip-rule:evenodd;fill:#FFFFFF;" d="M493.506,292.093
										c-0.555-0.146-1.119-0.259-1.681-0.407c-1.336-3.956-2.511-7.993-4.036-11.901c-2.604-6.726-6.411-12.801-10.348-18.793
										c-8.201-12.54-19.682-21.299-32.336-28.775c-0.454-6.784-2.71-12.843-7.162-18.053c-1.054-1.225-2.1-2.5-3.146-3.734
										c-0.03-2.003-0.138-4.006-0.03-6.027c0.152-2.8,0.991-3.288,3.467-2.05c3.037,1.523,6.01,3.167,9.004,4.754
										c4.813,10.373,12.015,18.223,22.968,22.202c1.54,0.544,3.106,0.979,4.651,1.459c5.715,8.418,11.251,16.935,14.476,26.657
										C493.091,268.677,494.676,280.225,493.506,292.093z"/>
									<path style="fill-rule:evenodd;clip-rule:evenodd;fill:#FFFFFF;" d="M446.635,148.012
										c-6.953,0.015-13.923,0.031-20.89,0.063c-1.224-1.042-2.746-1.541-4.183-2.166c-15.688-6.968-32.303-10.708-48.921-14.543
										c-4.837-1.104-5.015-1.129-4.984-6.235c0-2.524,0.05-5.08,0.016-7.613c-0.016-2.028,0.973-3.265,3.001-3.182
										c8.45,0.391,16.809,1.221,24.92,4.122c4.763,1.709,9.705,3.007,14.422,4.898c10.642,4.339,20.226,10.519,29.147,17.603
										C441.786,143.037,444.944,144.835,446.635,148.012z"/>
								</g>
								<path style="fill-rule:evenodd;clip-rule:evenodd;fill:#FFFFFF;" d="M74.249,379.084
									c-6.632-9.202-9.359-19.036-10.585-29.442c-1.039-8.81-0.818-17.652,0.052-26.478c0.299-3.321,0.547-3.485,3.9-3.097
									c1.993,0.262,3.987,0.522,5.997,0.668c1.366,0.102,1.841,0.62,1.484,2.02c-2.362,9.362-3.291,18.974-3.944,28.596
									c-0.585,8.598,0.365,17.099,2.58,25.486C73.841,377.343,73.947,377.828,74.249,379.084z"/>
								<path style="fill-rule:evenodd;clip-rule:evenodd;fill:#FFFFFF;" d="M484.831,231.452c1.554-0.245,3.154-0.508,4.713-0.765
									c0.297,2.44,0.705,4.869,0.933,7.294c0.188,2.05,2.037,4.151-0.102,6.334C488.957,239.819,487.424,235.392,484.831,231.452z
									"/>
							</g>
							<g>
								<path style="fill-rule:evenodd;clip-rule:evenodd;fill:#FFFFFF;" d="M101.241,423.816
									c-2.548-3.974-5.076-7.671-7.348-11.497c-9.127-15.39-14.64-31.756-13.669-49.926c0.53-9.757,3.156-18.938,6.752-27.961
									c7.142-17.83,16.374-34.393,28.473-49.407c6.432-7.979,13.696-14.932,21.529-21.412c5.357-4.397,10.924-8.405,17.15-11.516
									c2.348-1.189,3.596-0.616,4.58,1.516c2.315,4.937,4.597,9.818,6.913,14.737c0.717,1.531,0.309,2.721-0.935,3.73
									c-1.556,1.253-3.201,2.423-4.732,3.745c-10.932,9.312-21.513,19.068-30.745,30.078
									c-6.098,7.327-12.043,14.832-17.008,22.992c-11.736,19.313-18.428,39.978-16.892,62.906
									c0.665,9.916,2.375,19.622,5.665,29.035C101.285,421.718,101.886,422.595,101.241,423.816z"/>
								<path style="fill-rule:evenodd;clip-rule:evenodd;fill:#FFFFFF;" d="M233.48,479.527c4.418-4.483,8.821-8.943,13.252-13.405
									c3.015,14.508,12.37,23.795,24.817,30.791c3.27,1.827,6.531,3.405,10.155,4.3c0.424,0.104,0.842,0.245,0.984,1.095
									c-7.875-1.356-15.779-1.679-23.09-5.194c-5.093-2.413-10.182-4.656-14.852-7.815
									C240.614,486.48,236.652,483.436,233.48,479.527z"/>
								<g>
									<path style="fill-rule:evenodd;clip-rule:evenodd;fill:#FFFFFF;" d="M408.465,175.077
										c-5.663-6.025-10.305-12.892-15.763-19.113c-2.569-2.955-5.164-5.883-8.204-8.36c10.398,1.517,20.401,4.608,30.349,7.899
										c4.889,1.645,9.549,3.833,14.178,6.113c0.954,0.465,1.913,0.887,2.303,1.995c-5.707,0.063-11.395,0.132-17.081,0.194
										c-1.645,0-3.281,0-4.984,0.245c6.416,2.996,13.518,2.932,20.15,4.836c-0.561,2.916-1.613,5.661-2.698,8.418
										c-0.697,1.745-1.702,2.251-3.639,1.67C418.232,177.551,413.468,175.905,408.465,175.077z"/>
									<g>
										<g>
											<path style="fill-rule:evenodd;clip-rule:evenodd;fill:#FFFFFF;" d="M292.416,58.725c3.14,1.066,6.491,0.837,9.679,1.629
												c1.485,0.357,2.993,0.619,4.468,1.163c-8.759,0.112-17.47,0.708-26.138,1.329c-17.116,1.285-34.358,2.272-50.888,7.173
												c-10.878,3.232-21.949,5.74-32.729,9.386c-1.062,0.39-1.91,0.685-2.511-0.765c-0.602-1.408,0.395-1.709,1.238-2.087
												c1.807-0.891,3.63-1.724,5.471-2.57c17.242-8.085,35.723-11.284,54.391-13.744c3.744-0.48,7.604-0.274,11.246-1.514
												C275.23,58.725,283.816,58.725,292.416,58.725z"/>
										</g>
										<path style="fill-rule:evenodd;clip-rule:evenodd;fill:#FFFFFF;" d="M394.138,93.98
											c-3.958-1.596-7.588-3.053-11.214-4.512c-21.373-8.696-43.653-13.401-66.642-14.761
											c-4.392-0.251-8.767-0.049-13.148,0.218c-1.217,0.093-2.733,0.229-3.125-1.242c-0.484-1.929-0.628-4.031,0.295-5.873
											c0.37-0.741,1.417-0.536,2.212-0.578c12.659-0.398,25.261,0.332,37.614,3.104c19.199,4.251,37.205,11.621,53.454,22.892
											C393.701,93.33,393.778,93.507,394.138,93.98z"/>
										<g>
											<path style="fill-rule:evenodd;clip-rule:evenodd;fill:#FFFFFF;" d="M256.566,179.678c-2.569,0-5.114,0-7.684,0
												c-0.018,0.112-0.018,0.218-0.034,0.338c0.898,0.206,1.79,0.401,2.69,0.638c-7.576,2.504-15.292,4.575-22.655,7.619
												c-16.955,7.012-34.129,13.735-49.778,23.475c-11.514,7.148-23.468,13.685-34.01,22.277
												c-9.771,7.915-19.615,15.874-28.26,25.075c-4.822,5.148-9.882,10.13-14.444,15.586c-1.399,1.662-2.782,1.905-4.512,0.635
												c-2.655-2.004-5.327-3.989-8.032-5.943c-1.935-1.385-2.256-3.063-1.417-5.26c2.782-7.49,7.773-13.451,12.942-19.328
												c9.859-11.241,21.543-20.438,33.146-29.782c11.479-9.286,23.985-16.956,36.475-24.703
												c15.779-9.791,32.802-16.851,49.968-23.689c24.372-9.73,49.761-15.365,75.48-19.826c3.103-0.521,6.299-0.44,9.275-1.621
												c16.305,1.784,32.61,3.599,49.322,5.457c-4.783,5.732-9.3,11.147-13.776,16.551c-2.815-0.059-5.614,0.17-8.415,0.292
												c-19.727,0.848-39.233,3.453-58.529,7.63C268.344,176.396,262.301,177.445,256.566,179.678z"/>
											<path style="fill-rule:evenodd;clip-rule:evenodd;fill:#FFFFFF;" d="M412.906,111.86
												c-9.887-2.622-19.822-5.136-29.916-6.962c-17.797-3.216-35.707-5.186-53.771-5.814
												c-31.925-1.107-63.361,2.145-94.17,10.66c-8.118,2.245-16.242,4.509-24.02,7.684
												c-17.022,6.905-34.316,13.265-50.223,22.619c-12.723,7.492-25.619,14.868-37.022,24.359
												c-8.655,7.209-17.57,14.228-25.118,22.64c-7.064,7.889-14.368,15.628-20.215,24.49
												c-4.966,7.522-10.132,14.941-13.974,23.125c-2.799,5.992-5.902,11.853-8.126,18.105
												c-0.228,0.636-0.309,1.352-1.139,1.924c-0.114-3.452,0.554-6.66,1.139-9.853c1.664-9.086,4.582-17.782,8.309-26.236
												c4.331-9.834,10.08-18.807,16.119-27.618c5.929-8.663,13.029-16.249,19.996-24.001
												c7.833-8.729,17.129-15.696,26.153-23.026c11.892-9.688,25.292-16.905,38.388-24.654
												c16.962-10.063,35.138-17.245,53.552-24.025c21.788-8.02,44.315-12.041,67.325-13.961
												c22.383-1.877,44.663-0.951,66.805,2.731c10.755,1.791,21.232,4.972,31.054,9.609c9.145,4.314,18.465,8.508,26.26,15.178
												c1.01,0.846,2.441,1.445,2.57,3.042L412.906,111.86z"/>
											<path style="fill-rule:evenodd;clip-rule:evenodd;fill:#FFFFFF;" d="M55.767,315.512
												c-0.976-6.471-0.976-12.817-0.653-19.185c0.98-19.427,6.709-37.454,16.022-54.47c5.343-9.736,11.9-18.548,18.795-27.186
												c6.532-8.167,14.249-15.139,21.683-22.418c9.746-9.572,20.801-17.373,31.733-25.434
												c13.049-9.625,27.455-16.711,41.917-23.783c22.06-10.837,45.528-17.41,69.038-24.045
												c8.978-2.525,17.973-4.314,27.174-5.33c3.671-0.386,7.353-0.443,11.034-0.01c1.526,0.178,2.668,0.808,2.846,2.526
												c0.373,3.564,0.733,7.139,0.433,10.73c-0.189,2.053-1.23,3.065-3.314,3.413c-15.739,2.675-31.388,5.836-46.607,10.559
												c-21.055,6.527-42.292,12.679-62.051,22.683c-14.091,7.149-28.001,14.868-40.553,24.575
												c-9.416,7.26-19.101,14.247-27.629,22.585c-8.198,8.012-16.662,15.765-24.007,24.59
												c-4.707,5.633-9.346,11.364-13.553,17.375c-6.705,9.528-10.776,20.372-14.911,31.167
												c-3.713,9.753-5.394,19.896-6.29,30.239C56.828,314.581,56.956,315.184,55.767,315.512z"/>
											<path style="fill-rule:evenodd;clip-rule:evenodd;fill:#FFFFFF;" d="M73.947,191.131
												c3.152-8.274,7.6-15.829,12.01-23.466c5.194-9.02,11.875-16.853,18.614-24.688c4.431-5.159,9.478-9.544,14.63-13.873
												c15.377-12.989,31.895-24.143,49.744-33.577c21.772-11.522,45.053-17.962,69.026-22.637
												c4.076-0.804,8.336-0.723,12.286-2.413c0.272-0.12,0.75-0.143,0.988-0.004c2.557,1.26,2.143,3.712,2.415,5.934
												c0.194,1.86-0.854,2.362-2.368,2.8c-16.071,4.282-32.237,8.394-47.793,14.346c-17.392,6.678-34.622,13.876-50.537,23.646
												c-11.548,7.083-22.989,14.487-33.357,23.237c-8.792,7.433-17.901,14.653-25.487,23.432
												c-6.391,7.395-12.854,14.807-17.731,23.386C75.648,188.574,75.563,190.31,73.947,191.131z"/>
											<path style="fill-rule:evenodd;clip-rule:evenodd;fill:#FFFFFF;" d="M118.235,124.962
												c11.292-11.019,23.366-20.984,36.931-29.112c0.75-0.454,1.506-0.749,2.133-1.447c0.785-0.888,1.904-1.872,3.079-0.438
												c1.089,1.347,0.756,2.394-0.743,3.391c-9.417,6.369-18.867,12.679-28.146,19.269c-4.249,3.008-8.285,6.297-13.035,8.57
												C118.378,125.113,118.319,125.044,118.235,124.962z"/>
											<path style="fill-rule:evenodd;clip-rule:evenodd;fill:#FFFFFF;" d="M118.455,125.196
												c-0.31,0.276-0.654,0.456-1.034,0.099c0.292-0.114,0.551-0.219,0.814-0.333
												C118.319,125.044,118.378,125.113,118.455,125.196z"/>
										</g>
									</g>
								</g>
							</g>
						</g>
						<g>
							<path style="fill-rule:evenodd;clip-rule:evenodd;fill:#FFFFFF;" d="M398.403,327.07c1.205,5.359,3.307,10.273,6.896,14.509
								c4.209,4.969,9.635,7.378,16.104,7.477c5.507,0.081,10.984,0.099,16.507,0.146c3.477,5,6.684,10.197,9.702,15.522
								c5.038,8.791,5.908,18.235,4.971,27.975c-2.079,21.46-11.679,39.421-25.807,55.382c-8.294,9.361-17.981,16.854-28.419,23.482
								c-1.674,1.061-2.821,2.884-4.921,3.308l0.034,0.043c0.647-1.383,1.787-2.26,3.012-3.104
								c7.266-4.969,13.829-10.734,19.919-17.101c0.578-0.637,1.297-1.188,1.416-2.148c9.489-5.148,14.25-13.353,15.534-23.841
								c0.088-0.686,0.13-1.386,0.183-2.067c5.775-16.81,7.141-33.419-2.664-49.293c-4.995-8.093-11.34-14.817-19.686-19.689
								c-7.694-4.461-15.908-7.115-24.569-8.613c-4.056-0.702-4.447-1.188-4.233-5.393c0.178-4.46,0.861-8.871,1.805-13.236
								c0.684-3.272,1.739-4.104,5.052-3.988C392.295,326.534,395.349,326.825,398.403,327.07z"/>
							<path style="fill-rule:evenodd;clip-rule:evenodd;fill:#FFFFFF;" d="M350.313,414.695
								c-10.573,3.373-21.196,6.583-31.69,10.214c-4.325,1.496-8.69,3.027-12.905,4.868c-7.354,3.239-11.536,9.345-13.375,16.888
								c-2.854,11.967-0.856,23.041,7.962,32.076c5.218,5.323,11.969,7.104,19.137,5.086c10.763-3.032,21.476-6.338,32.044-9.981
								c4.176-1.452,8.312-3.05,12.559-4.208c-12.567,11.009-27.675,16.124-43.882,18.289c-10.8,1.447-21.301-0.182-31.351-4.557
								c-12.765-5.586-17.474-16.512-13.05-29.72c3.914-11.675,12.35-19.463,22.136-26.154
								c12.814-8.775,27.294-12.263,42.473-13.384C343.688,413.864,347.014,414.228,350.313,414.695z"/>
							<path style="fill-rule:evenodd;clip-rule:evenodd;fill:#FFFFFF;" d="M388.234,462.164c4.207-1.301,8.369-2.685,12.577-3.988
								c0.883-0.273,1.747-0.799,2.764-0.406c-3.493,4.559-8.143,7.881-12.307,11.758c-13.187,12.298-29.393,18.218-46.486,22.438
								c-0.801,0.199-1.307,0.309-1.794-0.615C360.166,484.878,376.427,476.952,388.234,462.164z"/>
							<path style="fill-rule:evenodd;clip-rule:evenodd;fill:#FFFFFF;" d="M210.874,421.13c-0.685,0.832-1.727,0.897-2.622,0.909
								c-7.443,0.082-14.915,0.374-22.36-0.129c3.502-10.939,9.065-20.793,16.352-29.668c1.216-1.467,2.739-2.705,3.504-4.512
								c9.931,0.893,19.871,1.807,29.807,2.735c-8.011,6.645-14.161,14.9-20.097,23.318c-1.552,2.185-3.376,4.222-4.038,6.939
								l0.025-0.051C211.268,420.837,211.072,420.997,210.874,421.13z"/>
						</g>
					</g>
				</g>
			</g>
		</g>
		<path style="fill-rule:evenodd;clip-rule:evenodd;fill:#FFFFFF;" d="M483.879,291.881c-6.383,0.57-12.772,0.065-19.152,0.212
			c-1.487,0.046-2.963-0.049-4.443-0.064c-4.497-5.081-9.219-9.936-15.144-13.419c-0.081-9.021-0.325-18.026,0.123-27.045
			c4.995,2.798,9.713,5.992,14.224,9.637C469.909,269.703,478.417,279.54,483.879,291.881z"/>
	</g>
</g>
</svg>
