<?xml version="1.0" encoding="iso-8859-1"?>
<!-- Generator: Adobe Illustrator 16.0.0, SVG Export Plug-In . SVG Version: 6.00 Build 0)  -->
<!DOCTYPE svg PUBLIC "-//W3C//DTD SVG 1.1//EN" "http://www.w3.org/Graphics/SVG/1.1/DTD/svg11.dtd">
<svg version="1.1" id="Capa_1" xmlns="http://www.w3.org/2000/svg" xmlns:xlink="http://www.w3.org/1999/xlink" x="0px" y="0px"
	 width="566.93px" height="566.93px" viewBox="0 0 566.93 566.93" style="enable-background:new 0 0 566.93 566.93;"
	 xml:space="preserve">
<path style="fill-rule:evenodd;clip-rule:evenodd;" d="M331.524,367.47c-0.189,0.261-0.42,0.346-0.844,0.097
	c0.372-0.033,0.615-0.045,0.866-0.067L331.524,367.47z"/>
<g>
	<g>
		<path d="M72.422,429.479l-3.138,14.719H49.355l-2.129,9.9l-3.159,14.726H29.149l13.719-63.958h14.927l-3.158,14.726l-2.132,9.888
			H72.422z M83.451,424.529H68.533l1.115-4.938H59.633l3.161-14.726h24.917L83.451,424.529z"/>
		<path d="M120.134,454.098l-2.971-31.034l-24.081,45.76H80.016h-2.502l33.623-63.958h19.938l6.19,63.958H117.36H98.375
			l7.678-14.726H120.134z"/>
		<path d="M196.383,444.197l-3.24,14.737c-0.251,1.34-0.777,2.598-1.578,3.808c-0.809,1.186-1.742,2.242-2.823,3.15
			c-1.081,0.91-2.271,1.617-3.566,2.138c-1.3,0.538-2.618,0.793-3.984,0.793h-5.001h-24.926c-1.363,0-2.594-0.255-3.698-0.793
			c-1.121-0.521-2.051-1.228-2.791-2.138c-0.743-0.908-1.231-1.965-1.485-3.15c-0.243-1.21-0.243-2.468,0-3.808l2.132-9.783h15.008
			l-1.017,4.946h19.926l1.021-4.915l1.104-4.985h-15.005h-4.906h-5.007c-1.361,0-2.591-0.254-3.702-0.773
			c-1.121-0.509-2.046-1.211-2.785-2.1c-0.743-0.874-1.231-1.916-1.485-3.116c-0.246-1.176-0.208-2.484,0.098-3.892l4.172-19.676
			c0.312-1.331,0.843-2.608,1.624-3.805c0.771-1.164,1.71-2.22,2.82-3.098c1.104-0.885,2.324-1.587,3.662-2.104
			c1.332-0.503,2.667-0.77,4.022-0.77h5.013l-3.149,14.772l-2.139,9.841h19.926h4.993c1.37,0,2.589,0.255,3.67,0.775
			c1.072,0.495,1.976,1.22,2.676,2.117c0.723,0.921,1.208,1.979,1.488,3.152c0.287,1.188,0.265,2.441-0.046,3.773L196.383,444.197z
			 M202.699,414.641l-2.612,12.35h-14.91l1.563-7.399h-14.999l3.15-14.726h20.003c1.367,0,2.586,0.267,3.676,0.77
			c1.075,0.517,1.974,1.219,2.684,2.104c0.705,0.878,1.208,1.934,1.469,3.098C203.017,412.032,202.99,413.31,202.699,414.641z"/>
		<path d="M253.28,404.865l-3.161,14.726h-14.913l-10.57,49.232h-14.916l10.561-49.232h-15l3.144-14.726h4.999H253.28z"/>
	</g>
	<g>
		<path style="fill:#FFFFFF;" d="M313.45,455.273l-3.143,14.733h-9.908h-15.017h-5.002h-9.912c-2.03,0-3.888-0.398-5.558-1.184
			c-1.662-0.802-3.052-1.865-4.118-3.22c-1.096-1.329-1.809-2.906-2.181-4.717c-0.37-1.796-0.345-3.705,0.105-5.714l10.539-49.128
			h14.928l-10.564,49.229h9.908h5.01l10.567-49.229h14.992l-10.542,49.229H313.45z M338.026,406.045l-13.703,63.962h-9.906h-5.002
			l3.149-14.834l10.558-49.128H338.026z"/>
		<path style="fill:#FFFFFF;" d="M393.084,415.828l-9.542,44.285c-0.243,1.407-0.782,2.692-1.58,3.896
			c-0.795,1.195-1.737,2.23-2.801,3.114c-1.083,0.879-2.288,1.574-3.585,2.098c-1.292,0.521-2.63,0.786-3.982,0.786h-24.922h-5.017
			c-1.34,0-2.565-0.266-3.691-0.786c-1.101-0.523-2.026-1.219-2.731-2.098c-0.708-0.884-1.188-1.919-1.43-3.114
			c-0.253-1.203-0.253-2.488,0-3.896l9.541-44.285c0.295-1.341,0.854-2.605,1.611-3.796c0.774-1.196,1.705-2.237,2.794-3.104
			c1.069-0.901,2.275-1.599,3.607-2.108c1.325-0.513,2.672-0.775,4.036-0.775h4.982l-3.139,14.766l-7.409,34.463h19.909
			l7.426-34.507h-14.919l3.146-14.722h19.926c1.339,0,2.578,0.263,3.642,0.775c1.084,0.51,1.994,1.207,2.696,2.108
			c0.708,0.866,1.198,1.907,1.487,3.104C393.418,413.223,393.407,414.487,393.084,415.828z"/>
		<path style="fill:#FFFFFF;" d="M439.125,450.336l-0.46,2.362l-1.655,7.415l-2.045,9.894h-10.014h-4.995l3.148-14.834l1.027-4.837
			h-14.914l3.239-14.747h14.901l3.162-14.822h-19.927l-3.148,14.746l-3.243,14.823l-1.009,4.837l-3.158,14.834h-14.918
			l13.722-63.962h39.826c1.364,0,2.587,0.263,3.662,0.775c1.088,0.52,1.999,1.218,2.738,2.108c0.745,0.888,1.254,1.931,1.522,3.114
			c0.289,1.203,0.269,2.465-0.046,3.82l-4.164,19.726c-0.372,1.575-0.938,2.939-1.717,4.108c-0.775,1.144-1.895,2.241-3.379,3.249
			c1.046,1.043,1.713,2.142,1.993,3.296C439.563,447.385,439.504,448.758,439.125,450.336z"/>
		<path style="fill:#FFFFFF;" d="M486.198,457.638l-2.599,12.369h-44.833l13.714-63.962h14.91l-11.107,51.593h14.916l2.673-12.25
			h15.01L486.198,457.638z"/>
		<path style="fill:#FFFFFF;" d="M548.822,415.828l-9.541,44.285c-0.253,1.407-0.779,2.692-1.577,3.896
			c-0.81,1.195-1.746,2.23-2.814,3.114c-1.093,0.879-2.289,1.574-3.613,2.098c-1.341,0.521-2.668,0.786-4.035,0.786H502.41h-10.009
			h-4.998l13.708-63.962h5.01h9.992l-3.145,14.722l-7.414,34.507h19.923l7.412-34.507h-15.014l3.158-14.722h19.914
			c1.361,0,2.604,0.263,3.702,0.775c1.115,0.51,2.043,1.207,2.739,2.108c0.698,0.866,1.198,1.907,1.49,3.104
			C549.149,413.223,549.132,414.487,548.822,415.828z"/>
	</g>
	<g>
		<path style="fill-rule:evenodd;clip-rule:evenodd;" d="M328.215,351.772c-5.571,1.424-11.025,3.263-16.483,5.093
			c-2.895,0.789-5.712,1.878-8.558,2.867c-7.201,2.483-14.5,4.735-21.833,6.801c-4.884,1.375-9.484,0.162-13.039-3.465
			c-6.009-6.156-7.371-13.702-5.426-21.856c1.254-5.139,4.104-9.299,9.114-11.507c2.872-1.254,5.846-2.297,8.793-3.317
			c7.151-2.473,14.389-4.66,21.593-6.958c2.842-0.864,5.672-1.775,8.5-2.642c-0.086-0.73-0.543-1.041-0.868-1.439
			c-5.344-6.582-11.146-12.751-16.525-19.285c-3.96-4.771-8.17-9.319-12.142-14.079c-5.502-6.58-6.523-17.622-2.353-25.121
			c3.375-6.071,10.409-9.644,16.468-8.313c3.024,0.666,5.434,2.398,7.584,4.551c4.554,4.573,8.336,9.785,12.61,14.602
			c2.582,2.897,5.235,5.735,7.669,8.764c4.79,5.95,10.061,11.486,14.909,17.367c4.434,5.402,9.119,10.552,13.656,15.843
			c4.444,5.182,7.64,10.772,7.194,17.899c-0.035,0.465-0.063,0.941-0.123,1.408c-0.876,7.146-4.119,12.736-10.585,16.245
			c-3.04,1.029-6.085,2.051-9.131,3.094c-0.282-0.023-0.479,0.033-0.468,0.389l-0.104,0.066c-0.693-0.267-1.282,0.091-1.884,0.277
			C333.917,349.944,331.081,350.887,328.215,351.772z"/>
		<path style="fill-rule:evenodd;clip-rule:evenodd;" d="M139.904,324.967c-0.185-0.121-0.853,0.033-0.263-0.499
			c2.73-0.035,5.436-0.054,8.175-0.088c3.935,0.088,7.885,0.221,11.83-0.079c4.912,0.232,9.807,0.089,14.737-0.032
			c5.307,0.344,10.639,0.221,15.961,0.077c5.073,0.343,10.165,0.144,15.236,0.087c0.61-0.008,1.32-0.053,1.786-0.619
			c0.222,0,0.373-0.078,0.39-0.312l-0.017,0.035c0.748-0.157,1.121-0.823,1.624-1.301c5.227-5.015,10.466-9.995,15.491-15.211
			c1.17-1.198,2.454-2.286,3.679-3.428c-0.093-0.124-0.191-0.257-0.298-0.4c-1.362-0.089-2.705-0.176-4.051-0.277
			c-6.771-0.633-13.543-1.255-20.31-1.864c-4.976-0.443-9.952-0.898-14.934-1.31c-1.334-0.112-2.682-0.531-4.034-0.076
			c-0.873-0.534-1.861-0.323-2.796-0.409c-2.87-0.3-5.757-0.557-8.628-0.846c4.328-0.51,8.628-0.6,12.95-0.409
			c6.854-0.023,13.714-0.046,20.57-0.046c7.8,0.134,15.601,0.112,23.394-0.044c2.416,0.422,4.545-0.101,6.065-2.119
			c1.364-1.809,3.196-3.174,4.635-4.904l-0.018,0.012c0.399-0.089,0.619-0.365,0.731-0.732h-0.055
			c0.122-0.076,0.225-0.135,0.344-0.188c4.571-4.185,9.082-8.401,13.286-12.972c0.188-0.21,0.454-0.509,0.424-0.731
			c-0.063-0.443-0.526-0.378-0.864-0.422c-5.203-0.578-10.417-1.154-15.632-1.732c-4.863-0.563-9.714-1.187-14.58-1.709
			c-3.497-0.365-6.976-0.997-10.492-1.075c-0.448-0.157-1.069,0.165-1.405-0.477c0.957-0.566,1.936-0.1,2.896-0.135
			c10.374-0.021,20.764-0.033,31.138-0.043c2.962,0.022,5.964-0.221,8.899,0.122c4.505,0.5,7.999-0.922,10.749-4.46
			c1.237-1.564,3.161-2.54,3.974-4.483l-0.021,0.012c0.308,0.056,0.475-0.078,0.565-0.367c1.481-1.343,2.972-2.685,4.851-4.415
			c-0.554,2.685-1.3,4.748-1.612,6.911c-1.063,7.514,0.867,14.193,5.484,20.106c2.237,2.863,4.906,5.371,7.05,8.333
			c0.988,1.343,1.891,2.752,2.913,4.05c0.751,0.932-0.079,1.242-0.543,1.697c-3.774,3.64-7.707,7.146-11.354,10.929
			c-5.631,5.836-11.763,11.163-17.363,17.021c-5.239,5.471-10.986,10.408-16.16,15.913c-4.046,4.282-8.504,8.098-12.5,12.415
			c-3.02,3.039-6.019,6.078-9.03,9.133c-2.987,2.393-5.64,5.123-8.254,7.889c-1.732,1.63-3.731,2.941-5.17,4.86
			c-5.687,3.747-11.609,4.172-17.311,0.464c-4.029-2.62-6.458-6.733-7.932-11.341c-0.167-0.509-0.335-1.022-0.508-1.532
			c-0.206-0.929-0.417-1.852-0.625-2.784c-0.931-9.408,3.127-16.632,9.874-22.723c2.164-1.941,4.118-4.114,6.18-6.158
			c0.63-0.397,1.243-0.797,1.619-1.753c-2.13-0.166-4.103-0.311-6.097-0.477c-4.26-0.398-8.524-0.832-12.806-1.152
			c-2.65-0.2-5.282-0.733-7.981-0.546c-4.704-0.542-9.408-1.099-14.124-1.64c-3.904-0.556-7.822-0.934-11.772-1.067
			C145.227,325.21,142.586,324.936,139.904,324.967z"/>
		<g>
			<path style="fill-rule:evenodd;clip-rule:evenodd;" d="M357.577,148.348c2.664,0.012,5.339,0.066,7.989,0.012
				c1.598-0.035,2.285-0.989,2.087-2.565c0.829-0.519,0.898-1.496,1.36-2.233c0.295-0.516,0.014-0.79-0.462-0.872
				c-2.606-0.435-5.126-1.312-7.803-1.442c-0.052-0.024-0.104-0.055-0.155-0.096c-0.136-0.327-0.402-0.415-0.739-0.372
				c-3.872-0.854-7.779-1.698-11.675-2.563c0.023-0.154,0.047-0.311,0.047-0.455c1.853,0,3.692,0,5.548,0
				c4.745-0.022,9.495-0.033,14.233-0.044c4.341,1.02,7.259-1.099,9.641-4.404c0.266-0.382,0.713-0.616,1.413-1.194
				c-5.072-1.194-9.732-2.296-14.403-3.399c0.01-0.6,0.479-0.412,0.789-0.412c8.542,0.011,17.084,0.023,25.619,0.045
				c4.704,0.011,9.275,0.776,13.17,3.417c6.455,4.372,10.94,10.364,13.244,17.869c0.67,2.127,1.169,4.317,1.747,6.453
				c0,3.594,0,7.18,0,10.757c-0.782,0.583-0.537,1.504-0.699,2.269c-1.932,9.154-6.016,16.866-14.292,21.887
				c-2.204,1.331-4.593,2.203-6.992,3.046c-1.063,0.175-2.152,0.354-3.211,0.521c-2.282,0.012-4.528-0.167-6.796-0.466
				c-1.053-0.328-2.12-0.623-3.17-0.994c-7.463-2.712-12.369-8.061-15.649-15.128c-0.474-1.215-0.965-2.42-1.407-3.646
				c-2.163-6.253-2.776-12.63-1.649-19.177c0.127-0.737,0.584-1.664-0.826-1.875c-2.762-0.4-5.501-0.889-8.259-1.344
				c-4.524-1.297-9.362-1.254-13.734-3.295c1.16-0.167,2.275-0.167,3.396-0.167C349.813,148.438,353.688,148.391,357.577,148.348z"
				/>
			<path style="fill-rule:evenodd;clip-rule:evenodd;" d="M332.346,226.592c2.453,0.112,2.509,0.068,2.497-2.417
				c-0.019-2.198-0.075-4.428,0.029-6.635c0.06-1.409-0.492-1.975-1.864-2.264c-6.43-1.375-12.845-2.862-19.271-4.315
				c0.557-0.555,1.254-0.299,1.878-0.311c5.195-0.035,10.374-0.055,15.557-0.078c3.693,0.389,3.706,0.342,3.693-3.317
				c-0.022-3.273,0.013-6.558-0.011-9.83c-0.056-5.638,1.542-10.619,5.237-14.992c3.561-4.254,7.99-5.718,13.332-4.931
				c2.408,0.349,4.429,1.637,6.518,2.759c0.713,0.829,1.426,1.698,2.144,2.533c3.034,3.55,4.57,7.678,4.88,12.3
				c-0.006,4.383-0.16,8.776,0.107,13.17c-0.306,6.159-0.14,12.295-0.084,18.441c-0.023,2.607,0,5.205-0.077,7.812
				c-0.03,1.042,0.37,1.332,1.343,1.32c3.016-0.044,6.035,0,9.053,0.012c1.009,0.01,2.015,0.075,3.027,0.043
				c4.347-0.1,8.701,0.245,13.05-0.144c1.809,0.055,3.605,0.2,5.414-0.133c0.383,0.101,0.768,0.177,1.146,0.276
				c2.207,0.266,4.293,0.911,6.254,1.999c4.995,2.83,6.804,7.401,7.225,12.794c0.332,4.27-0.181,8.453-1.308,12.559
				c-1.196,4.372-4.139,7.134-8.146,8.931c-2.684,1.223-5.504,1.932-8.377,2.464c-1.196,0.101-2.395,0.199-3.595,0.299
				c-1.727-0.044-3.473-0.089-5.2-0.121c-3.353,0.054-6.675,0.112-10.021,0.145c-1.976-0.502-3.992-0.145-6.004-0.179
				c-2.895-0.065-5.808,0-8.709,0.023c-3.763-0.033-7.495-0.045-11.247-0.1c-4.408-0.067-8.104-1.709-10.973-5.094
				c-2.445-2.886-3.878-6.234-4.698-9.886c-0.423-2.796-0.364-5.59-0.238-8.399c0.062-1.486-0.45-1.875-1.893-1.973
				c-11.945-0.834-23.923-1.51-35.838-2.721c-6.681-0.675-13.359-1.185-20.06-1.676c-4.196-0.288-8.402-0.397-12.939-1.074
				c1.064-0.623,1.798-0.423,2.485-0.433c6.779-0.178,13.558,0.321,20.331-0.221c0.37,0.731,1.063,0.374,1.566,0.374
				c12.066,0.012,24.127,0.012,36.188,0c0.525,0,1.058-0.109,1.577-0.143c2.398,0,4.769-0.032,7.167,0
				c0.878,0.021,1.297-0.167,1.277-1.178c-0.058-2.795-0.023-5.59-0.013-8.396c0.013-1.077-0.41-1.554-1.525-1.775
				c-3.948-0.734-7.975-0.989-11.921-1.932c-4.439-1.052-9.065-1.321-13.621-1.929c-3.146-0.435-6.305-0.846-9.461-1.257
				c0.012-0.145,0.012-0.265,0.035-0.399C309.626,226.592,320.989,226.592,332.346,226.592z"/>
			<path style="fill-rule:evenodd;clip-rule:evenodd;" d="M295.516,211.261c-1.307,1.274-2.473,2.729-3.924,3.814
				c-4.86,3.65-11.373,3.842-16.666,0.623c-0.653-0.387-1.307-0.831-1.948-1.254c0.15-0.609-0.413-0.798-0.739-1.098
				c-1.492-1.386-2.737-2.939-3.745-4.705c-1.913-3.384-2.716-7.055-2.931-10.874c-0.011-2.93,0.452-5.796,1.056-8.664
				c0.165-0.779,0.17-1.156-0.813-1.21c-4.207-0.239-8.431-0.565-12.63-0.859c-5.453-0.371-10.914-0.706-16.363-1.116
				c-9.315-0.695-18.62-1.409-27.93-2.135c-5.742-0.485-11.48-0.989-17.228-1.493c-0.022-0.006-0.041-0.106-0.115-0.259
				c0.427-0.638,1.135-0.333,1.705-0.333c5.889-0.018,11.784,0,17.701,0.015c0.826,0,1.67,0.056,2.447-0.299
				c0.234,0.044,0.465,0.123,0.697,0.123c8.414,0,16.822-0.014,25.231,0c0.921,0,1.768-0.243,2.632-0.511
				c10.001-3.04,20.114-5.626,30.436-7.334c1.809-0.293,4.016-0.094,5.334-1.076c2.675-1.952,4.66-4.738,6.461-7.711
				c-4.225-0.423-8.181-0.845-12.148-1.238c-12.308-1.37-24.618-2.73-36.961-3.705c-0.613-0.162-1.22-0.294-1.833-0.435
				c0.012-0.082,0.012-0.154,0.023-0.23c1.751,0,3.485,0,5.236,0c16.406,0.014,32.816,0.02,49.231,0.061
				c0.909,0,1.641-0.313,2.22-0.994c2.077-2.534,4.172-5.054,6.258-7.584c3.051-3.682,6.127-7.372,9.388-11.277
				c-11.388-1.266-22.497-2.503-33.599-3.718c-2.487-0.294-4.946-0.583-7.417-0.888c0.005-0.105,0.005-0.205,0.017-0.326
				c0.586,0,1.188,0,1.787,0c16.776,0,33.558,0.021,50.329-0.057c3.212-0.007,5.914,1.198,8.578,2.718
				c0.056,0.212,0.209,0.262,0.391,0.212h-0.015c2.072,1.688,3.841,3.683,5.591,5.696c3.719,4.239,6.881,8.918,10.74,13.023
				c5.427,6.434,10.493,13.148,16.289,19.538c-1.109,0.205-1.719-0.266-2.36-0.51c-3.396-1.244-6.782-1.272-10.154-0.015
				c-7.086,2.672-10.662,8.267-12.585,15.184c-1.079,3.917-0.709,7.941-0.784,11.937c-0.012,0.478,0.277,1.044-0.255,1.466
				c-0.282-0.291-0.55-0.523-0.801-0.766c-2.177-2.721-4.305-5.438-6.481-8.158c-2.412-2.928-4.859-5.858-7.237-8.83
				c-0.555-0.682-0.85-0.576-1.355,0.011c-2.093,2.586-4.231,5.16-6.363,7.729C305.118,199.576,300.312,205.413,295.516,211.261z"/>
		</g>
	</g>
	<path style="fill-rule:evenodd;clip-rule:evenodd;" d="M331.759,360.431c-0.193,0.267-0.43,0.353-0.862,0.098
		c0.38-0.033,0.628-0.046,0.886-0.068L331.759,360.431z"/>
	<path style="fill-rule:evenodd;clip-rule:evenodd;" d="M338.772,348.712c-0.012-0.355,0.186-0.412,0.468-0.389
		C339.193,348.577,339.043,348.7,338.772,348.712z"/>
	<path style="fill-rule:evenodd;clip-rule:evenodd;" d="M271.034,261.511c-0.09,0.29-0.257,0.423-0.565,0.367
		C270.567,261.622,270.747,261.5,271.034,261.511z"/>
	<path style="fill-rule:evenodd;clip-rule:evenodd;" d="M241.077,290.904c-0.127-0.602,0.422-0.566,0.731-0.732
		C241.696,290.539,241.476,290.815,241.077,290.904z"/>
	<path style="fill-rule:evenodd;clip-rule:evenodd;" d="M241.754,290.172c0.122-0.076,0.225-0.135,0.344-0.188
		C241.979,290.037,241.875,290.096,241.754,290.172z"/>
	<path style="fill-rule:evenodd;clip-rule:evenodd;" d="M207.366,323.813c0.135-0.09,0.269-0.2,0.39-0.312
		C207.738,323.735,207.588,323.813,207.366,323.813z"/>
	<g>
		<path style="fill-rule:evenodd;clip-rule:evenodd;fill:#FFFFFF;" d="M324.867,194.836c2.177,2.72,4.305,5.437,6.494,8.158
			c-0.448,2.528-0.085,5.06-0.189,7.578c-5.183,0.023-10.361,0.043-15.557,0.078c-0.624,0.012-1.321-0.244-1.878,0.311
			c-6.071-0.134-12.147-0.067-18.222,0.3c4.796-5.848,9.603-11.685,14.396-17.515c1.134,0.061,2.263,0.108,3.382,0.204
			C317.152,194.238,321.014,194.55,324.867,194.836z"/>
		<g>
			<path style="fill-rule:evenodd;clip-rule:evenodd;fill:#FFFFFF;" d="M182.969,361.159c0.208,0.933,0.418,1.855,0.625,2.784
				c-4.444-2.194-8.415-5.123-12.274-8.176c-6.617-5.225-9.389-12.57-10.928-20.526c-0.535-2.819-0.758-5.657-0.758-8.53
				c4.716,0.541,9.42,1.098,14.124,1.64c-0.427,3.916-0.555,7.813-0.104,11.751C174.613,348.09,177.875,355.014,182.969,361.159z"/>
			<g>
				<path style="fill-rule:evenodd;clip-rule:evenodd;fill:#FFFFFF;" d="M147.816,324.38c-2.739,0.034-5.444,0.053-8.175,0.088
					c-0.3-3.496-0.968-6.946-1.188-10.475c-0.789-12.028,0.399-23.69,5.849-34.673c1.121-2.264,2.45-4.36,3.959-6.347
					c0.867-1.155,1.788-1.176,2.883-0.332c2,1.52,4.075,2.938,6.042,4.471c1.673,1.263,1.702,1.897,0.771,3.805
					c-6.634,13.415-10.206,27.563-10.217,42.574C147.74,323.778,147.772,324.068,147.816,324.38z"/>
				<path style="fill-rule:evenodd;clip-rule:evenodd;fill:#FFFFFF;" d="M376.774,274.96c3.347-0.033,6.669-0.09,10.021-0.145
					c0.531,12.27-1.655,23.965-7.438,34.908c-1.255,2.374-2.526,4.716-4.018,6.934c-0.253,0.388-0.542,1.021-1.052,0.721
					c-0.645-0.378,0.035-0.822,0.209-1.188c3.809-8.343,6.27-16.976,5.637-26.286C379.774,284.757,378.534,279.807,376.774,274.96z"
					/>
				<path style="fill-rule:evenodd;clip-rule:evenodd;fill:#FFFFFF;" d="M139.904,324.967c2.682-0.031,5.322,0.243,7.957,0.677
					c0.344,5.848,2.641,11.063,5.199,16.222c2.413,4.85,5.585,9.152,8.981,13.314c0.178,0.199,0.312,0.456,0.522,0.768
					C153.907,354.126,141.548,337.129,139.904,324.967z"/>
				<path style="fill-rule:evenodd;clip-rule:evenodd;fill:#FFFFFF;" d="M391.996,274.937c1.2-0.101,2.398-0.198,3.595-0.299
					c-1.464,5.271-3.039,10.476-5.207,15.49C390.887,285.057,392.098,280.053,391.996,274.937z"/>
				<g>
					<path style="fill-rule:evenodd;clip-rule:evenodd;fill:#FFFFFF;" d="M270.49,261.866c-0.813,1.944-2.737,2.919-3.974,4.483
						c-2.75,3.538-6.244,4.96-10.749,4.46c-2.936-0.342-5.938-0.1-8.899-0.122c5.964-2.697,12.084-5.048,18.328-6.969
						C266.994,263.164,268.494,261.835,270.49,261.866z"/>
					<path style="fill-rule:evenodd;clip-rule:evenodd;fill:#FFFFFF;" d="M207.001,297.96c3.216-2.885,6.103-6.137,9.585-8.753
						c4.484-3.375,9.133-6.48,13.771-9.62c2.918-1.965,6.079-3.462,8.955-5.46c5.215,0.578,10.429,1.154,15.632,1.732
						c0.338,0.044,0.801-0.021,0.864,0.422c0.029,0.223-0.237,0.521-0.424,0.731c-4.204,4.571-8.715,8.788-13.286,12.972
						c-0.119,0.053-0.222,0.111-0.344,0.188h0.055c-0.31,0.166-0.858,0.131-0.731,0.732l0.018-0.012
						c-0.451-0.267-0.797,0.055-1.138,0.244c-3.49,1.842-6.493,4.37-9.562,6.779C222.602,298.072,214.801,298.094,207.001,297.96z"
						/>
					<g>
						<g>
							<path style="fill-rule:evenodd;clip-rule:evenodd;fill:#FFFFFF;" d="M265.563,197.767c0.215,3.819,1.019,7.49,2.931,10.874
								c1.008,1.766,2.253,3.319,3.745,4.705c0.326,0.3,0.889,0.489,0.739,1.098c-16.363,2.774-32.045,7.779-46.86,15.212
								c-9.573,4.792-19.063,9.865-27.944,15.944c-6.207,4.239-12.244,8.688-18.326,13.094c-2.751,1.997-3.046,2.008-5.265-0.565
								c-1.858-2.154-3.667-4.396-5.597-6.503c-1.208-1.331-0.911-2.197,0.222-3.449c5.756-6.406,12.771-11.264,19.605-16.368
								c9.03-6.756,19.024-11.807,28.97-16.978c14.468-7.511,29.814-12.346,45.583-16.12
								C264.129,198.534,265.066,198.634,265.563,197.767z"/>
							<path style="fill-rule:evenodd;clip-rule:evenodd;fill:#FFFFFF;" d="M272.035,163.665c3.967,0.393,7.924,0.814,12.148,1.238
								c-1.801,2.973-3.786,5.759-6.461,7.711c-1.318,0.982-3.525,0.783-5.334,1.076c-10.321,1.708-20.435,4.294-30.436,7.334
								c-0.864,0.268-1.711,0.511-2.632,0.511c-8.409-0.014-16.817,0-25.231,0c-0.231,0-0.462-0.079-0.697-0.123
								c4.736-2.598,9.764-4.472,14.788-6.38c9.938-3.805,20.207-6.49,30.592-8.815C263.17,165.229,267.638,164.653,272.035,163.665
								z"/>
							<path style="fill-rule:evenodd;clip-rule:evenodd;fill:#FFFFFF;" d="M208.883,183.782c9.31,0.727,18.614,1.44,27.93,2.135
								c5.45,0.41,10.911,0.745,16.363,1.116c-10.468,2.844-20.876,5.875-30.897,10.036c-4.649,1.942-9.311,3.895-13.853,6.047
								c-1.542,0.733-2.413,0.422-3.1-1.098c-1.667-3.673-3.373-7.358-5.146-11.007c-0.579-1.21-0.33-2.021,0.797-2.663
								C203.618,186.827,206.248,185.306,208.883,183.782z"/>
							<path style="fill-rule:evenodd;clip-rule:evenodd;fill:#FFFFFF;" d="M209.345,376.353c1.439-1.919,3.438-3.23,5.17-4.86
								c3.383,2.56,6.761,5.247,10.74,6.824c4.591,1.798,9.35,3.162,14.228,4.024c7.313,1.31,14.702,1.888,22.619,1.888
								c-3.033,0.898-5.691,1.063-8.333,1.168c-9.897,0.387-19.805,0.54-29.427-2.398
								C219.062,381.377,213.997,379.334,209.345,376.353z"/>
							<g>
								<g>
									<path style="fill-rule:evenodd;clip-rule:evenodd;fill:#FFFFFF;" d="M332.346,226.592c-11.356,0-22.72,0-34.084,0
										c-0.023,0.135-0.023,0.255-0.035,0.399c3.156,0.411,6.315,0.822,9.461,1.257c4.556,0.608,9.182,0.876,13.621,1.929
										c3.946,0.943,7.973,1.198,11.921,1.932c1.115,0.221,1.538,0.698,1.525,1.775c-0.011,2.806-0.045,5.601,0.013,8.396
										c0.02,1.011-0.399,1.199-1.277,1.178c-2.398-0.032-4.769,0-7.167,0c-4.293-1.022-8.708-1.232-13.106-1.477
										c-8.774-0.465-17.514,0.125-26.225,1.246c-6.773,0.542-13.552,0.043-20.331,0.221c-0.688,0.01-1.421-0.19-2.485,0.433
										c4.537,0.677,8.743,0.786,12.939,1.074c-11.601,3.24-23.458,5.649-34.61,10.419c-4.439,1.898-8.964,3.696-13.069,6.192
										c-4.36,2.672-8.799,5.193-12.903,8.241c-0.311,0.235-0.54,0.602-0.803,0.922c-0.959,0.035-1.939-0.432-2.896,0.135
										c0.336,0.641,0.957,0.32,1.405,0.477c-5.435,4.526-10.922,9.01-16.257,13.626c-4.432,3.814-8.523,7.954-11.552,13.037
										c-4.322-0.19-8.622-0.101-12.95,0.409c2.872,0.289,5.759,0.546,8.628,0.846c0.936,0.086,1.923-0.125,2.796,0.409
										c-1.578,2.661-3.279,5.26-4.675,8.032c-2.687,5.248-4.473,10.851-5.848,16.566c-4.93,0.121-9.825,0.265-14.737,0.032
										c0.364-10.042,2.981-19.371,8.321-27.981c3.156-5.106,6.868-9.722,10.628-14.347c5.34-6.537,11.344-12.394,17.612-18.031
										c6.943-6.246,15.045-10.652,22.966-15.4c12.913-7.767,26.889-12.983,41.091-17.765c17.476-5.892,35.391-7.345,53.639-6.335
										C320.097,224.784,326.257,225.407,332.346,226.592z"/>
									<path style="fill-rule:evenodd;clip-rule:evenodd;fill:#FFFFFF;" d="M399.943,235.891c-0.378-0.1-0.763-0.176-1.146-0.276
										c-0.909-2.697-1.71-5.447-2.75-8.11c-1.773-4.583-4.368-8.722-7.05-12.805c-5.588-8.544-13.411-14.513-22.033-19.607
										c-0.31-4.622-1.846-8.75-4.88-12.3c-0.718-0.834-1.431-1.704-2.144-2.544c-0.021-1.365-0.093-2.729-0.021-4.106
										c0.104-1.908,0.676-2.24,2.362-1.397c2.069,1.038,4.096,2.158,6.135,3.239c3.28,7.067,8.187,12.416,15.649,15.128
										c1.05,0.371,2.117,0.667,3.17,0.994c3.894,5.736,7.666,11.539,9.863,18.163C399.66,219.937,400.74,227.805,399.943,235.891
										z"/>
									<path style="fill-rule:evenodd;clip-rule:evenodd;fill:#FFFFFF;" d="M368.008,137.718
										c-4.738,0.011-9.488,0.021-14.233,0.044c-0.835-0.71-1.872-1.05-2.852-1.476c-10.688-4.748-22.01-7.296-33.333-9.909
										c-3.296-0.752-3.416-0.77-3.396-4.249c0-1.719,0.034-3.461,0.012-5.187c-0.012-1.382,0.662-2.225,2.044-2.168
										c5.758,0.266,11.453,0.832,16.98,2.809c3.245,1.165,6.612,2.049,9.825,3.337c7.252,2.957,13.782,7.167,19.861,11.994
										C364.703,134.329,366.855,135.555,368.008,137.718z"/>
								</g>
								<path style="fill-rule:evenodd;clip-rule:evenodd;fill:#FFFFFF;" d="M114.274,295.165
									c-4.52-6.271-6.377-12.971-7.212-20.062c-0.708-6.002-0.558-12.027,0.035-18.04c0.205-2.264,0.373-2.375,2.658-2.11
									c1.358,0.178,2.716,0.355,4.086,0.455c0.93,0.068,1.254,0.422,1.011,1.375c-1.609,6.38-2.242,12.928-2.687,19.484
									c-0.399,5.859,0.249,11.65,1.757,17.366C113.996,293.979,114.068,294.31,114.274,295.165z"/>
								<path style="fill-rule:evenodd;clip-rule:evenodd;fill:#FFFFFF;" d="M394.033,194.572c1.059-0.167,2.148-0.347,3.211-0.521
									c0.202,1.663,0.48,3.318,0.636,4.971c0.128,1.396,1.388,2.828-0.069,4.316C396.845,200.273,395.8,197.257,394.033,194.572z"
									/>
							</g>
							<g>
								<path style="fill-rule:evenodd;clip-rule:evenodd;fill:#FFFFFF;" d="M132.666,325.644c-1.736-2.707-3.458-5.226-5.007-7.833
									c-6.219-10.486-9.975-21.638-9.314-34.019c0.361-6.647,2.15-12.904,4.601-19.052c4.866-12.149,11.157-23.434,19.401-33.665
									c4.382-5.436,9.332-10.174,14.669-14.589c3.649-2.996,7.443-5.727,11.686-7.846c1.6-0.811,2.45-0.42,3.121,1.033
									c1.578,3.364,3.132,6.689,4.71,10.041c0.489,1.043,0.21,1.854-0.636,2.542c-1.061,0.854-2.182,1.651-3.225,2.552
									c-7.449,6.345-14.658,12.993-20.949,20.494c-4.155,4.993-8.206,10.107-11.589,15.667
									c-7.996,13.159-12.556,27.239-11.509,42.863c0.453,6.756,1.618,13.369,3.86,19.782
									C132.695,324.214,133.105,324.812,132.666,325.644z"/>
								<path style="fill-rule:evenodd;clip-rule:evenodd;fill:#FFFFFF;" d="M222.769,363.604c3.011-3.055,6.01-6.094,9.03-9.133
									c2.054,9.885,8.429,16.213,16.91,20.979c2.228,1.245,4.45,2.32,6.919,2.93c0.289,0.07,0.574,0.167,0.67,0.746
									c-5.365-0.924-10.751-1.145-15.733-3.54c-3.471-1.644-6.938-3.172-10.12-5.325
									C227.63,368.342,224.931,366.268,222.769,363.604z"/>
								<g>
									<path style="fill-rule:evenodd;clip-rule:evenodd;fill:#FFFFFF;" d="M341.999,156.16
										c-3.859-4.105-7.021-8.784-10.74-13.023c-1.75-2.014-3.519-4.009-5.591-5.696c7.086,1.033,13.901,3.14,20.68,5.382
										c3.33,1.121,6.506,2.612,9.66,4.166c0.65,0.317,1.304,0.605,1.569,1.359c-3.889,0.043-7.765,0.09-11.639,0.132
										c-1.121,0-2.236,0-3.396,0.167c4.372,2.041,9.21,1.998,13.729,3.295c-0.382,1.987-1.099,3.857-1.838,5.736
										c-0.475,1.189-1.16,1.534-2.479,1.138C348.654,157.846,345.407,156.724,341.999,156.16z"/>
									<g>
										<g>
											<path style="fill-rule:evenodd;clip-rule:evenodd;fill:#FFFFFF;" d="M262.928,76.881c2.139,0.727,4.422,0.57,6.594,1.11
												c1.011,0.243,2.04,0.421,3.043,0.792c-5.967,0.076-11.902,0.482-17.809,0.905c-11.663,0.875-23.411,1.548-34.674,4.888
												c-7.412,2.203-14.956,3.911-22.301,6.396c-0.723,0.266-1.301,0.466-1.711-0.521c-0.41-0.959,0.269-1.165,0.844-1.422
												c1.231-0.607,2.474-1.175,3.728-1.751c11.748-5.509,24.341-7.689,37.061-9.365c2.551-0.328,5.181-0.187,7.663-1.031
												C251.217,76.881,257.067,76.881,262.928,76.881z"/>
										</g>
										<path style="fill-rule:evenodd;clip-rule:evenodd;fill:#FFFFFF;" d="M332.237,100.903
											c-2.697-1.088-5.171-2.081-7.642-3.075c-14.563-5.925-29.744-9.131-45.408-10.058c-2.991-0.171-5.973-0.034-8.958,0.148
											c-0.829,0.063-1.863,0.156-2.129-0.846c-0.33-1.314-0.428-2.747,0.202-4.001c0.252-0.505,0.965-0.365,1.506-0.394
											c8.626-0.271,17.213,0.226,25.63,2.115c13.081,2.897,25.351,7.918,36.422,15.598
											C331.939,100.46,331.992,100.581,332.237,100.903z"/>
										<g>
											<path style="fill-rule:evenodd;clip-rule:evenodd;fill:#FFFFFF;" d="M238.5,159.295c-1.751,0-3.485,0-5.236,0
												c-0.012,0.076-0.012,0.149-0.023,0.23c0.613,0.14,1.22,0.273,1.833,0.435c-5.162,1.707-10.42,3.117-15.437,5.191
												c-11.552,4.778-23.254,9.358-33.917,15.995c-7.845,4.871-15.99,9.324-23.173,15.179
												c-6.658,5.393-13.365,10.816-19.256,17.085c-3.285,3.508-6.733,6.902-9.842,10.62c-0.953,1.132-1.896,1.297-3.074,0.433
												c-1.809-1.365-3.63-2.718-5.473-4.05c-1.318-0.944-1.537-2.086-0.965-3.584c1.896-5.104,5.296-9.165,8.819-13.169
												c6.718-7.659,14.679-13.926,22.584-20.293c7.822-6.327,16.343-11.553,24.853-16.832
												c10.752-6.671,22.351-11.482,34.047-16.141c16.606-6.63,33.905-10.469,51.43-13.508c2.113-0.355,4.292-0.301,6.319-1.104
												c11.11,1.215,22.22,2.452,33.607,3.718c-3.261,3.905-6.337,7.595-9.388,11.277c-1.918-0.041-3.825,0.116-5.733,0.199
												c-13.441,0.577-26.732,2.352-39.88,5.199C246.524,157.059,242.407,157.773,238.5,159.295z"/>
											<path style="fill-rule:evenodd;clip-rule:evenodd;fill:#FFFFFF;" d="M345.025,113.086
												c-6.736-1.787-13.506-3.5-20.384-4.744c-12.127-2.191-24.33-3.534-36.638-3.962c-21.752-0.754-43.173,1.461-64.165,7.263
												c-5.531,1.53-11.067,3.073-16.366,5.236c-11.599,4.705-23.382,9.039-34.221,15.412
												c-8.669,5.104-17.456,10.13-25.226,16.598c-5.897,4.912-11.972,9.694-17.115,15.426
												c-4.813,5.375-9.79,10.648-13.774,16.687c-3.384,5.125-6.903,10.181-9.521,15.756c-1.907,4.083-4.021,8.076-5.537,12.336
												c-0.155,0.434-0.21,0.921-0.776,1.311c-0.078-2.352,0.378-4.538,0.776-6.713c1.133-6.191,3.122-12.116,5.661-17.876
												c2.95-6.701,6.868-12.814,10.983-18.818c4.04-5.902,8.877-11.071,13.625-16.354c5.337-5.948,11.671-10.695,17.82-15.69
												c8.102-6.601,17.233-11.518,26.156-16.798c11.558-6.857,23.942-11.75,36.489-16.371
												c14.846-5.464,30.195-8.205,45.874-9.513c15.251-1.278,30.432-0.647,45.519,1.861c7.328,1.221,14.468,3.388,21.159,6.548
												c6.23,2.94,12.581,5.797,17.893,10.342c0.688,0.577,1.664,0.985,1.751,2.073L345.025,113.086z"/>
											<path style="fill-rule:evenodd;clip-rule:evenodd;fill:#FFFFFF;" d="M101.681,251.849
												c-0.665-4.408-0.665-8.733-0.445-13.072c0.668-13.237,4.572-25.52,10.917-37.114c3.641-6.634,8.109-12.638,12.807-18.523
												c4.45-5.565,9.708-10.315,14.774-15.275c6.641-6.522,14.173-11.837,21.623-17.33c8.891-6.558,18.707-11.387,28.56-16.205
												c15.031-7.384,31.022-11.863,47.041-16.384c6.117-1.72,12.246-2.939,18.516-3.632c2.502-0.263,5.01-0.302,7.519-0.007
												c1.04,0.122,1.817,0.55,1.939,1.721c0.254,2.429,0.499,4.865,0.294,7.312c-0.129,1.398-0.838,2.089-2.259,2.325
												c-10.723,1.823-21.386,3.977-31.756,7.195c-14.346,4.447-28.816,8.639-42.279,15.456
												c-9.601,4.871-19.079,10.13-27.632,16.745c-6.415,4.947-13.015,9.708-18.826,15.389
												c-5.585,5.459-11.353,10.741-16.357,16.755c-3.207,3.838-6.368,7.743-9.234,11.839
												c-4.569,6.492-7.343,13.88-10.16,21.236c-2.531,6.646-3.675,13.557-4.286,20.605
												C102.404,251.214,102.491,251.625,101.681,251.849z"/>
											<path style="fill-rule:evenodd;clip-rule:evenodd;fill:#FFFFFF;" d="M114.068,167.099
												c2.147-5.638,5.178-10.785,8.183-15.989c3.54-6.146,8.091-11.483,12.683-16.821c3.02-3.515,6.458-6.503,9.969-9.453
												c10.478-8.85,21.732-16.45,33.894-22.878c14.835-7.852,30.698-12.239,47.033-15.424c2.777-0.548,5.68-0.493,8.371-1.644
												c0.186-0.082,0.512-0.098,0.673-0.003c1.743,0.858,1.46,2.529,1.645,4.043c0.132,1.267-0.582,1.609-1.613,1.909
												c-10.951,2.917-21.966,5.719-32.564,9.774c-11.85,4.551-23.591,9.455-34.435,16.112
												c-7.868,4.826-15.664,9.871-22.729,15.833c-5.99,5.064-12.197,9.984-17.366,15.966
												c-4.354,5.038-8.758,10.089-12.081,15.935C115.228,165.356,115.17,166.539,114.068,167.099z"/>
											<path style="fill-rule:evenodd;clip-rule:evenodd;fill:#FFFFFF;" d="M144.245,122.014
												c7.694-7.508,15.921-14.298,25.164-19.836c0.511-0.309,1.026-0.51,1.453-0.985c0.535-0.605,1.297-1.276,2.098-0.298
												c0.743,0.917,0.515,1.63-0.506,2.31c-6.417,4.34-12.855,8.639-19.178,13.13c-2.895,2.049-5.646,4.291-8.882,5.839
												C144.342,122.116,144.302,122.069,144.245,122.014z"/>
											<path style="fill-rule:evenodd;clip-rule:evenodd;fill:#FFFFFF;" d="M144.395,122.173
												c-0.211,0.188-0.445,0.311-0.705,0.068c0.199-0.078,0.375-0.149,0.555-0.227
												C144.302,122.069,144.342,122.116,144.395,122.173z"/>
										</g>
									</g>
								</g>
							</g>
						</g>
						<g>
							<path style="fill-rule:evenodd;clip-rule:evenodd;fill:#FFFFFF;" d="M335.144,259.724c0.82,3.652,2.253,7,4.698,9.886
								c2.868,3.385,6.564,5.027,10.973,5.094c3.752,0.055,7.484,0.067,11.247,0.1c2.369,3.407,4.555,6.947,6.611,10.576
								c3.433,5.989,4.025,12.425,3.387,19.062c-1.417,14.622-7.958,26.86-17.585,37.735c-5.65,6.379-12.252,11.484-19.363,16
								c-1.141,0.723-1.923,1.965-3.353,2.254l0.023,0.029c0.441-0.942,1.217-1.54,2.052-2.115
								c4.95-3.386,9.423-7.314,13.572-11.652c0.394-0.434,0.884-0.81,0.965-1.463c6.466-3.509,9.709-9.1,10.585-16.245
								c0.06-0.467,0.088-0.943,0.123-1.408c3.936-11.454,4.866-22.771-1.814-33.588c-3.403-5.514-7.727-10.096-13.413-13.415
								c-5.242-3.04-10.839-4.849-16.741-5.869c-2.763-0.479-3.029-0.81-2.884-3.674c0.121-3.04,0.586-6.045,1.229-9.02
								c0.466-2.23,1.186-2.797,3.442-2.718C330.981,259.358,333.062,259.558,335.144,259.724z"/>
							<path style="fill-rule:evenodd;clip-rule:evenodd;fill:#FFFFFF;" d="M302.376,319.43c-7.204,2.298-14.442,4.485-21.593,6.958
								c-2.947,1.021-5.921,2.063-8.793,3.317c-5.01,2.208-7.86,6.368-9.114,11.507c-1.944,8.154-0.583,15.7,5.426,21.856
								c3.555,3.627,8.154,4.84,13.039,3.465c7.333-2.065,14.632-4.317,21.833-6.801c2.846-0.989,5.663-2.078,8.558-2.867
								c-8.563,7.501-18.857,10.986-29.9,12.461c-7.359,0.987-14.514-0.123-21.361-3.104c-8.697-3.806-11.906-11.25-8.892-20.25
								c2.667-7.954,8.414-13.262,15.083-17.821c8.732-5.979,18.598-8.354,28.939-9.119
								C297.861,318.863,300.128,319.109,302.376,319.43z"/>
							<path style="fill-rule:evenodd;clip-rule:evenodd;fill:#FFFFFF;" d="M328.215,351.772c2.866-0.886,5.702-1.828,8.569-2.717
								c0.602-0.187,1.19-0.544,1.884-0.277c-2.381,3.106-5.548,5.37-8.386,8.012c-8.985,8.38-20.027,12.413-31.675,15.288
								c-0.546,0.136-0.891,0.211-1.222-0.419C309.09,367.25,320.169,361.85,328.215,351.772z"/>
							<path style="fill-rule:evenodd;clip-rule:evenodd;fill:#FFFFFF;" d="M207.366,323.813c-0.466,0.566-1.176,0.611-1.786,0.619
								c-5.071,0.057-10.163,0.256-15.236-0.087c2.386-7.455,6.177-14.169,11.142-20.216c0.829-0.999,1.866-1.843,2.387-3.074
								c6.767,0.609,13.54,1.231,20.31,1.864c-5.458,4.527-9.649,10.152-13.693,15.889c-1.058,1.488-2.3,2.876-2.751,4.729
								l0.017-0.035C207.634,323.613,207.501,323.724,207.366,323.813z"/>
						</g>
					</g>
				</g>
			</g>
		</g>
		<path style="fill-rule:evenodd;clip-rule:evenodd;fill:#FFFFFF;" d="M393.384,235.748c-4.349,0.388-8.703,0.044-13.05,0.144
			c-1.013,0.032-2.019-0.033-3.027-0.043c-3.063-3.463-6.281-6.77-10.318-9.144c-0.056-6.146-0.222-12.282,0.084-18.428
			c3.403,1.907,6.617,4.083,9.69,6.566C383.866,220.636,389.663,227.338,393.384,235.748z"/>
	</g>
</g>
</svg>
